SplineFontDB: 3.0
FontName: FiraMath-Bold
FullName: Fira Math Bold
FamilyName: Fira Math
Weight: Bold
Copyright: 
Version: 
ItalicAngle: 0
UnderlinePosition: -100
UnderlineWidth: 50
Ascent: 800
Descent: 200
InvalidEm: 0
LayerCount: 2
Layer: 0 0 "Back" 1
Layer: 1 0 "Fore" 0
XUID: [1021 620 891379711 19867]
OS2Version: 0
OS2_WeightWidthSlopeOnly: 0
OS2_UseTypoMetrics: 1
CreationTime: 1542519037
OS2TypoAscent: 0
OS2TypoAOffset: 1
OS2TypoDescent: 0
OS2TypoDOffset: 1
OS2TypoLinegap: 0
OS2WinAscent: 0
OS2WinAOffset: 1
OS2WinDescent: 0
OS2WinDOffset: 1
HheadAscent: 0
HheadAOffset: 1
HheadDescent: 0
HheadDOffset: 1
OS2Vendor: 'PfEd'
DEI: 91125
Encoding: UnicodeFull
Compacted: 1
UnicodeInterp: none
NameList: AGL For New Fonts
AntiAlias: 1
BeginChars: 1114138 1105

StartChar: uni0021
Encoding: 33 33 1
Width: 240
Flags: W
LayerCount: 2
Fore
SplineSet
204 693 m 1
 184 255 l 1
 56 255 l 1
 36 693 l 1
 204 693 l 1
120 164 m 0
 171 164 211 123 211 74 c 0
 211 24 171 -17 120 -17 c 0
 70 -17 30 24 30 74 c 0
 30 123 70 164 120 164 c 0
EndSplineSet
EndChar

StartChar: uni0022
Encoding: 34 34 2
Width: 439
Flags: W
LayerCount: 2
Fore
SplineSet
67 414 m 1
 48 693 l 1
 191 693 l 1
 171 414 l 1
 67 414 l 1
268 414 m 1
 249 693 l 1
 392 693 l 1
 373 414 l 1
 268 414 l 1
EndSplineSet
EndChar

StartChar: uni0023
Encoding: 35 35 3
Width: 557
Flags: W
LayerCount: 2
Fore
SplineSet
542 440 m 1
 472 440 l 1
 447 248 l 1
 505 248 l 1
 505 143 l 1
 433 143 l 1
 414 0 l 1
 283 0 l 1
 302 143 l 1
 202 143 l 1
 183 0 l 1
 52 0 l 1
 71 143 l 1
 15 143 l 1
 15 248 l 1
 85 248 l 1
 110 440 l 1
 52 440 l 1
 52 545 l 1
 124 545 l 1
 141 676 l 1
 272 676 l 1
 255 545 l 1
 355 545 l 1
 372 676 l 1
 503 676 l 1
 486 545 l 1
 542 545 l 1
 542 440 l 1
316 248 m 1
 341 440 l 1
 241 440 l 1
 216 248 l 1
 316 248 l 1
EndSplineSet
EndChar

StartChar: uni0024
Encoding: 36 36 4
Width: 549
Flags: W
LayerCount: 2
Fore
SplineSet
525 200 m 0
 525 97 457 21 340 -3 c 1
 340 -161 l 1
 226 -161 l 1
 226 -9 l 1
 129 -1 58 37 9 85 c 1
 90 173 l 1
 136 130 190 106 256 106 c 0
 321 106 361 137 361 188 c 0
 361 237 337 258 240 288 c 0
 91 335 37 396 37 494 c 0
 37 596 115 666 226 682 c 1
 226 830 l 1
 340 830 l 1
 340 682 l 1
 409 671 462 644 506 601 c 1
 433 515 l 1
 388 553 342 571 288 571 c 0
 233 571 198 548 198 506 c 0
 198 464 223 447 327 414 c 0
 452 374 525 321 525 200 c 0
EndSplineSet
EndChar

StartChar: uni0025
Encoding: 37 37 5
Width: 859
Flags: W
LayerCount: 2
Fore
SplineSet
614 720 m 1
 711 658 l 1
 248 -40 l 1
 151 22 l 1
 614 720 l 1
207 690 m 0
 307 690 385 620 385 510 c 0
 385 400 307 330 207 330 c 0
 108 330 29 400 29 510 c 0
 29 620 108 690 207 690 c 0
207 595 m 0
 155 595 142 553 142 510 c 0
 142 468 155 425 207 425 c 0
 259 425 271 467 271 510 c 0
 271 552 259 595 207 595 c 0
652 342 m 0
 752 342 830 273 830 163 c 0
 830 52 752 -17 652 -17 c 0
 552 -17 473 52 473 163 c 0
 473 273 552 342 652 342 c 0
652 247 m 0
 600 247 587 205 587 163 c 0
 587 121 600 77 652 77 c 0
 704 77 716 120 716 163 c 0
 716 205 704 247 652 247 c 0
EndSplineSet
EndChar

StartChar: uni0026
Encoding: 38 38 6
Width: 760
Flags: W
LayerCount: 2
Fore
SplineSet
313 710 m 0
 448 710 527 641 527 550 c 0
 527 466 472 412 395 361 c 1
 530 234 l 1
 549 274 565 322 578 378 c 1
 710 339 l 1
 684 263 653 202 618 153 c 1
 739 46 l 1
 604 -17 l 1
 526 58 l 1
 463 7 391 -17 307 -17 c 0
 159 -17 60 60 60 177 c 0
 60 260 105 314 195 373 c 1
 126 440 99 480 99 544 c 0
 99 630 168 710 313 710 c 0
315 608 m 0
 275 608 251 582 251 544 c 0
 251 509 266 486 308 444 c 1
 354 474 376 504 376 546 c 0
 376 584 353 608 315 608 c 0
285 288 m 1
 244 258 225 226 225 186 c 0
 225 131 268 95 334 95 c 0
 378 95 414 108 447 133 c 1
 285 288 l 1
EndSplineSet
EndChar

StartChar: uni0027
Encoding: 39 39 7
Width: 238
Flags: W
LayerCount: 2
Fore
SplineSet
67 414 m 1
 48 693 l 1
 191 693 l 1
 171 414 l 1
 67 414 l 1
EndSplineSet
EndChar

StartChar: uni0028
Encoding: 40 40 8
Width: 325
Flags: W
LayerCount: 2
Fore
SplineSet
212 859 m 1
 313 791 l 1
 220 658 178 535 178 350 c 0
 178 165 220 42 313 -91 c 1
 212 -159 l 1
 111 -20 18 111 18 350 c 0
 18 589 111 720 212 859 c 1
EndSplineSet
EndChar

StartChar: uni0029
Encoding: 41 41 9
Width: 325
Flags: W
LayerCount: 2
Fore
SplineSet
113 859 m 1
 213 720 306 589 306 350 c 0
 306 111 213 -20 113 -159 c 1
 12 -91 l 1
 104 42 147 165 147 350 c 0
 147 535 104 658 12 791 c 1
 113 859 l 1
EndSplineSet
EndChar

StartChar: uni002A
Encoding: 42 42 10
Width: 449
Flags: W
LayerCount: 2
Fore
SplineSet
441 535 m 1
 300 512 l 1
 401 410 l 1
 291 330 l 1
 225 457 l 1
 159 329 l 1
 49 409 l 1
 149 511 l 1
 8 535 l 1
 49 661 l 1
 177 599 l 1
 157 742 l 1
 293 742 l 1
 272 598 l 1
 399 662 l 1
 441 535 l 1
EndSplineSet
EndChar

StartChar: uni002B
Encoding: 43 43 11
Width: 531
Flags: W
LayerCount: 2
Fore
SplineSet
331 549 m 1
 331 393 l 1
 482 393 l 1
 482 271 l 1
 331 271 l 1
 331 115 l 1
 200 115 l 1
 200 271 l 1
 48 271 l 1
 48 393 l 1
 200 393 l 1
 200 549 l 1
 331 549 l 1
EndSplineSet
EndChar

StartChar: uni002C
Encoding: 44 44 12
Width: 240
Flags: W
LayerCount: 2
Fore
SplineSet
120 164 m 0
 171 164 210 125 210 74 c 0
 210 43 200 17 178 -32 c 2
 115 -177 l 1
 26 -177 l 1
 69 -1 l 1
 44 16 29 43 29 74 c 0
 29 125 68 164 120 164 c 0
EndSplineSet
EndChar

StartChar: uni002D
Encoding: 45 45 13
Width: 407
Flags: W
LayerCount: 2
Fore
SplineSet
44 252 m 1
 44 374 l 1
 363 374 l 1
 363 252 l 1
 44 252 l 1
EndSplineSet
EndChar

StartChar: uni002E
Encoding: 46 46 14
Width: 240
Flags: W
LayerCount: 2
Fore
SplineSet
120 164 m 0
 170 164 210 123 210 74 c 0
 210 24 170 -17 120 -17 c 0
 69 -17 29 24 29 74 c 0
 29 123 69 164 120 164 c 0
EndSplineSet
EndChar

StartChar: uni002F
Encoding: 47 47 15
Width: 520
Flags: W
LayerCount: 2
Fore
SplineSet
309 816 m 1
 447 785 l 1
 212 -112 l 1
 73 -80 l 1
 309 816 l 1
EndSplineSet
EndChar

StartChar: uni0030
Encoding: 48 48 16
Width: 585
Flags: W
LayerCount: 2
Fore
SplineSet
293 690 m 0
 459 690 548 564 548 337 c 0
 548 111 459 -17 293 -17 c 0
 127 -17 38 111 38 337 c 0
 38 564 127 690 293 690 c 0
293 573 m 0
 227 573 200 516 200 337 c 0
 200 158 227 100 293 100 c 0
 358 100 386 154 386 337 c 0
 386 521 358 573 293 573 c 0
EndSplineSet
EndChar

StartChar: uni0031
Encoding: 49 49 17
Width: 464
Flags: W
LayerCount: 2
Fore
SplineSet
382 676 m 1
 382 0 l 1
 227 0 l 1
 227 522 l 1
 82 433 l 1
 13 538 l 1
 241 676 l 1
 382 676 l 1
EndSplineSet
EndChar

StartChar: uni0032
Encoding: 50 50 18
Width: 517
Flags: W
LayerCount: 2
Fore
SplineSet
238 690 m 0
 389 690 471 602 471 497 c 0
 471 392 419 313 208 121 c 1
 485 121 l 1
 469 0 l 1
 29 0 l 1
 29 112 l 1
 256 336 309 397 309 481 c 0
 309 536 275 569 222 569 c 0
 173 569 139 547 99 499 c 1
 6 573 l 1
 60 644 137 690 238 690 c 0
EndSplineSet
EndChar

StartChar: uni0033
Encoding: 51 51 19
Width: 520
Flags: W
LayerCount: 2
Fore
SplineSet
239 690 m 0
 385 690 464 613 464 518 c 0
 464 436 415 381 332 357 c 1
 416 348 486 298 486 191 c 0
 486 78 395 -17 228 -17 c 0
 126 -17 49 21 -4 85 c 1
 81 168 l 1
 126 123 166 103 219 103 c 0
 281 103 324 139 324 201 c 0
 324 272 285 298 214 298 c 2
 158 298 l 1
 175 407 l 1
 214 407 l 2
 274 407 311 439 311 495 c 0
 311 544 276 573 221 573 c 0
 171 573 129 553 89 514 c 1
 11 599 l 1
 74 659 149 690 239 690 c 0
EndSplineSet
EndChar

StartChar: uni0034
Encoding: 52 52 20
Width: 565
Flags: W
LayerCount: 2
Fore
SplineSet
544 264 m 1
 544 146 l 1
 468 146 l 1
 468 0 l 1
 314 0 l 1
 313 146 l 1
 28 146 l 1
 28 251 l 1
 220 693 l 1
 354 643 l 1
 191 264 l 1
 315 264 l 1
 332 424 l 1
 468 424 l 1
 468 264 l 1
 544 264 l 1
EndSplineSet
EndChar

StartChar: uni0035
Encoding: 53 53 21
Width: 536
Flags: W
LayerCount: 2
Fore
SplineSet
472 676 m 1
 454 563 l 1
 209 563 l 1
 209 421 l 1
 243 437 277 443 309 443 c 0
 420 443 503 363 503 223 c 0
 503 80 399 -17 238 -17 c 0
 135 -17 64 26 13 85 c 1
 101 167 l 1
 136 126 177 102 232 102 c 0
 300 102 341 144 341 222 c 0
 341 306 302 335 246 335 c 0
 219 335 196 328 165 311 c 1
 58 311 l 1
 58 676 l 1
 472 676 l 1
EndSplineSet
EndChar

StartChar: uni0036
Encoding: 54 54 22
Width: 564
Flags: W
LayerCount: 2
Fore
SplineSet
345 455 m 0
 456 455 539 374 539 231 c 0
 539 93 445 -17 294 -17 c 0
 115 -17 38 115 38 309 c 0
 38 538 149 690 332 690 c 0
 396 690 447 671 486 645 c 1
 428 551 l 1
 400 567 371 577 336 577 c 0
 260 577 211 511 202 393 c 1
 244 436 294 455 345 455 c 0
296 96 m 0
 353 96 381 149 381 229 c 0
 381 316 353 346 301 346 c 0
 265 346 231 327 202 293 c 1
 204 152 228 96 296 96 c 0
EndSplineSet
EndChar

StartChar: uni0037
Encoding: 55 55 23
Width: 468
Flags: W
LayerCount: 2
Fore
SplineSet
450 676 m 1
 450 569 l 1
 202 -16 l 1
 59 32 l 1
 286 557 l 1
 13 557 l 1
 13 676 l 1
 450 676 l 1
EndSplineSet
EndChar

StartChar: uni0038
Encoding: 56 56 24
Width: 581
Flags: W
LayerCount: 2
Fore
SplineSet
417 363 m 1
 509 319 551 260 551 183 c 0
 551 74 455 -17 287 -17 c 0
 124 -17 29 72 29 180 c 0
 29 260 77 314 155 348 c 1
 83 390 56 446 56 508 c 0
 56 617 155 690 291 690 c 0
 425 690 525 626 525 516 c 0
 525 458 492 403 417 363 c 1
292 583 m 0
 242 583 209 557 209 506 c 0
 209 459 236 434 291 411 c 2
 312 403 l 1
 360 434 372 466 372 508 c 0
 372 552 345 583 292 583 c 0
292 96 m 0
 359 96 393 135 393 184 c 0
 393 239 365 265 289 293 c 2
 256 305 l 1
 210 279 188 239 188 188 c 0
 188 132 228 96 292 96 c 0
EndSplineSet
EndChar

StartChar: uni0039
Encoding: 57 57 25
Width: 560
Flags: W
LayerCount: 2
Fore
SplineSet
277 690 m 0
 444 690 529 582 529 428 c 0
 529 152 397 31 108 -28 c 1
 76 82 l 1
 246 123 332 179 359 299 c 1
 327 260 283 234 219 234 c 0
 114 234 26 318 26 457 c 0
 26 598 136 690 277 690 c 0
268 345 m 0
 306 345 341 366 368 405 c 1
 369 531 344 577 277 577 c 0
 221 577 185 538 185 462 c 0
 185 374 222 345 268 345 c 0
EndSplineSet
EndChar

StartChar: uni003A
Encoding: 58 58 26
Width: 240
Flags: W
LayerCount: 2
Fore
SplineSet
120 509 m 0
 170 509 210 468 210 419 c 0
 210 370 170 329 120 329 c 0
 69 329 29 370 29 419 c 0
 29 468 69 509 120 509 c 0
120 164 m 0
 170 164 210 123 210 74 c 0
 210 24 170 -17 120 -17 c 0
 69 -17 29 24 29 74 c 0
 29 123 69 164 120 164 c 0
EndSplineSet
EndChar

StartChar: uni003B
Encoding: 59 59 27
Width: 240
Flags: W
LayerCount: 2
Fore
SplineSet
120 509 m 0
 170 509 210 468 210 419 c 0
 210 370 170 329 120 329 c 0
 69 329 29 370 29 419 c 0
 29 468 69 509 120 509 c 0
120 164 m 0
 171 164 210 125 210 74 c 0
 210 43 200 17 178 -32 c 2
 115 -177 l 1
 26 -177 l 1
 69 -1 l 1
 44 16 29 43 29 74 c 0
 29 125 68 164 120 164 c 0
EndSplineSet
EndChar

StartChar: uni003C
Encoding: 60 60 28
Width: 519
Flags: W
LayerCount: 2
Fore
SplineSet
434 576 m 1
 484 465 l 1
 168 333 l 1
 484 205 l 1
 434 90 l 1
 34 263 l 1
 34 402 l 1
 434 576 l 1
EndSplineSet
EndChar

StartChar: uni003D
Encoding: 61 61 29
Width: 519
Flags: W
LayerCount: 2
Fore
SplineSet
48 375 m 1
 48 498 l 1
 470 498 l 1
 470 375 l 1
 48 375 l 1
48 165 m 1
 48 288 l 1
 470 288 l 1
 470 165 l 1
 48 165 l 1
EndSplineSet
EndChar

StartChar: uni003E
Encoding: 62 62 30
Width: 519
Flags: W
LayerCount: 2
Fore
SplineSet
84 576 m 1
 484 402 l 1
 484 263 l 1
 84 90 l 1
 34 205 l 1
 350 333 l 1
 34 465 l 1
 84 576 l 1
EndSplineSet
EndChar

StartChar: uni003F
Encoding: 63 63 31
Width: 481
Flags: W
LayerCount: 2
Fore
SplineSet
248 710 m 0
 394 710 467 632 467 543 c 0
 467 381 287 392 287 280 c 2
 287 255 l 1
 143 255 l 1
 143 286 l 2
 143 459 302 447 302 529 c 0
 302 565 276 586 232 586 c 0
 191 586 151 566 115 525 c 1
 14 603 l 1
 71 670 145 710 248 710 c 0
217 164 m 0
 267 164 307 123 307 74 c 0
 307 24 267 -17 217 -17 c 0
 167 -17 127 24 127 74 c 0
 127 123 167 164 217 164 c 0
EndSplineSet
EndChar

StartChar: uni0040
Encoding: 64 64 32
Width: 1020
Flags: W
LayerCount: 2
Fore
SplineSet
527 503 m 0
 582 503 646 488 700 458 c 1
 700 211 l 2
 700 128 713 102 747 102 c 0
 795 102 830 152 830 314 c 0
 830 488 734 595 526 595 c 0
 311 595 191 450 191 242 c 0
 191 29 307 -105 527 -105 c 0
 596 -105 672 -90 724 -71 c 1
 761 -180 l 1
 698 -204 610 -222 526 -222 c 0
 236 -222 48 -41 48 242 c 0
 48 514 248 710 527 710 c 0
 811 710 972 521 972 316 c 0
 972 135 886 4 754 4 c 0
 674 4 631 57 620 106 c 1
 596 50 549 8 477 8 c 0
 350 8 294 104 294 233 c 0
 294 397 379 503 527 503 c 0
498 107 m 0
 533 107 555 132 566 156 c 1
 566 394 l 1
 551 400 539 403 522 403 c 0
 470 403 437 361 437 232 c 0
 437 140 456 107 498 107 c 0
EndSplineSet
EndChar

StartChar: uni0041
Encoding: 65 65 33
Width: 590
Flags: W
LayerCount: 2
Fore
SplineSet
430 0 m 1
 395 149 l 1
 192 149 l 1
 157 0 l 1
 -13 0 l 1
 196 693 l 1
 395 693 l 1
 604 0 l 1
 430 0 l 1
220 268 m 1
 366 268 l 1
 293 574 l 1
 220 268 l 1
EndSplineSet
EndChar

StartChar: uni0042
Encoding: 66 66 34
Width: 617
Flags: W
LayerCount: 2
Fore
SplineSet
434 367 m 1
 511 352 590 314 590 202 c 0
 590 44 462 0 288 0 c 2
 65 0 l 1
 65 693 l 1
 261 693 l 2
 447 693 561 646 561 516 c 0
 561 428 498 382 434 367 c 1
277 577 m 2
 229 577 l 1
 229 416 l 1
 290 416 l 2
 358 416 394 442 394 500 c 0
 394 558 356 577 277 577 c 2
289 119 m 2
 366 119 421 135 421 211 c 0
 421 281 372 307 301 307 c 2
 229 307 l 1
 229 119 l 1
 289 119 l 2
EndSplineSet
EndChar

StartChar: uni0043
Encoding: 67 67 35
Width: 575
Flags: W
LayerCount: 2
Fore
SplineSet
348 710 m 0
 438 710 501 683 559 634 c 1
 481 541 l 1
 442 571 403 589 356 589 c 0
 267 589 205 518 205 348 c 0
 205 181 266 110 358 110 c 0
 413 110 453 135 494 166 c 1
 567 72 l 1
 521 26 446 -17 350 -17 c 0
 160 -17 33 111 33 348 c 0
 33 580 168 710 348 710 c 0
EndSplineSet
EndChar

StartChar: uni0044
Encoding: 68 68 36
Width: 651
Flags: W
LayerCount: 2
Fore
SplineSet
258 693 m 2
 443 693 618 636 618 350 c 0
 618 71 450 0 273 0 c 2
 65 0 l 1
 65 693 l 1
 258 693 l 2
281 574 m 2
 229 574 l 1
 229 119 l 1
 283 119 l 2
 382 119 448 166 448 350 c 0
 448 536 377 574 281 574 c 2
EndSplineSet
EndChar

StartChar: uni0045
Encoding: 69 69 37
Width: 526
Flags: W
LayerCount: 2
Fore
SplineSet
490 693 m 1
 473 576 l 1
 229 576 l 1
 229 410 l 1
 442 410 l 1
 442 295 l 1
 229 295 l 1
 229 118 l 1
 490 118 l 1
 490 0 l 1
 65 0 l 1
 65 693 l 1
 490 693 l 1
EndSplineSet
EndChar

StartChar: uni0046
Encoding: 70 70 38
Width: 487
Flags: W
LayerCount: 2
Fore
SplineSet
65 0 m 1
 65 693 l 1
 478 693 l 1
 461 576 l 1
 229 576 l 1
 229 392 l 1
 431 392 l 1
 431 275 l 1
 229 275 l 1
 229 0 l 1
 65 0 l 1
EndSplineSet
EndChar

StartChar: uni0047
Encoding: 71 71 39
Width: 645
Flags: W
LayerCount: 2
Fore
SplineSet
365 710 m 0
 466 710 539 675 596 625 c 1
 513 538 l 1
 466 574 428 591 372 591 c 0
 275 591 203 519 203 347 c 0
 203 165 251 103 347 103 c 0
 381 103 412 110 441 126 c 1
 441 283 l 1
 351 283 l 1
 335 399 l 1
 600 399 l 1
 600 56 l 1
 528 10 438 -17 351 -17 c 0
 139 -17 33 110 33 347 c 0
 33 582 179 710 365 710 c 0
EndSplineSet
EndChar

StartChar: uni0048
Encoding: 72 72 40
Width: 666
Flags: W
LayerCount: 2
Fore
SplineSet
437 0 m 1
 437 297 l 1
 229 297 l 1
 229 0 l 1
 65 0 l 1
 65 693 l 1
 229 693 l 1
 229 425 l 1
 437 425 l 1
 437 693 l 1
 601 693 l 1
 601 0 l 1
 437 0 l 1
EndSplineSet
EndChar

StartChar: uni0049
Encoding: 73 73 41
Width: 293
Flags: W
LayerCount: 2
Fore
SplineSet
229 693 m 1
 229 0 l 1
 65 0 l 1
 65 693 l 1
 229 693 l 1
EndSplineSet
EndChar

StartChar: uni004A
Encoding: 74 74 42
Width: 317
Flags: W
LayerCount: 2
Fore
SplineSet
256 693 m 1
 256 105 l 2
 256 -70 150 -131 33 -169 c 1
 -11 -53 l 1
 79 -18 92 29 92 111 c 2
 92 693 l 1
 256 693 l 1
EndSplineSet
EndChar

StartChar: uni004B
Encoding: 75 75 43
Width: 633
Flags: W
LayerCount: 2
Fore
SplineSet
229 693 m 1
 229 0 l 1
 65 0 l 1
 65 693 l 1
 229 693 l 1
627 693 m 1
 406 382 l 1
 645 0 l 1
 455 0 l 1
 234 370 l 1
 454 693 l 1
 627 693 l 1
EndSplineSet
EndChar

StartChar: uni004C
Encoding: 76 76 44
Width: 513
Flags: W
LayerCount: 2
Fore
SplineSet
229 693 m 1
 229 130 l 1
 499 130 l 1
 482 0 l 1
 65 0 l 1
 65 693 l 1
 229 693 l 1
EndSplineSet
EndChar

StartChar: uni004D
Encoding: 77 77 45
Width: 786
Flags: W
LayerCount: 2
Fore
SplineSet
701 693 m 1
 753 0 l 1
 592 0 l 1
 580 271 l 2
 575 368 573 468 578 554 c 1
 471 73 l 1
 316 73 l 1
 202 554 l 1
 209 452 209 366 205 269 c 2
 193 0 l 1
 33 0 l 1
 85 693 l 1
 292 693 l 1
 396 223 l 1
 493 693 l 1
 701 693 l 1
EndSplineSet
EndChar

StartChar: uni004E
Encoding: 78 78 46
Width: 663
Flags: W
LayerCount: 2
Fore
SplineSet
599 693 m 1
 599 0 l 1
 390 0 l 1
 190 537 l 1
 198 474 211 382 211 254 c 2
 211 0 l 1
 65 0 l 1
 65 693 l 1
 269 693 l 1
 474 155 l 1
 465 211 452 302 452 413 c 2
 452 693 l 1
 599 693 l 1
EndSplineSet
EndChar

StartChar: uni004F
Encoding: 79 79 47
Width: 691
Flags: W
LayerCount: 2
Fore
SplineSet
345 710 m 0
 541 710 658 578 658 347 c 0
 658 120 541 -17 345 -17 c 0
 150 -17 33 116 33 347 c 0
 33 573 150 710 345 710 c 0
345 590 m 0
 253 590 205 522 205 347 c 0
 205 171 255 103 345 103 c 0
 439 103 486 171 486 347 c 0
 486 522 438 590 345 590 c 0
EndSplineSet
EndChar

StartChar: uni0050
Encoding: 80 80 48
Width: 600
Flags: W
LayerCount: 2
Fore
SplineSet
289 693 m 2
 468 693 578 619 578 467 c 0
 578 306 464 231 304 231 c 2
 229 231 l 1
 229 0 l 1
 65 0 l 1
 65 693 l 1
 289 693 l 2
290 349 m 2
 364 349 409 380 409 467 c 0
 409 541 368 576 287 576 c 2
 229 576 l 1
 229 349 l 1
 290 349 l 2
EndSplineSet
EndChar

StartChar: uni0051
Encoding: 81 81 49
Width: 690
Flags: W
LayerCount: 2
Fore
SplineSet
495 45 m 1
 585 45 644 22 700 -18 c 1
 601 -147 l 1
 537 -75 465 -14 335 -14 c 0
 150 -14 33 116 33 347 c 0
 33 573 150 710 345 710 c 0
 541 710 658 578 658 347 c 0
 658 179 580 92 495 45 c 1
205 347 m 0
 205 171 255 103 345 103 c 0
 439 103 486 171 486 347 c 0
 486 522 438 590 345 590 c 0
 253 590 205 522 205 347 c 0
EndSplineSet
EndChar

StartChar: uni0052
Encoding: 82 82 50
Width: 617
Flags: W
LayerCount: 2
Fore
SplineSet
435 0 m 1
 293 265 l 1
 229 265 l 1
 229 0 l 1
 65 0 l 1
 65 693 l 1
 292 693 l 2
 480 693 577 626 577 482 c 0
 577 391 534 336 444 295 c 1
 620 0 l 1
 435 0 l 1
229 578 m 1
 229 378 l 1
 298 378 l 2
 370 378 408 409 408 482 c 0
 408 549 369 578 288 578 c 2
 229 578 l 1
EndSplineSet
EndChar

StartChar: uni0053
Encoding: 83 83 51
Width: 572
Flags: W
LayerCount: 2
Fore
SplineSet
288 710 m 0
 394 710 467 679 528 621 c 1
 452 532 l 1
 404 571 356 590 300 590 c 0
 243 590 207 566 207 522 c 0
 207 478 233 460 341 426 c 0
 472 384 547 330 547 202 c 0
 547 73 445 -17 272 -17 c 0
 152 -17 66 27 9 82 c 1
 92 173 l 1
 143 130 198 105 267 105 c 0
 335 105 377 137 377 190 c 0
 377 241 351 264 250 295 c 0
 95 343 38 407 38 510 c 0
 38 632 144 710 288 710 c 0
EndSplineSet
EndChar

StartChar: uni0054
Encoding: 84 84 52
Width: 540
Flags: W
LayerCount: 2
Fore
SplineSet
539 693 m 1
 523 567 l 1
 352 567 l 1
 352 0 l 1
 188 0 l 1
 188 567 l 1
 9 567 l 1
 9 693 l 1
 539 693 l 1
EndSplineSet
EndChar

StartChar: uni0055
Encoding: 85 85 53
Width: 651
Flags: W
LayerCount: 2
Fore
SplineSet
596 693 m 1
 596 230 l 2
 596 90 506 -17 325 -17 c 0
 144 -17 55 84 55 230 c 2
 55 693 l 1
 219 693 l 1
 219 237 l 2
 219 148 251 105 325 105 c 0
 400 105 432 148 432 237 c 2
 432 693 l 1
 596 693 l 1
EndSplineSet
EndChar

StartChar: uni0056
Encoding: 86 86 54
Width: 570
Flags: W
LayerCount: 2
Fore
SplineSet
584 693 m 1
 391 0 l 1
 187 0 l 1
 -13 693 l 1
 160 693 l 1
 292 128 l 1
 416 693 l 1
 584 693 l 1
EndSplineSet
EndChar

StartChar: uni0057
Encoding: 87 87 55
Width: 847
Flags: W
LayerCount: 2
Fore
SplineSet
837 693 m 1
 721 0 l 1
 508 0 l 1
 422 529 l 1
 331 0 l 1
 123 0 l 1
 9 693 l 1
 173 693 l 1
 242 124 l 1
 338 693 l 1
 510 693 l 1
 600 124 l 1
 681 693 l 1
 837 693 l 1
EndSplineSet
EndChar

StartChar: uni0058
Encoding: 88 88 56
Width: 581
Flags: W
LayerCount: 2
Fore
SplineSet
385 374 m 1
 585 0 l 1
 406 0 l 1
 287 264 l 1
 170 0 l 1
 -4 0 l 1
 190 368 l 1
 11 693 l 1
 189 693 l 1
 289 471 l 1
 394 693 l 1
 568 693 l 1
 385 374 l 1
EndSplineSet
EndChar

StartChar: uni0059
Encoding: 89 89 57
Width: 594
Flags: W
LayerCount: 2
Fore
SplineSet
601 693 m 1
 379 260 l 1
 379 0 l 1
 215 0 l 1
 215 259 l 1
 -7 693 l 1
 172 693 l 1
 300 388 l 1
 428 693 l 1
 601 693 l 1
EndSplineSet
EndChar

StartChar: uni005A
Encoding: 90 90 58
Width: 544
Flags: W
LayerCount: 2
Fore
SplineSet
512 693 m 1
 512 569 l 1
 211 131 l 1
 517 131 l 1
 501 0 l 1
 18 0 l 1
 18 123 l 1
 325 566 l 1
 49 566 l 1
 49 693 l 1
 512 693 l 1
EndSplineSet
EndChar

StartChar: uni005B
Encoding: 91 91 59
Width: 324
Flags: W
LayerCount: 2
Fore
SplineSet
299 823 m 1
 299 705 l 1
 184 705 l 1
 184 -6 l 1
 299 -6 l 1
 299 -123 l 1
 34 -123 l 1
 34 823 l 1
 299 823 l 1
EndSplineSet
EndChar

StartChar: uni005C
Encoding: 92 92 60
Width: 520
Flags: W
LayerCount: 2
Fore
SplineSet
211 816 m 1
 447 -80 l 1
 308 -112 l 1
 73 785 l 1
 211 816 l 1
EndSplineSet
EndChar

StartChar: uni005D
Encoding: 93 93 61
Width: 324
Flags: W
LayerCount: 2
Fore
SplineSet
290 823 m 1
 290 -123 l 1
 25 -123 l 1
 25 -5 l 1
 140 -5 l 1
 140 705 l 1
 25 705 l 1
 25 823 l 1
 290 823 l 1
EndSplineSet
EndChar

StartChar: uni005E
Encoding: 94 94 62
Width: 559
Flags: W
LayerCount: 2
Fore
SplineSet
351 844 m 1
 540 527 l 1
 386 527 l 1
 278 726 l 1
 175 527 l 1
 18 527 l 1
 207 844 l 1
 351 844 l 1
EndSplineSet
EndChar

StartChar: uni005F
Encoding: 95 95 63
Width: 520
Flags: W
LayerCount: 2
Fore
SplineSet
10 -171 m 1
 10 -47 l 1
 510 -47 l 1
 510 -171 l 1
 10 -171 l 1
EndSplineSet
EndChar

StartChar: uni0060
Encoding: 96 96 64
Width: 340
Flags: W
LayerCount: 2
Fore
SplineSet
92 835 m 1
 310 703 l 1
 266 622 l 1
 30 717 l 1
 92 835 l 1
EndSplineSet
EndChar

StartChar: uni0061
Encoding: 97 97 65
Width: 546
Flags: W
LayerCount: 2
Fore
SplineSet
482 154 m 2
 482 113 493 98 518 89 c 1
 485 -14 l 1
 423 -9 382 10 357 62 c 1
 319 4 260 -17 197 -17 c 0
 91 -17 24 52 24 149 c 0
 24 265 113 328 273 328 c 2
 327 328 l 1
 327 351 l 2
 327 414 302 433 237 433 c 0
 203 433 151 423 98 405 c 1
 62 509 l 1
 129 534 202 548 262 548 c 0
 416 548 482 483 482 360 c 2
 482 154 l 2
243 96 m 0
 279 96 308 115 327 146 c 1
 327 241 l 1
 288 241 l 2
 216 241 182 216 182 163 c 0
 182 121 204 96 243 96 c 0
EndSplineSet
EndChar

StartChar: uni0062
Encoding: 98 98 66
Width: 591
Flags: W
LayerCount: 2
Fore
SplineSet
362 548 m 0
 489 548 559 443 559 265 c 0
 559 101 480 -17 348 -17 c 0
 289 -17 241 9 209 51 c 1
 201 0 l 1
 61 0 l 1
 61 742 l 1
 219 759 l 1
 219 477 l 1
 251 521 303 548 362 548 c 0
302 98 m 0
 357 98 395 141 395 265 c 0
 395 400 359 432 309 432 c 0
 273 432 242 409 219 370 c 1
 219 149 l 1
 239 117 268 98 302 98 c 0
EndSplineSet
EndChar

StartChar: uni0063
Encoding: 99 99 67
Width: 479
Flags: W
LayerCount: 2
Fore
SplineSet
292 548 m 0
 366 548 423 526 474 483 c 1
 406 389 l 1
 372 415 341 427 305 427 c 0
 237 427 198 381 198 262 c 0
 198 144 240 108 303 108 c 0
 341 108 367 120 405 144 c 1
 474 46 l 1
 425 7 368 -17 295 -17 c 0
 132 -17 32 93 32 261 c 0
 32 430 133 548 292 548 c 0
EndSplineSet
EndChar

StartChar: uni0064
Encoding: 100 100 68
Width: 594
Flags: W
LayerCount: 2
Fore
SplineSet
375 759 m 1
 533 742 l 1
 533 0 l 1
 393 0 l 1
 385 62 l 1
 354 18 306 -17 234 -17 c 0
 99 -17 32 95 32 267 c 0
 32 431 118 548 249 548 c 0
 301 548 344 529 375 498 c 1
 375 759 l 1
283 99 m 0
 321 99 350 119 375 159 c 1
 375 388 l 1
 351 416 327 433 292 433 c 0
 236 433 196 385 196 266 c 0
 196 134 232 99 283 99 c 0
EndSplineSet
EndChar

StartChar: uni0065
Encoding: 101 101 69
Width: 554
Flags: W
LayerCount: 2
Fore
SplineSet
525 276 m 0
 525 259 524 235 522 219 c 1
 194 219 l 1
 204 124 249 98 314 98 c 0
 357 98 395 113 441 145 c 1
 506 57 l 1
 453 15 385 -17 299 -17 c 0
 122 -17 32 97 32 263 c 0
 32 422 119 548 280 548 c 0
 432 548 525 448 525 276 c 0
370 314 m 1
 370 321 l 2
 369 393 347 443 284 443 c 0
 231 443 201 410 193 314 c 1
 370 314 l 1
EndSplineSet
EndChar

StartChar: uni0066
Encoding: 102 102 70
Width: 356
Flags: W
LayerCount: 2
Fore
SplineSet
305 642 m 0
 259 642 241 622 241 572 c 2
 241 531 l 1
 366 531 l 1
 349 421 l 1
 241 421 l 1
 241 0 l 1
 83 0 l 1
 83 421 l 1
 3 421 l 1
 3 531 l 1
 83 531 l 1
 83 578 l 2
 83 680 150 759 286 759 c 0
 341 759 392 745 431 725 c 1
 388 622 l 1
 358 637 328 642 305 642 c 0
EndSplineSet
EndChar

StartChar: uni0067
Encoding: 103 103 71
Width: 551
Flags: W
LayerCount: 2
Fore
SplineSet
514 617 m 1
 551 500 l 1
 514 485 465 479 398 479 c 1
 465 450 498 411 498 342 c 0
 498 239 413 164 275 164 c 0
 253 164 233 166 214 170 c 1
 203 164 197 152 197 140 c 0
 197 124 204 108 255 108 c 2
 335 108 l 2
 459 108 538 43 538 -46 c 0
 538 -155 442 -222 260 -222 c 0
 59 -222 6 -156 6 -51 c 1
 148 -51 l 1
 148 -97 168 -117 264 -117 c 0
 357 -117 379 -91 379 -57 c 0
 379 -26 356 -5 303 -5 c 2
 226 -5 l 2
 110 -5 63 43 63 100 c 0
 63 139 88 178 126 202 c 1
 58 238 31 285 31 354 c 0
 31 474 125 548 264 548 c 0
 382 545 450 579 514 617 c 1
268 444 m 0
 219 444 188 411 188 356 c 0
 188 298 220 266 268 266 c 0
 320 266 348 297 348 358 c 0
 348 417 321 444 268 444 c 0
EndSplineSet
EndChar

StartChar: uni0068
Encoding: 104 104 72
Width: 573
Flags: W
LayerCount: 2
Fore
SplineSet
372 548 m 0
 463 548 519 489 519 388 c 2
 519 0 l 1
 361 0 l 1
 361 361 l 2
 361 417 341 432 311 432 c 0
 276 432 246 407 219 364 c 1
 219 0 l 1
 61 0 l 1
 61 742 l 1
 219 758 l 1
 219 474 l 1
 262 523 309 548 372 548 c 0
EndSplineSet
EndChar

StartChar: uni0069
Encoding: 105 105 73
Width: 280
Flags: W
LayerCount: 2
Fore
SplineSet
139 811 m 0
 195 811 233 772 233 721 c 0
 233 670 195 631 139 631 c 0
 85 631 46 670 46 721 c 0
 46 772 85 811 139 811 c 0
219 531 m 1
 219 0 l 1
 61 0 l 1
 61 531 l 1
 219 531 l 1
EndSplineSet
EndChar

StartChar: uni006A
Encoding: 106 106 74
Width: 280
Flags: W
LayerCount: 2
Fore
SplineSet
140 811 m 0
 195 811 234 772 234 721 c 0
 234 670 195 631 140 631 c 0
 85 631 47 670 47 721 c 0
 47 772 85 811 140 811 c 0
219 531 m 1
 219 60 l 2
 219 -113 130 -176 6 -221 c 1
 -47 -106 l 1
 21 -75 61 -47 61 50 c 2
 61 531 l 1
 219 531 l 1
EndSplineSet
EndChar

StartChar: uni006B
Encoding: 107 107 75
Width: 551
Flags: W
LayerCount: 2
Fore
SplineSet
219 759 m 1
 219 0 l 1
 61 0 l 1
 61 742 l 1
 219 759 l 1
547 531 m 1
 386 298 l 1
 560 0 l 1
 382 0 l 1
 224 290 l 1
 386 531 l 1
 547 531 l 1
EndSplineSet
EndChar

StartChar: uni006C
Encoding: 108 108 76
Width: 300
Flags: W
LayerCount: 2
Fore
SplineSet
200 -17 m 0
 108 -17 54 38 54 135 c 2
 54 742 l 1
 212 759 l 1
 212 141 l 2
 212 119 221 108 240 108 c 0
 250 108 259 110 266 113 c 1
 296 1 l 1
 273 -9 239 -17 200 -17 c 0
EndSplineSet
EndChar

StartChar: uni006D
Encoding: 109 109 77
Width: 841
Flags: W
LayerCount: 2
Fore
SplineSet
648 548 m 0
 730 548 786 489 786 388 c 2
 786 0 l 1
 628 0 l 1
 628 361 l 2
 628 417 608 432 584 432 c 0
 550 432 526 407 503 363 c 1
 503 0 l 1
 345 0 l 1
 345 361 l 2
 345 417 324 432 300 432 c 0
 267 432 242 407 219 363 c 1
 219 0 l 1
 61 0 l 1
 61 531 l 1
 198 531 l 1
 210 468 l 1
 250 521 299 548 364 548 c 0
 423 548 468 518 489 464 c 1
 531 520 580 548 648 548 c 0
EndSplineSet
EndChar

StartChar: uni006E
Encoding: 110 110 78
Width: 573
Flags: W
LayerCount: 2
Fore
SplineSet
372 548 m 0
 464 548 519 489 519 388 c 2
 519 0 l 1
 361 0 l 1
 361 361 l 2
 361 417 342 432 311 432 c 0
 276 432 246 407 219 363 c 1
 219 0 l 1
 61 0 l 1
 61 531 l 1
 198 531 l 1
 210 467 l 1
 254 520 305 548 372 548 c 0
EndSplineSet
EndChar

StartChar: uni006F
Encoding: 111 111 79
Width: 584
Flags: W
LayerCount: 2
Fore
SplineSet
292 548 m 0
 454 548 552 444 552 265 c 0
 552 95 454 -17 292 -17 c 0
 131 -17 32 87 32 266 c 0
 32 436 130 548 292 548 c 0
292 432 m 0
 228 432 196 381 196 266 c 0
 196 148 228 99 292 99 c 0
 356 99 388 150 388 265 c 0
 388 383 356 432 292 432 c 0
EndSplineSet
EndChar

StartChar: uni0070
Encoding: 112 112 80
Width: 591
Flags: W
LayerCount: 2
Fore
SplineSet
361 548 m 0
 498 548 559 439 559 267 c 0
 559 103 479 -17 348 -17 c 0
 296 -17 252 1 219 38 c 1
 219 -205 l 1
 61 -222 l 1
 61 531 l 1
 200 531 l 1
 208 472 l 1
 252 527 308 548 361 548 c 0
299 99 m 0
 358 99 395 146 395 265 c 0
 395 397 363 432 310 432 c 0
 274 432 242 409 219 370 c 1
 219 146 l 1
 241 114 266 99 299 99 c 0
EndSplineSet
EndChar

StartChar: uni0071
Encoding: 113 113 81
Width: 594
Flags: W
LayerCount: 2
Fore
SplineSet
395 531 m 1
 533 531 l 1
 533 -222 l 1
 375 -205 l 1
 375 51 l 1
 344 11 299 -17 234 -17 c 0
 99 -17 32 95 32 267 c 0
 32 431 117 548 250 548 c 0
 305 548 350 527 387 485 c 1
 395 531 l 1
283 99 m 0
 321 99 350 119 375 159 c 1
 375 388 l 1
 351 416 328 433 293 433 c 0
 236 433 196 385 196 266 c 0
 196 134 232 99 283 99 c 0
EndSplineSet
EndChar

StartChar: uni0072
Encoding: 114 114 82
Width: 400
Flags: W
LayerCount: 2
Fore
SplineSet
349 546 m 0
 369 546 384 544 402 539 c 1
 377 386 l 1
 360 390 346 393 329 393 c 0
 264 393 237 346 219 267 c 1
 219 0 l 1
 61 0 l 1
 61 531 l 1
 198 531 l 1
 212 428 l 1
 236 502 288 546 349 546 c 0
EndSplineSet
EndChar

StartChar: uni0073
Encoding: 115 115 83
Width: 480
Flags: W
LayerCount: 2
Fore
SplineSet
249 548 m 0
 326 548 395 523 444 483 c 1
 386 394 l 1
 345 420 301 435 255 435 c 0
 212 435 191 419 191 395 c 0
 191 367 205 355 300 327 c 0
 405 297 464 253 464 158 c 0
 464 48 360 -17 228 -17 c 0
 136 -17 58 15 6 62 c 1
 83 148 l 1
 123 117 172 96 224 96 c 0
 272 96 301 114 301 146 c 0
 301 182 285 193 189 220 c 0
 84 250 32 304 32 386 c 0
 32 477 115 548 249 548 c 0
EndSplineSet
EndChar

StartChar: uni0074
Encoding: 116 116 84
Width: 386
Flags: W
LayerCount: 2
Fore
SplineSet
342 125 m 1
 395 25 l 1
 355 -3 299 -17 251 -17 c 0
 134 -16 77 50 77 175 c 2
 77 421 l 1
 2 421 l 1
 2 531 l 1
 77 531 l 1
 77 646 l 1
 235 664 l 1
 235 531 l 1
 357 531 l 1
 340 421 l 1
 235 421 l 1
 235 177 l 2
 235 126 252 108 285 108 c 0
 303 108 321 113 342 125 c 1
EndSplineSet
EndChar

StartChar: uni0075
Encoding: 117 117 85
Width: 568
Flags: W
LayerCount: 2
Fore
SplineSet
507 531 m 1
 507 0 l 1
 370 0 l 1
 363 67 l 1
 325 11 273 -17 202 -17 c 0
 103 -17 54 47 54 150 c 2
 54 531 l 1
 212 531 l 1
 212 170 l 2
 212 116 230 100 263 100 c 0
 296 100 326 122 349 162 c 1
 349 531 l 1
 507 531 l 1
EndSplineSet
EndChar

StartChar: uni0076
Encoding: 118 118 86
Width: 513
Flags: W
LayerCount: 2
Fore
SplineSet
519 531 m 1
 352 0 l 1
 165 0 l 1
 -6 531 l 1
 166 531 l 1
 260 120 l 1
 358 531 l 1
 519 531 l 1
EndSplineSet
EndChar

StartChar: uni0077
Encoding: 119 119 87
Width: 749
Flags: W
LayerCount: 2
Fore
SplineSet
744 531 m 1
 634 0 l 1
 445 0 l 1
 374 390 l 1
 304 0 l 1
 117 0 l 1
 4 531 l 1
 164 531 l 1
 219 118 l 1
 302 531 l 1
 456 531 l 1
 529 118 l 1
 593 531 l 1
 744 531 l 1
EndSplineSet
EndChar

StartChar: uni0078
Encoding: 120 120 88
Width: 512
Flags: W
LayerCount: 2
Fore
SplineSet
351 284 m 1
 522 0 l 1
 343 0 l 1
 251 199 l 1
 161 0 l 1
 -11 0 l 1
 160 279 l 1
 6 531 l 1
 183 531 l 1
 257 361 l 1
 328 531 l 1
 496 531 l 1
 351 284 l 1
EndSplineSet
EndChar

StartChar: uni0079
Encoding: 121 121 89
Width: 518
Flags: W
LayerCount: 2
Fore
SplineSet
524 531 m 1
 355 -1 l 2
 313 -135 223 -213 56 -222 c 1
 39 -111 l 1
 143 -98 181 -68 210 0 c 1
 156 0 l 1
 -6 531 l 1
 162 531 l 1
 257 101 l 1
 361 531 l 1
 524 531 l 1
EndSplineSet
EndChar

StartChar: uni007A
Encoding: 122 122 90
Width: 454
Flags: W
LayerCount: 2
Fore
SplineSet
436 531 m 1
 436 420 l 1
 196 120 l 1
 441 120 l 1
 427 0 l 1
 13 0 l 1
 13 112 l 1
 254 412 l 1
 34 412 l 1
 34 531 l 1
 436 531 l 1
EndSplineSet
EndChar

StartChar: uni007B
Encoding: 123 123 91
Width: 324
Flags: W
LayerCount: 2
Fore
SplineSet
298 840 m 1
 298 730 l 1
 238 730 222 713 222 670 c 2
 222 484 l 2
 222 395 184 366 118 349 c 1
 183 335 222 304 222 216 c 2
 222 30 l 2
 222 -13 239 -30 298 -30 c 1
 298 -140 l 1
 118 -140 74 -83 74 25 c 2
 74 204 l 2
 74 262 61 285 9 285 c 1
 9 414 l 1
 61 414 74 438 74 496 c 2
 74 675 l 2
 74 784 118 840 298 840 c 1
EndSplineSet
EndChar

StartChar: uni007C
Encoding: 124 124 92
Width: 376
Flags: W
LayerCount: 2
Fore
SplineSet
262 810 m 1
 262 -105 l 1
 115 -105 l 1
 115 810 l 1
 262 810 l 1
EndSplineSet
EndChar

StartChar: uni007D
Encoding: 125 125 93
Width: 324
Flags: W
LayerCount: 2
Fore
SplineSet
26 840 m 1
 206 840 249 784 249 675 c 2
 249 496 l 2
 249 438 263 414 314 414 c 1
 314 285 l 1
 263 285 249 262 249 204 c 2
 249 25 l 2
 249 -83 206 -140 26 -140 c 1
 26 -30 l 1
 85 -30 101 -13 101 30 c 2
 101 216 l 2
 101 304 141 335 206 349 c 1
 140 366 102 395 102 484 c 2
 102 670 l 2
 102 713 86 730 26 730 c 1
 26 840 l 1
EndSplineSet
EndChar

StartChar: uni007E
Encoding: 126 126 94
Width: 514
Flags: W
LayerCount: 2
Fore
SplineSet
338 232 m 0
 249 232 218 293 169 293 c 0
 134 293 118 267 100 241 c 1
 16 283 l 1
 47 345 93 410 177 410 c 0
 265 410 296 350 346 350 c 0
 380 350 397 373 415 398 c 1
 498 357 l 1
 467 295 422 232 338 232 c 0
EndSplineSet
EndChar

StartChar: uni00A1
Encoding: 161 161 96
Width: 240
Flags: W
LayerCount: 2
Fore
SplineSet
120 509 m 0
 171 509 211 468 211 419 c 0
 211 370 171 329 120 329 c 0
 70 329 30 370 30 419 c 0
 30 468 70 509 120 509 c 0
184 235 m 1
 205 -210 l 1
 37 -210 l 1
 57 235 l 1
 184 235 l 1
EndSplineSet
EndChar

StartChar: uni00A2
Encoding: 162 162 97
Width: 479
Flags: W
LayerCount: 2
Fore
SplineSet
405 144 m 1
 474 46 l 1
 437 17 396 -4 346 -13 c 1
 346 -161 l 1
 232 -161 l 1
 232 -11 l 1
 107 14 32 116 32 261 c 0
 32 408 108 516 233 542 c 1
 233 691 l 1
 346 691 l 1
 346 544 l 1
 395 535 436 515 474 483 c 1
 406 389 l 1
 372 415 341 427 305 427 c 0
 237 427 198 381 198 262 c 0
 198 144 240 108 303 108 c 0
 341 108 367 120 405 144 c 1
EndSplineSet
EndChar

StartChar: uni00A3
Encoding: 163 163 98
Width: 539
Flags: W
LayerCount: 2
Fore
SplineSet
266 241 m 2
 266 185 255 149 202 120 c 1
 509 120 l 1
 491 0 l 1
 28 0 l 1
 28 114 l 1
 104 137 111 169 111 233 c 2
 111 311 l 1
 43 311 l 1
 43 393 l 1
 111 393 l 1
 111 482 l 2
 111 601 183 690 324 690 c 0
 415 690 479 657 528 590 c 1
 431 519 l 1
 404 558 377 572 340 572 c 0
 289 572 266 538 266 481 c 2
 266 393 l 1
 451 393 l 1
 451 311 l 1
 266 311 l 1
 266 241 l 2
EndSplineSet
EndChar

StartChar: uni00A4
Encoding: 164 164 99
Width: 560
Flags: W
LayerCount: 2
Fore
SplineSet
501 342 m 0
 501 297 489 257 468 223 c 1
 543 148 l 1
 474 78 l 1
 396 154 l 1
 363 136 324 125 280 125 c 0
 237 125 198 136 165 155 c 1
 86 78 l 1
 17 148 l 1
 94 224 l 1
 73 258 61 298 61 342 c 0
 61 385 73 425 94 459 c 1
 17 536 l 1
 87 606 l 1
 165 528 l 1
 198 547 237 558 280 558 c 0
 324 558 364 547 397 528 c 1
 474 606 l 1
 543 536 l 1
 468 460 l 1
 489 426 501 386 501 342 c 0
281 231 m 0
 346 231 378 272 378 342 c 0
 378 411 346 452 281 452 c 0
 218 452 184 411 184 342 c 0
 184 272 218 231 281 231 c 0
EndSplineSet
EndChar

StartChar: uni00A5
Encoding: 165 165 100
Width: 568
Flags: W
LayerCount: 2
Fore
SplineSet
576 676 m 1
 399 352 l 1
 497 352 l 1
 497 270 l 1
 364 270 l 1
 364 198 l 1
 497 198 l 1
 497 116 l 1
 364 116 l 1
 364 0 l 1
 206 0 l 1
 206 116 l 1
 74 116 l 1
 74 198 l 1
 206 198 l 1
 206 270 l 1
 74 270 l 1
 74 352 l 1
 170 352 l 1
 -7 676 l 1
 161 676 l 1
 288 395 l 1
 413 676 l 1
 576 676 l 1
EndSplineSet
EndChar

StartChar: uni00A6
Encoding: 166 166 101
Width: 376
Flags: W
LayerCount: 2
Fore
SplineSet
262 810 m 1
 262 443 l 1
 115 443 l 1
 115 810 l 1
 262 810 l 1
262 262 m 1
 262 -105 l 1
 115 -105 l 1
 115 262 l 1
 262 262 l 1
EndSplineSet
EndChar

StartChar: uni00A7
Encoding: 167 167 102
Width: 550
Flags: W
LayerCount: 2
Fore
SplineSet
419 182 m 1
 458 155 474 125 474 76 c 0
 474 -19 387 -83 252 -83 c 0
 174 -83 109 -62 61 -29 c 1
 112 64 l 1
 155 39 197 26 244 26 c 0
 294 26 323 42 323 70 c 0
 323 102 310 116 204 148 c 0
 110 177 53 214 53 298 c 0
 53 353 87 393 133 421 c 1
 94 449 78 483 78 529 c 0
 78 622 161 689 293 689 c 0
 366 689 434 667 486 633 c 1
 433 544 l 1
 390 568 346 580 301 580 c 0
 251 580 228 563 228 535 c 0
 228 502 243 490 344 458 c 0
 439 428 497 390 497 307 c 0
 497 251 463 210 419 182 c 1
268 249 m 0
 292 240 314 232 333 224 c 1
 350 244 359 267 359 285 c 0
 359 319 340 336 261 362 c 2
 212 379 l 1
 197 359 191 338 191 321 c 0
 191 287 207 271 268 249 c 0
EndSplineSet
EndChar

StartChar: uni00A8
Encoding: 168 168 103
Width: 453
Flags: W
LayerCount: 2
Fore
SplineSet
110 799 m 0
 155 799 190 764 190 720 c 0
 190 676 155 641 110 641 c 0
 65 641 29 676 29 720 c 0
 29 764 65 799 110 799 c 0
341 799 m 0
 387 799 422 764 422 720 c 0
 422 676 387 641 341 641 c 0
 297 641 261 676 261 720 c 0
 261 764 297 799 341 799 c 0
EndSplineSet
EndChar

StartChar: uni00A9
Encoding: 169 169 104
Width: 810
Flags: W
LayerCount: 2
Fore
SplineSet
406 766 m 0
 594 766 743 629 743 432 c 0
 743 236 594 99 406 99 c 0
 218 99 67 236 67 432 c 0
 67 629 218 766 406 766 c 0
406 687 m 0
 264 687 159 584 159 432 c 0
 159 281 264 179 406 179 c 0
 547 179 652 281 652 432 c 0
 652 584 547 687 406 687 c 0
408 630 m 0
 458 630 504 611 539 579 c 1
 491 519 l 1
 465 538 445 543 419 543 c 0
 378 543 345 514 345 433 c 0
 345 354 374 324 418 324 c 0
 449 324 473 334 498 353 c 1
 542 289 l 1
 508 257 463 236 409 236 c 0
 301 236 231 306 231 433 c 0
 231 556 306 630 408 630 c 0
EndSplineSet
EndChar

StartChar: uni00AA
Encoding: 170 170 105
Width: 500
Flags: W
LayerCount: 2
Fore
SplineSet
249 528 m 2
 286 528 l 1
 286 539 l 2
 286 581 269 593 219 593 c 0
 194 593 151 585 109 572 c 1
 77 662 l 1
 131 682 193 693 241 693 c 0
 371 693 425 644 425 547 c 2
 425 405 l 2
 425 377 433 365 452 359 c 1
 423 267 l 1
 374 271 339 285 315 322 c 1
 285 280 236 264 187 264 c 0
 101 264 47 317 47 391 c 0
 47 480 118 528 249 528 c 2
232 364 m 0
 255 364 273 375 286 390 c 1
 286 453 l 1
 263 453 l 2
 214 453 191 436 191 402 c 0
 191 379 204 364 232 364 c 0
51 122 m 1
 460 122 l 1
 460 0 l 1
 51 0 l 1
 51 122 l 1
EndSplineSet
EndChar

StartChar: uni00AB
Encoding: 171 171 106
Width: 628
Flags: W
LayerCount: 2
Fore
SplineSet
226 556 m 1
 323 491 l 1
 194 285 l 1
 323 78 l 1
 226 13 l 1
 36 234 l 1
 36 334 l 1
 226 556 l 1
494 556 m 1
 592 491 l 1
 463 285 l 1
 592 78 l 1
 494 13 l 1
 305 234 l 1
 305 334 l 1
 494 556 l 1
EndSplineSet
EndChar

StartChar: uni00AC
Encoding: 172 172 107
Width: 531
Flags: W
LayerCount: 2
Fore
SplineSet
483 390 m 1
 483 114 l 1
 352 114 l 1
 352 267 l 1
 48 267 l 1
 48 390 l 1
 483 390 l 1
EndSplineSet
EndChar

StartChar: uni00AD
Encoding: 173 173 108
Width: 407
Flags: W
LayerCount: 2
Fore
SplineSet
44 252 m 1
 44 374 l 1
 363 374 l 1
 363 252 l 1
 44 252 l 1
EndSplineSet
EndChar

StartChar: uni00AE
Encoding: 174 174 109
Width: 637
Flags: W
LayerCount: 2
Fore
SplineSet
319 759 m 0
 476 759 593 643 593 484 c 0
 593 326 476 212 319 212 c 0
 162 212 44 326 44 484 c 0
 44 643 162 759 319 759 c 0
319 279 m 0
 435 279 515 360 515 484 c 0
 515 609 435 692 319 692 c 0
 204 692 122 609 122 484 c 0
 122 360 204 279 319 279 c 0
432 546 m 0
 432 508 408 482 374 469 c 1
 448 352 l 1
 366 352 l 1
 308 454 l 1
 286 454 l 1
 286 352 l 1
 215 352 l 1
 215 634 l 1
 299 634 l 2
 387 634 432 606 432 546 c 0
286 580 m 1
 286 512 l 1
 316 512 l 2
 341 512 359 522 359 548 c 0
 359 570 343 580 314 580 c 2
 286 580 l 1
EndSplineSet
EndChar

StartChar: uni00AF
Encoding: 175 175 110
Width: 365
Flags: W
LayerCount: 2
Fore
SplineSet
335 655 m 1
 30 655 l 1
 30 765 l 1
 335 765 l 1
 335 655 l 1
EndSplineSet
EndChar

StartChar: uni00B0
Encoding: 176 176 111
Width: 521
Flags: W
LayerCount: 2
Fore
SplineSet
218 369 m 0
 130 369 39 434 39 541 c 0
 39 648 130 710 218 710 c 0
 306 710 396 648 396 541 c 0
 396 433 306 369 218 369 c 0
218 462 m 0
 260 462 287 493 287 541 c 0
 287 589 260 619 218 619 c 0
 176 619 148 589 148 541 c 0
 148 493 176 462 218 462 c 0
EndSplineSet
EndChar

StartChar: uni00B1
Encoding: 177 177 112
Width: 530
Flags: W
LayerCount: 2
Fore
SplineSet
48 340 m 1
 48 463 l 1
 199 463 l 1
 199 619 l 1
 331 619 l 1
 331 463 l 1
 482 463 l 1
 482 340 l 1
 331 340 l 1
 331 185 l 1
 199 185 l 1
 199 340 l 1
 48 340 l 1
54 11 m 1
 54 133 l 1
 476 133 l 1
 476 11 l 1
 54 11 l 1
EndSplineSet
EndChar

StartChar: uni00B2
Encoding: 178 178 113
Width: 400
Flags: W
LayerCount: 2
Fore
SplineSet
194 752 m 0
 300 752 353 692 353 626 c 0
 353 566 322 520 186 410 c 1
 363 410 l 1
 351 321 l 1
 53 321 l 1
 53 403 l 1
 198 535 232 572 232 616 c 0
 232 646 212 664 182 664 c 0
 151 664 129 651 104 622 c 1
 36 675 l 1
 71 720 125 752 194 752 c 0
EndSplineSet
EndChar

StartChar: uni00B3
Encoding: 179 179 114
Width: 400
Flags: W
LayerCount: 2
Fore
SplineSet
199 752 m 0
 299 752 352 704 352 642 c 0
 352 595 322 559 259 543 c 1
 321 539 367 507 367 441 c 0
 367 370 307 309 192 309 c 0
 119 309 68 335 33 376 c 1
 98 438 l 1
 124 410 150 399 183 399 c 0
 219 399 245 415 245 449 c 0
 245 486 223 501 178 501 c 2
 141 501 l 1
 154 581 l 1
 180 581 l 2
 217 581 237 596 237 624 c 0
 237 651 216 665 184 665 c 0
 153 665 125 653 100 630 c 1
 41 692 l 1
 83 731 136 752 199 752 c 0
EndSplineSet
EndChar

StartChar: uni00B4
Encoding: 180 180 115
Width: 340
Flags: W
LayerCount: 2
Fore
SplineSet
248 835 m 1
 310 717 l 1
 74 622 l 1
 30 703 l 1
 248 835 l 1
EndSplineSet
EndChar

StartChar: uni00B5
Encoding: 181 181 116
Width: 581
Flags: W
LayerCount: 2
Fore
SplineSet
536 0 m 1
 391 -17 l 1
 378 11 374 33 368 69 c 1
 341 22 304 -8 260 -8 c 0
 223 -8 195 1 171 34 c 1
 194 -8 210 -43 210 -113 c 2
 210 -205 l 1
 61 -220 l 1
 61 531 l 1
 219 531 l 1
 219 167 l 2
 219 121 240 106 269 106 c 0
 298 106 329 124 354 170 c 1
 354 531 l 1
 512 531 l 1
 512 182 l 2
 512 102 523 42 536 0 c 1
EndSplineSet
EndChar

StartChar: uni00B6
Encoding: 182 182 117
Width: 788
Flags: W
LayerCount: 2
Fore
SplineSet
328 693 m 2
 672 693 l 1
 672 -204 l 1
 534 -222 l 1
 534 583 l 1
 442 583 l 1
 442 -204 l 1
 304 -222 l 1
 304 263 l 1
 144 267 65 355 65 478 c 0
 65 612 162 693 328 693 c 2
EndSplineSet
EndChar

StartChar: uni00B7
Encoding: 183 183 118
Width: 240
Flags: W
LayerCount: 2
Fore
SplineSet
120 398 m 0
 170 398 210 357 210 308 c 0
 210 258 170 217 120 217 c 0
 69 217 29 258 29 308 c 0
 29 357 69 398 120 398 c 0
EndSplineSet
EndChar

StartChar: uni00B8
Encoding: 184 184 119
Width: 321
Flags: W
LayerCount: 2
Fore
SplineSet
187 16 m 1
 187 -48 l 1
 259 -56 291 -93 291 -147 c 0
 291 -215 233 -262 142 -262 c 0
 95 -262 55 -249 30 -232 c 1
 66 -159 l 1
 86 -169 105 -176 130 -176 c 0
 158 -176 177 -168 177 -146 c 0
 177 -122 149 -112 85 -112 c 1
 100 16 l 1
 187 16 l 1
EndSplineSet
EndChar

StartChar: uni00B9
Encoding: 185 185 120
Width: 400
Flags: W
LayerCount: 2
Fore
SplineSet
300 742 m 1
 300 321 l 1
 183 321 l 1
 183 632 l 1
 92 575 l 1
 39 653 l 1
 193 742 l 1
 300 742 l 1
EndSplineSet
EndChar

StartChar: uni00BA
Encoding: 186 186 121
Width: 500
Flags: W
LayerCount: 2
Fore
SplineSet
250 693 m 0
 382 693 464 616 464 478 c 0
 464 349 384 264 251 264 c 0
 119 264 37 341 37 479 c 0
 37 609 118 693 250 693 c 0
250 591 m 0
 205 591 183 557 183 479 c 0
 183 398 205 366 251 366 c 0
 296 366 318 400 318 478 c 0
 318 560 296 591 250 591 c 0
39 0 m 1
 39 122 l 1
 461 122 l 1
 461 0 l 1
 39 0 l 1
EndSplineSet
EndChar

StartChar: uni00BB
Encoding: 187 187 122
Width: 625
Flags: W
LayerCount: 2
Fore
SplineSet
134 556 m 1
 323 334 l 1
 323 234 l 1
 134 13 l 1
 36 78 l 1
 165 285 l 1
 36 491 l 1
 134 556 l 1
400 556 m 1
 589 334 l 1
 589 234 l 1
 400 13 l 1
 302 78 l 1
 431 285 l 1
 302 491 l 1
 400 556 l 1
EndSplineSet
EndChar

StartChar: uni00BC
Encoding: 188 188 123
Width: 969
Flags: W
LayerCount: 2
Fore
SplineSet
644 759 m 1
 736 714 l 1
 325 -85 l 1
 233 -40 l 1
 644 759 l 1
300 272 m 1
 183 272 l 1
 183 583 l 1
 92 526 l 1
 39 604 l 1
 193 693 l 1
 300 693 l 1
 300 272 l 1
943 170 m 1
 943 84 l 1
 897 84 l 1
 897 0 l 1
 785 0 l 1
 785 84 l 1
 594 84 l 1
 594 162 l 1
 715 431 l 1
 814 395 l 1
 714 170 l 1
 787 170 l 1
 807 265 l 1
 897 265 l 1
 897 170 l 1
 943 170 l 1
EndSplineSet
EndChar

StartChar: uni00BD
Encoding: 189 189 124
Width: 969
Flags: W
LayerCount: 2
Fore
SplineSet
644 759 m 1
 736 714 l 1
 325 -85 l 1
 233 -40 l 1
 644 759 l 1
300 693 m 1
 300 272 l 1
 183 272 l 1
 183 583 l 1
 92 526 l 1
 39 604 l 1
 193 693 l 1
 300 693 l 1
763 431 m 0
 869 431 922 371 922 305 c 0
 922 245 891 199 755 89 c 1
 932 89 l 1
 920 0 l 1
 622 0 l 1
 622 82 l 1
 767 214 801 251 801 295 c 0
 801 325 781 343 751 343 c 0
 720 343 698 330 673 301 c 1
 605 354 l 1
 640 399 694 431 763 431 c 0
EndSplineSet
EndChar

StartChar: uni00BE
Encoding: 190 190 125
Width: 969
Flags: W
LayerCount: 2
Fore
SplineSet
644 759 m 1
 736 714 l 1
 325 -85 l 1
 233 -40 l 1
 644 759 l 1
367 392 m 0
 367 321 307 260 192 260 c 0
 119 260 68 286 33 327 c 1
 98 389 l 1
 124 361 150 350 183 350 c 0
 219 350 245 366 245 400 c 0
 245 437 223 452 178 452 c 2
 141 452 l 1
 154 532 l 1
 180 532 l 2
 217 532 237 547 237 575 c 0
 237 602 216 616 184 616 c 0
 153 616 125 604 100 581 c 1
 41 643 l 1
 83 682 136 703 199 703 c 0
 299 703 352 655 352 593 c 0
 352 546 322 510 259 494 c 1
 321 490 367 458 367 392 c 0
943 170 m 1
 943 84 l 1
 897 84 l 1
 897 0 l 1
 785 0 l 1
 785 84 l 1
 594 84 l 1
 594 162 l 1
 715 431 l 1
 814 395 l 1
 714 170 l 1
 787 170 l 1
 807 265 l 1
 897 265 l 1
 897 170 l 1
 943 170 l 1
EndSplineSet
EndChar

StartChar: uni00BF
Encoding: 191 191 126
Width: 481
Flags: W
LayerCount: 2
Fore
SplineSet
265 329 m 0
 214 329 174 370 174 419 c 0
 174 468 214 509 265 509 c 0
 315 509 355 468 355 419 c 0
 355 370 315 329 265 329 c 0
233 -222 m 0
 88 -222 14 -144 14 -55 c 0
 14 107 194 96 194 206 c 2
 194 236 l 1
 338 236 l 1
 338 200 l 2
 338 29 180 41 180 -41 c 0
 180 -77 205 -98 249 -98 c 0
 290 -98 331 -78 367 -37 c 1
 467 -115 l 1
 411 -182 336 -222 233 -222 c 0
EndSplineSet
EndChar

StartChar: uni00C0
Encoding: 192 192 127
Width: 590
Flags: W
LayerCount: 2
Fore
SplineSet
211 956 m 1
 432 831 l 1
 392 751 l 1
 152 838 l 1
 211 956 l 1
430 0 m 1
 395 149 l 1
 192 149 l 1
 157 0 l 1
 -13 0 l 1
 196 693 l 1
 395 693 l 1
 604 0 l 1
 430 0 l 1
220 268 m 1
 366 268 l 1
 293 574 l 1
 220 268 l 1
EndSplineSet
EndChar

StartChar: uni00C1
Encoding: 193 193 128
Width: 590
Flags: W
LayerCount: 2
Fore
SplineSet
436 838 m 1
 196 751 l 1
 156 831 l 1
 377 956 l 1
 436 838 l 1
430 0 m 1
 394 149 l 1
 192 149 l 1
 157 0 l 1
 -13 0 l 1
 196 693 l 1
 395 693 l 1
 604 0 l 1
 430 0 l 1
220 268 m 1
 366 268 l 1
 293 574 l 1
 220 268 l 1
EndSplineSet
EndChar

StartChar: uni00C2
Encoding: 194 194 129
Width: 590
Flags: W
LayerCount: 2
Fore
SplineSet
163 755 m 1
 106 820 l 1
 248 949 l 1
 344 949 l 1
 485 820 l 1
 429 755 l 1
 296 839 l 1
 163 755 l 1
430 0 m 1
 395 149 l 1
 192 149 l 1
 157 0 l 1
 -13 0 l 1
 196 693 l 1
 395 693 l 1
 604 0 l 1
 430 0 l 1
220 268 m 1
 366 268 l 1
 293 574 l 1
 220 268 l 1
EndSplineSet
EndChar

StartChar: uni00C3
Encoding: 195 195 130
Width: 590
Flags: W
LayerCount: 2
Fore
SplineSet
354 761 m 0
 326 761 307 769 287 784 c 0
 269 797 257 806 240 806 c 0
 216 806 203 790 187 762 c 1
 108 800 l 1
 133 864 177 918 237 918 c 0
 268 918 286 908 307 894 c 0
 325 881 337 873 353 873 c 0
 375 873 389 888 405 917 c 1
 484 878 l 1
 458 811 413 761 354 761 c 0
430 0 m 1
 395 149 l 1
 192 149 l 1
 157 0 l 1
 -13 0 l 1
 196 693 l 1
 395 693 l 1
 604 0 l 1
 430 0 l 1
220 268 m 1
 366 268 l 1
 293 574 l 1
 220 268 l 1
EndSplineSet
EndChar

StartChar: uni00C4
Encoding: 196 196 131
Width: 590
Flags: W
LayerCount: 2
Fore
SplineSet
178 925 m 0
 224 925 259 890 259 846 c 0
 259 802 224 767 178 767 c 0
 133 767 97 802 97 846 c 0
 97 890 133 925 178 925 c 0
409 925 m 0
 456 925 490 890 490 846 c 0
 490 802 456 767 409 767 c 0
 365 767 329 802 329 846 c 0
 329 890 365 925 409 925 c 0
430 0 m 1
 395 149 l 1
 192 149 l 1
 157 0 l 1
 -13 0 l 1
 196 693 l 1
 395 693 l 1
 604 0 l 1
 430 0 l 1
220 268 m 1
 366 268 l 1
 293 574 l 1
 220 268 l 1
EndSplineSet
EndChar

StartChar: uni00C5
Encoding: 197 197 132
Width: 590
Flags: W
LayerCount: 2
Fore
SplineSet
296 993 m 0
 382 993 435 933 435 862 c 0
 435 791 382 731 296 731 c 0
 210 731 157 791 157 862 c 0
 157 933 210 993 296 993 c 0
296 912 m 0
 269 912 251 895 251 862 c 0
 251 829 269 812 296 812 c 0
 322 812 341 829 341 862 c 0
 341 895 323 912 296 912 c 0
430 0 m 1
 395 149 l 1
 192 149 l 1
 157 0 l 1
 -13 0 l 1
 196 693 l 1
 395 693 l 1
 604 0 l 1
 430 0 l 1
220 268 m 1
 366 268 l 1
 293 574 l 1
 220 268 l 1
EndSplineSet
EndChar

StartChar: uni00C6
Encoding: 198 198 133
Width: 845
Flags: W
LayerCount: 2
Fore
SplineSet
582 118 m 1
 812 118 l 1
 812 0 l 1
 444 0 l 1
 418 149 l 1
 203 149 l 1
 153 0 l 1
 -23 0 l 1
 249 693 l 1
 775 693 l 1
 758 576 l 1
 488 576 l 1
 522 408 l 1
 766 408 l 1
 766 293 l 1
 546 293 l 1
 582 118 l 1
243 268 m 1
 398 268 l 1
 345 573 l 1
 243 268 l 1
EndSplineSet
EndChar

StartChar: uni00C7
Encoding: 199 199 134
Width: 575
Flags: W
LayerCount: 2
Fore
SplineSet
383 -48 m 1
 455 -56 487 -93 487 -147 c 0
 487 -215 429 -262 338 -262 c 0
 291 -262 251 -249 226 -232 c 1
 262 -159 l 1
 282 -169 301 -176 326 -176 c 0
 354 -176 373 -168 373 -146 c 0
 373 -122 345 -112 281 -112 c 1
 293 -13 l 1
 135 11 33 136 33 348 c 0
 33 580 168 710 348 710 c 0
 438 710 501 683 559 634 c 1
 481 541 l 1
 442 571 403 589 356 589 c 0
 267 589 205 518 205 348 c 0
 205 181 266 110 358 110 c 0
 413 110 453 135 494 166 c 1
 567 72 l 1
 526 31 463 -7 383 -15 c 1
 383 -48 l 1
EndSplineSet
EndChar

StartChar: uni00C8
Encoding: 200 200 135
Width: 526
Flags: W
LayerCount: 2
Fore
SplineSet
194 956 m 1
 415 831 l 1
 375 751 l 1
 135 838 l 1
 194 956 l 1
490 693 m 1
 473 576 l 1
 229 576 l 1
 229 410 l 1
 442 410 l 1
 442 295 l 1
 229 295 l 1
 229 118 l 1
 490 118 l 1
 490 0 l 1
 65 0 l 1
 65 693 l 1
 490 693 l 1
EndSplineSet
EndChar

StartChar: uni00C9
Encoding: 201 201 136
Width: 526
Flags: W
LayerCount: 2
Fore
SplineSet
360 956 m 1
 419 838 l 1
 179 751 l 1
 139 831 l 1
 360 956 l 1
490 693 m 1
 473 576 l 1
 229 576 l 1
 229 410 l 1
 442 410 l 1
 442 295 l 1
 229 295 l 1
 229 118 l 1
 490 118 l 1
 490 0 l 1
 65 0 l 1
 65 693 l 1
 490 693 l 1
EndSplineSet
EndChar

StartChar: uni00CA
Encoding: 202 202 137
Width: 526
Flags: W
LayerCount: 2
Fore
SplineSet
146 755 m 1
 89 820 l 1
 231 949 l 1
 327 949 l 1
 468 820 l 1
 412 755 l 1
 279 839 l 1
 146 755 l 1
490 693 m 1
 473 576 l 1
 229 576 l 1
 229 410 l 1
 442 410 l 1
 442 295 l 1
 229 295 l 1
 229 118 l 1
 490 118 l 1
 490 0 l 1
 65 0 l 1
 65 693 l 1
 490 693 l 1
EndSplineSet
EndChar

StartChar: uni00CB
Encoding: 203 203 138
Width: 526
Flags: W
LayerCount: 2
Fore
SplineSet
161 925 m 0
 207 925 242 890 242 846 c 0
 242 802 207 767 161 767 c 0
 116 767 80 802 80 846 c 0
 80 890 116 925 161 925 c 0
392 925 m 0
 439 925 473 890 473 846 c 0
 473 802 439 767 392 767 c 0
 348 767 312 802 312 846 c 0
 312 890 348 925 392 925 c 0
490 693 m 1
 473 576 l 1
 229 576 l 1
 229 410 l 1
 442 410 l 1
 442 295 l 1
 229 295 l 1
 229 118 l 1
 490 118 l 1
 490 0 l 1
 65 0 l 1
 65 693 l 1
 490 693 l 1
EndSplineSet
EndChar

StartChar: uni00CC
Encoding: 204 204 139
Width: 293
Flags: W
LayerCount: 2
Fore
SplineSet
62 956 m 1
 283 831 l 1
 243 751 l 1
 3 838 l 1
 62 956 l 1
229 693 m 1
 229 0 l 1
 65 0 l 1
 65 693 l 1
 229 693 l 1
EndSplineSet
EndChar

StartChar: uni00CD
Encoding: 205 205 140
Width: 293
Flags: W
LayerCount: 2
Fore
SplineSet
227 956 m 1
 286 838 l 1
 46 751 l 1
 6 831 l 1
 227 956 l 1
229 693 m 1
 229 0 l 1
 65 0 l 1
 65 693 l 1
 229 693 l 1
EndSplineSet
EndChar

StartChar: uni00CE
Encoding: 206 206 141
Width: 293
Flags: W
LayerCount: 2
Fore
SplineSet
13 755 m 1
 -44 820 l 1
 98 949 l 1
 194 949 l 1
 335 820 l 1
 279 755 l 1
 146 839 l 1
 13 755 l 1
229 693 m 1
 229 0 l 1
 65 0 l 1
 65 693 l 1
 229 693 l 1
EndSplineSet
EndChar

StartChar: uni00CF
Encoding: 207 207 142
Width: 293
Flags: W
LayerCount: 2
Fore
SplineSet
29 925 m 0
 75 925 110 890 110 846 c 0
 110 802 75 767 29 767 c 0
 -16 767 -52 802 -52 846 c 0
 -52 890 -16 925 29 925 c 0
260 925 m 0
 307 925 341 890 341 846 c 0
 341 802 307 767 260 767 c 0
 216 767 180 802 180 846 c 0
 180 890 216 925 260 925 c 0
229 693 m 1
 229 0 l 1
 65 0 l 1
 65 693 l 1
 229 693 l 1
EndSplineSet
EndChar

StartChar: uni00D0
Encoding: 208 208 143
Width: 665
Flags: W
LayerCount: 2
Fore
SplineSet
272 693 m 2
 457 693 632 636 632 350 c 0
 632 71 464 0 287 0 c 2
 78 0 l 1
 78 304 l 1
 14 304 l 1
 14 402 l 1
 78 402 l 1
 78 693 l 1
 272 693 l 2
297 119 m 2
 396 119 462 166 462 350 c 0
 462 536 391 574 295 574 c 2
 242 574 l 1
 242 402 l 1
 377 402 l 1
 377 304 l 1
 242 304 l 1
 242 119 l 1
 297 119 l 2
EndSplineSet
EndChar

StartChar: uni00D1
Encoding: 209 209 144
Width: 663
Flags: W
LayerCount: 2
Fore
SplineSet
394 761 m 0
 366 761 347 769 327 784 c 0
 309 797 297 806 280 806 c 0
 256 806 243 790 227 762 c 1
 148 800 l 1
 173 864 217 918 277 918 c 0
 308 918 326 908 347 894 c 0
 365 881 377 873 393 873 c 0
 415 873 429 888 445 917 c 1
 524 878 l 1
 498 811 453 761 394 761 c 0
599 693 m 1
 599 0 l 1
 390 0 l 1
 190 537 l 1
 198 474 211 382 211 254 c 2
 211 0 l 1
 65 0 l 1
 65 693 l 1
 269 693 l 1
 474 155 l 1
 465 211 452 302 452 413 c 2
 452 693 l 1
 599 693 l 1
EndSplineSet
EndChar

StartChar: uni00D2
Encoding: 210 210 145
Width: 691
Flags: W
LayerCount: 2
Fore
SplineSet
261 956 m 1
 482 831 l 1
 442 751 l 1
 202 838 l 1
 261 956 l 1
345 710 m 0
 541 710 658 578 658 347 c 0
 658 120 541 -17 345 -17 c 0
 150 -17 33 116 33 347 c 0
 33 573 150 710 345 710 c 0
345 590 m 0
 253 590 205 522 205 347 c 0
 205 171 255 103 345 103 c 0
 439 103 486 171 486 347 c 0
 486 522 438 590 345 590 c 0
EndSplineSet
EndChar

StartChar: uni00D3
Encoding: 211 211 146
Width: 691
Flags: W
LayerCount: 2
Fore
SplineSet
426 956 m 1
 485 838 l 1
 245 751 l 1
 205 831 l 1
 426 956 l 1
345 710 m 0
 541 710 658 578 658 347 c 0
 658 120 541 -17 345 -17 c 0
 150 -17 33 116 33 347 c 0
 33 573 150 710 345 710 c 0
345 590 m 0
 253 590 205 522 205 347 c 0
 205 171 255 103 345 103 c 0
 439 103 486 171 486 347 c 0
 486 522 438 590 345 590 c 0
EndSplineSet
EndChar

StartChar: uni00D4
Encoding: 212 212 147
Width: 691
Flags: W
LayerCount: 2
Fore
SplineSet
212 755 m 1
 155 820 l 1
 297 949 l 1
 393 949 l 1
 534 820 l 1
 478 755 l 1
 345 839 l 1
 212 755 l 1
345 710 m 0
 541 710 658 578 658 347 c 0
 658 120 541 -17 345 -17 c 0
 150 -17 33 116 33 347 c 0
 33 573 150 710 345 710 c 0
345 590 m 0
 253 590 205 522 205 347 c 0
 205 171 255 103 345 103 c 0
 439 103 486 171 486 347 c 0
 486 522 438 590 345 590 c 0
EndSplineSet
EndChar

StartChar: uni00D5
Encoding: 213 213 148
Width: 691
Flags: W
LayerCount: 2
Fore
SplineSet
403 761 m 0
 375 761 356 769 336 784 c 0
 318 797 306 806 289 806 c 0
 265 806 252 790 236 762 c 1
 157 800 l 1
 182 864 226 918 286 918 c 0
 317 918 335 908 356 894 c 0
 374 881 386 873 402 873 c 0
 424 873 438 888 454 917 c 1
 533 878 l 1
 507 811 462 761 403 761 c 0
345 710 m 0
 541 710 658 578 658 347 c 0
 658 120 541 -17 345 -17 c 0
 150 -17 33 116 33 347 c 0
 33 573 150 710 345 710 c 0
345 590 m 0
 253 590 205 522 205 347 c 0
 205 171 255 103 345 103 c 0
 439 103 486 171 486 347 c 0
 486 522 438 590 345 590 c 0
EndSplineSet
EndChar

StartChar: uni00D6
Encoding: 214 214 149
Width: 691
Flags: W
LayerCount: 2
Fore
SplineSet
228 925 m 0
 274 925 309 890 309 846 c 0
 309 802 274 767 228 767 c 0
 183 767 147 802 147 846 c 0
 147 890 183 925 228 925 c 0
459 925 m 0
 506 925 540 890 540 846 c 0
 540 802 506 767 459 767 c 0
 415 767 379 802 379 846 c 0
 379 890 415 925 459 925 c 0
345 710 m 0
 541 710 658 578 658 347 c 0
 658 120 541 -17 345 -17 c 0
 150 -17 33 116 33 347 c 0
 33 573 150 710 345 710 c 0
345 590 m 0
 253 590 205 522 205 347 c 0
 205 171 255 103 345 103 c 0
 439 103 486 171 486 347 c 0
 486 522 438 590 345 590 c 0
EndSplineSet
EndChar

StartChar: uni00D7
Encoding: 215 215 150
Width: 519
Flags: W
LayerCount: 2
Fore
SplineSet
376 510 m 1
 463 423 l 1
 347 309 l 1
 463 190 l 1
 376 103 l 1
 261 224 l 1
 143 103 l 1
 56 190 l 1
 171 304 l 1
 56 423 l 1
 143 510 l 1
 257 389 l 1
 376 510 l 1
EndSplineSet
EndChar

StartChar: uni00D8
Encoding: 216 216 151
Width: 691
Flags: W
LayerCount: 2
Fore
SplineSet
514 667 m 1
 606 611 658 501 658 347 c 0
 658 120 541 -17 345 -17 c 0
 328 -17 312 -16 296 -14 c 1
 260 -134 l 1
 136 -102 l 1
 176 27 l 1
 84 84 33 194 33 347 c 0
 33 573 150 710 345 710 c 0
 362 710 379 709 395 707 c 1
 432 828 l 1
 555 795 l 1
 514 667 l 1
345 590 m 0
 253 590 205 522 205 347 c 0
 205 246 218 184 243 148 c 1
 375 588 l 1
 366 589 356 590 345 590 c 0
345 103 m 0
 439 103 486 171 486 347 c 0
 486 449 473 511 448 546 c 1
 315 105 l 1
 325 104 335 103 345 103 c 0
EndSplineSet
EndChar

StartChar: uni00D9
Encoding: 217 217 152
Width: 651
Flags: W
LayerCount: 2
Fore
SplineSet
241 956 m 1
 462 831 l 1
 422 751 l 1
 182 838 l 1
 241 956 l 1
596 693 m 1
 596 230 l 2
 596 90 506 -17 325 -17 c 0
 144 -17 55 84 55 230 c 2
 55 693 l 1
 219 693 l 1
 219 237 l 2
 219 148 251 105 325 105 c 0
 400 105 432 148 432 237 c 2
 432 693 l 1
 596 693 l 1
EndSplineSet
EndChar

StartChar: uni00DA
Encoding: 218 218 153
Width: 651
Flags: W
LayerCount: 2
Fore
SplineSet
406 956 m 1
 465 838 l 1
 225 751 l 1
 185 831 l 1
 406 956 l 1
596 693 m 1
 596 230 l 2
 596 90 506 -17 325 -17 c 0
 144 -17 55 84 55 230 c 2
 55 693 l 1
 219 693 l 1
 219 237 l 2
 219 148 251 105 325 105 c 0
 400 105 432 148 432 237 c 2
 432 693 l 1
 596 693 l 1
EndSplineSet
EndChar

StartChar: uni00DB
Encoding: 219 219 154
Width: 651
Flags: W
LayerCount: 2
Fore
SplineSet
192 755 m 1
 135 820 l 1
 277 949 l 1
 373 949 l 1
 514 820 l 1
 458 755 l 1
 325 839 l 1
 192 755 l 1
596 693 m 1
 596 230 l 2
 596 90 506 -17 325 -17 c 0
 144 -17 55 84 55 230 c 2
 55 693 l 1
 219 693 l 1
 219 237 l 2
 219 148 251 105 325 105 c 0
 400 105 432 148 432 237 c 2
 432 693 l 1
 596 693 l 1
EndSplineSet
EndChar

StartChar: uni00DC
Encoding: 220 220 155
Width: 651
Flags: W
LayerCount: 2
Fore
SplineSet
208 925 m 0
 254 925 289 890 289 846 c 0
 289 802 254 767 208 767 c 0
 163 767 127 802 127 846 c 0
 127 890 163 925 208 925 c 0
439 925 m 0
 486 925 520 890 520 846 c 0
 520 802 486 767 439 767 c 0
 395 767 359 802 359 846 c 0
 359 890 395 925 439 925 c 0
596 693 m 1
 596 230 l 2
 596 90 506 -17 325 -17 c 0
 144 -17 55 84 55 230 c 2
 55 693 l 1
 219 693 l 1
 219 237 l 2
 219 148 251 105 325 105 c 0
 400 105 432 148 432 237 c 2
 432 693 l 1
 596 693 l 1
EndSplineSet
EndChar

StartChar: uni00DD
Encoding: 221 221 156
Width: 594
Flags: W
LayerCount: 2
Fore
SplineSet
378 956 m 1
 437 838 l 1
 197 751 l 1
 157 831 l 1
 378 956 l 1
601 693 m 1
 379 260 l 1
 379 0 l 1
 215 0 l 1
 215 259 l 1
 -7 693 l 1
 172 693 l 1
 300 388 l 1
 428 693 l 1
 601 693 l 1
EndSplineSet
EndChar

StartChar: uni00DE
Encoding: 222 222 157
Width: 600
Flags: W
LayerCount: 2
Fore
SplineSet
289 585 m 2
 468 585 578 510 578 356 c 0
 578 190 464 114 304 114 c 2
 229 114 l 1
 229 0 l 1
 65 0 l 1
 65 693 l 1
 229 693 l 1
 229 585 l 1
 289 585 l 2
290 233 m 2
 364 233 409 264 409 356 c 0
 409 433 368 468 287 468 c 2
 229 468 l 1
 229 233 l 1
 290 233 l 2
EndSplineSet
EndChar

StartChar: uni00DF
Encoding: 223 223 158
Width: 605
Flags: W
LayerCount: 2
Fore
SplineSet
297 759 m 0
 431 759 504 689 504 609 c 0
 504 509 403 490 403 431 c 0
 403 356 587 342 587 166 c 0
 587 51 498 -17 385 -17 c 0
 338 -17 297 -6 266 10 c 1
 313 117 l 1
 328 109 343 105 365 105 c 0
 401 105 424 126 424 169 c 0
 424 278 266 275 266 405 c 0
 266 510 354 506 354 590 c 0
 354 626 330 647 293 647 c 0
 243 647 219 610 219 538 c 2
 219 0 l 1
 61 0 l 1
 61 533 l 2
 61 673 144 759 297 759 c 0
EndSplineSet
EndChar

StartChar: uni00E0
Encoding: 224 224 159
Width: 546
Flags: W
LayerCount: 2
Fore
SplineSet
201 835 m 1
 419 703 l 1
 375 622 l 1
 139 717 l 1
 201 835 l 1
482 154 m 2
 482 113 493 98 518 89 c 1
 485 -14 l 1
 423 -9 382 10 357 62 c 1
 319 4 260 -17 197 -17 c 0
 91 -17 24 52 24 149 c 0
 24 265 113 328 273 328 c 2
 327 328 l 1
 327 351 l 2
 327 414 302 433 237 433 c 0
 203 433 151 423 98 405 c 1
 62 509 l 1
 129 534 202 548 262 548 c 0
 416 548 482 483 482 360 c 2
 482 154 l 2
243 96 m 0
 279 96 308 115 327 146 c 1
 327 241 l 1
 288 241 l 2
 216 241 182 216 182 163 c 0
 182 121 204 96 243 96 c 0
EndSplineSet
EndChar

StartChar: uni00E1
Encoding: 225 225 160
Width: 546
Flags: W
LayerCount: 2
Fore
SplineSet
403 717 m 1
 167 622 l 1
 123 703 l 1
 341 835 l 1
 403 717 l 1
482 154 m 2
 482 113 493 98 518 89 c 1
 485 -14 l 1
 423 -9 381 10 357 62 c 1
 319 4 260 -17 197 -17 c 0
 91 -17 24 52 24 149 c 0
 24 265 113 328 273 328 c 2
 327 328 l 1
 327 351 l 2
 327 414 302 433 237 433 c 0
 203 433 151 423 98 405 c 1
 62 509 l 1
 129 534 202 548 262 548 c 0
 416 548 482 483 482 360 c 2
 482 154 l 2
243 96 m 0
 280 96 308 115 327 146 c 1
 327 241 l 1
 288 241 l 2
 216 241 182 216 182 163 c 0
 182 121 204 96 243 96 c 0
EndSplineSet
EndChar

StartChar: uni00E2
Encoding: 226 226 161
Width: 546
Flags: W
LayerCount: 2
Fore
SplineSet
135 620 m 1
 79 685 l 1
 220 822 l 1
 317 822 l 1
 458 685 l 1
 402 620 l 1
 269 712 l 1
 135 620 l 1
482 154 m 2
 482 113 493 98 518 89 c 1
 485 -14 l 1
 423 -9 382 10 357 62 c 1
 319 4 260 -17 197 -17 c 0
 91 -17 24 52 24 149 c 0
 24 265 113 328 273 328 c 2
 327 328 l 1
 327 351 l 2
 327 414 302 433 237 433 c 0
 203 433 151 423 98 405 c 1
 62 509 l 1
 129 534 202 548 262 548 c 0
 416 548 482 483 482 360 c 2
 482 154 l 2
243 96 m 0
 279 96 308 115 327 146 c 1
 327 241 l 1
 288 241 l 2
 216 241 182 216 182 163 c 0
 182 121 204 96 243 96 c 0
EndSplineSet
EndChar

StartChar: uni00E3
Encoding: 227 227 162
Width: 546
Flags: W
LayerCount: 2
Fore
SplineSet
327 635 m 0
 299 635 280 643 260 658 c 0
 242 671 230 680 213 680 c 0
 189 680 176 664 160 636 c 1
 81 674 l 1
 106 738 150 792 210 792 c 0
 241 792 259 782 280 768 c 0
 298 755 310 747 326 747 c 0
 348 747 362 762 378 791 c 1
 457 752 l 1
 431 685 386 635 327 635 c 0
482 154 m 2
 482 113 493 98 518 89 c 1
 485 -14 l 1
 423 -9 382 10 357 62 c 1
 319 4 260 -17 197 -17 c 0
 91 -17 24 52 24 149 c 0
 24 265 113 328 273 328 c 2
 327 328 l 1
 327 351 l 2
 327 414 302 433 237 433 c 0
 203 433 151 423 98 405 c 1
 62 509 l 1
 129 534 202 548 262 548 c 0
 416 548 482 483 482 360 c 2
 482 154 l 2
243 96 m 0
 279 96 308 115 327 146 c 1
 327 241 l 1
 288 241 l 2
 216 241 182 216 182 163 c 0
 182 121 204 96 243 96 c 0
EndSplineSet
EndChar

StartChar: uni00E4
Encoding: 228 228 163
Width: 546
Flags: W
LayerCount: 2
Fore
SplineSet
153 799 m 0
 199 799 234 764 234 720 c 0
 234 676 199 641 153 641 c 0
 108 641 72 676 72 720 c 0
 72 764 108 799 153 799 c 0
384 799 m 0
 431 799 465 764 465 720 c 0
 465 676 431 641 384 641 c 0
 340 641 304 676 304 720 c 0
 304 764 340 799 384 799 c 0
482 154 m 2
 482 113 493 98 518 89 c 1
 485 -14 l 1
 423 -9 382 10 357 62 c 1
 319 4 260 -17 197 -17 c 0
 91 -17 24 52 24 149 c 0
 24 265 113 328 273 328 c 2
 327 328 l 1
 327 351 l 2
 327 414 302 433 237 433 c 0
 203 433 151 423 98 405 c 1
 62 509 l 1
 129 534 202 548 262 548 c 0
 416 548 482 483 482 360 c 2
 482 154 l 2
243 96 m 0
 279 96 308 115 327 146 c 1
 327 241 l 1
 288 241 l 2
 216 241 182 216 182 163 c 0
 182 121 204 96 243 96 c 0
EndSplineSet
EndChar

StartChar: uni00E5
Encoding: 229 229 164
Width: 546
Flags: W
LayerCount: 2
Fore
SplineSet
269 867 m 0
 355 867 408 807 408 736 c 0
 408 665 355 605 269 605 c 0
 183 605 130 665 130 736 c 0
 130 807 183 867 269 867 c 0
269 786 m 0
 242 786 224 769 224 736 c 0
 224 703 242 686 269 686 c 0
 295 686 314 703 314 736 c 0
 314 769 296 786 269 786 c 0
482 154 m 2
 482 113 493 98 518 89 c 1
 485 -14 l 1
 423 -9 382 10 357 62 c 1
 319 4 260 -17 197 -17 c 0
 91 -17 24 52 24 149 c 0
 24 265 113 328 273 328 c 2
 327 328 l 1
 327 351 l 2
 327 414 302 433 237 433 c 0
 203 433 151 423 98 405 c 1
 62 509 l 1
 129 534 202 548 262 548 c 0
 416 548 482 483 482 360 c 2
 482 154 l 2
243 96 m 0
 279 96 308 115 327 146 c 1
 327 241 l 1
 288 241 l 2
 216 241 182 216 182 163 c 0
 182 121 204 96 243 96 c 0
EndSplineSet
EndChar

StartChar: uni00E6
Encoding: 230 230 165
Width: 855
Flags: W
LayerCount: 2
Fore
SplineSet
826 276 m 0
 826 259 825 235 823 219 c 1
 494 219 l 1
 504 124 549 98 615 98 c 0
 658 98 696 113 742 145 c 1
 807 57 l 1
 754 15 686 -17 600 -17 c 0
 504 -17 433 18 389 74 c 1
 342 6 275 -17 201 -17 c 0
 91 -17 24 52 24 149 c 0
 24 265 114 328 279 328 c 2
 333 328 l 1
 333 350 l 2
 333 412 308 432 244 432 c 0
 209 432 157 422 104 404 c 1
 69 509 l 1
 135 534 208 548 269 548 c 0
 350 548 399 522 431 481 c 1
 470 522 522 548 593 548 c 0
 733 548 826 448 826 276 c 0
670 314 m 1
 670 321 l 2
 670 393 648 443 584 443 c 0
 532 443 501 409 494 314 c 1
 670 314 l 1
251 96 m 0
 291 96 320 120 346 160 c 1
 340 183 336 208 335 234 c 2
 335 238 l 1
 295 238 l 2
 225 238 191 215 191 160 c 0
 191 120 212 96 251 96 c 0
EndSplineSet
EndChar

StartChar: uni00E7
Encoding: 231 231 166
Width: 479
Flags: W
LayerCount: 2
Fore
SplineSet
474 46 m 1
 431 12 383 -10 323 -16 c 1
 323 -48 l 1
 395 -56 427 -93 427 -147 c 0
 427 -215 369 -262 278 -262 c 0
 231 -262 191 -249 166 -232 c 1
 202 -159 l 1
 222 -169 241 -176 266 -176 c 0
 294 -176 313 -168 313 -146 c 0
 313 -122 285 -112 221 -112 c 1
 233 -11 l 1
 107 14 32 116 32 261 c 0
 32 430 133 548 292 548 c 0
 366 548 423 526 474 483 c 1
 406 389 l 1
 372 415 341 427 305 427 c 0
 237 427 198 381 198 262 c 0
 198 144 240 108 303 108 c 0
 341 108 367 120 405 144 c 1
 474 46 l 1
EndSplineSet
EndChar

StartChar: uni00E8
Encoding: 232 232 167
Width: 554
Flags: W
LayerCount: 2
Fore
SplineSet
215 835 m 1
 433 703 l 1
 389 622 l 1
 153 717 l 1
 215 835 l 1
525 276 m 0
 525 259 524 235 522 219 c 1
 194 219 l 1
 204 124 249 98 314 98 c 0
 357 98 395 113 441 145 c 1
 506 57 l 1
 453 15 385 -17 299 -17 c 0
 122 -17 32 97 32 263 c 0
 32 422 119 548 280 548 c 0
 432 548 525 448 525 276 c 0
370 314 m 1
 370 321 l 2
 369 393 347 443 284 443 c 0
 231 443 201 410 193 314 c 1
 370 314 l 1
EndSplineSet
EndChar

StartChar: uni00E9
Encoding: 233 233 168
Width: 554
Flags: W
LayerCount: 2
Fore
SplineSet
417 717 m 1
 181 622 l 1
 137 703 l 1
 355 835 l 1
 417 717 l 1
525 276 m 0
 525 259 524 235 522 219 c 1
 193 219 l 1
 204 124 249 98 314 98 c 0
 357 98 395 113 441 145 c 1
 506 57 l 1
 453 15 385 -17 299 -17 c 0
 122 -17 32 97 32 263 c 0
 32 422 119 548 280 548 c 0
 432 548 525 448 525 276 c 0
370 314 m 1
 370 321 l 2
 369 393 347 443 284 443 c 0
 231 443 200 409 193 314 c 1
 370 314 l 1
EndSplineSet
EndChar

StartChar: uni00EA
Encoding: 234 234 169
Width: 554
Flags: W
LayerCount: 2
Fore
SplineSet
283 712 m 1
 149 620 l 1
 93 685 l 1
 234 822 l 1
 331 822 l 1
 472 685 l 1
 416 620 l 1
 283 712 l 1
525 276 m 0
 525 259 524 235 522 219 c 1
 193 219 l 1
 204 124 249 98 314 98 c 0
 357 98 395 113 441 145 c 1
 506 57 l 1
 453 15 385 -17 299 -17 c 0
 122 -17 32 97 32 263 c 0
 32 422 119 548 280 548 c 0
 432 548 525 448 525 276 c 0
370 314 m 1
 370 321 l 2
 369 393 347 443 284 443 c 0
 231 443 200 409 193 314 c 1
 370 314 l 1
EndSplineSet
EndChar

StartChar: uni00EB
Encoding: 235 235 170
Width: 554
Flags: W
LayerCount: 2
Fore
SplineSet
166 799 m 0
 212 799 247 764 247 720 c 0
 247 676 212 641 166 641 c 0
 121 641 85 676 85 720 c 0
 85 764 121 799 166 799 c 0
397 799 m 0
 444 799 478 764 478 720 c 0
 478 676 444 641 397 641 c 0
 353 641 317 676 317 720 c 0
 317 764 353 799 397 799 c 0
525 276 m 0
 525 259 524 235 522 219 c 1
 194 219 l 1
 204 124 249 98 314 98 c 0
 357 98 395 113 441 145 c 1
 506 57 l 1
 453 15 385 -17 299 -17 c 0
 122 -17 32 97 32 263 c 0
 32 422 119 548 280 548 c 0
 432 548 525 448 525 276 c 0
370 314 m 1
 370 321 l 2
 369 393 347 443 284 443 c 0
 231 443 201 410 193 314 c 1
 370 314 l 1
EndSplineSet
EndChar

StartChar: uni00EC
Encoding: 236 236 171
Width: 280
Flags: W
LayerCount: 2
Fore
SplineSet
72 835 m 1
 290 703 l 1
 246 622 l 1
 10 717 l 1
 72 835 l 1
219 531 m 1
 219 0 l 1
 61 0 l 1
 61 531 l 1
 219 531 l 1
EndSplineSet
EndChar

StartChar: uni00ED
Encoding: 237 237 172
Width: 280
Flags: W
LayerCount: 2
Fore
SplineSet
212 835 m 1
 274 717 l 1
 38 622 l 1
 -6 703 l 1
 212 835 l 1
219 531 m 1
 219 0 l 1
 61 0 l 1
 61 531 l 1
 219 531 l 1
EndSplineSet
EndChar

StartChar: uni00EE
Encoding: 238 238 173
Width: 280
Flags: W
LayerCount: 2
Fore
SplineSet
6 620 m 1
 -50 685 l 1
 91 822 l 1
 188 822 l 1
 329 685 l 1
 273 620 l 1
 140 712 l 1
 6 620 l 1
219 531 m 1
 219 0 l 1
 61 0 l 1
 61 531 l 1
 219 531 l 1
EndSplineSet
EndChar

StartChar: uni00EF
Encoding: 239 239 174
Width: 280
Flags: W
LayerCount: 2
Fore
SplineSet
24 799 m 0
 70 799 105 764 105 720 c 0
 105 676 70 641 24 641 c 0
 -21 641 -57 676 -57 720 c 0
 -57 764 -21 799 24 799 c 0
255 799 m 0
 302 799 336 764 336 720 c 0
 336 676 302 641 255 641 c 0
 211 641 175 676 175 720 c 0
 175 764 211 799 255 799 c 0
219 531 m 1
 219 0 l 1
 61 0 l 1
 61 531 l 1
 219 531 l 1
EndSplineSet
EndChar

StartChar: uni00F0
Encoding: 240 240 175
Width: 579
Flags: W
LayerCount: 2
Fore
SplineSet
357 670 m 1
 494 573 542 445 542 277 c 0
 542 113 448 -17 283 -17 c 0
 141 -17 32 75 32 234 c 0
 32 370 119 479 240 479 c 0
 296 479 338 462 372 432 c 1
 354 492 326 538 270 582 c 1
 215 527 l 1
 116 573 l 1
 173 632 l 1
 139 643 108 650 81 654 c 1
 113 758 l 1
 160 750 202 741 259 720 c 1
 332 798 l 1
 412 727 l 1
 357 670 l 1
285 98 m 0
 350 98 381 150 381 256 c 0
 381 281 380 304 380 327 c 1
 355 354 323 369 283 369 c 0
 217 369 193 316 193 237 c 0
 193 139 229 98 285 98 c 0
EndSplineSet
EndChar

StartChar: uni00F1
Encoding: 241 241 176
Width: 573
Flags: W
LayerCount: 2
Fore
SplineSet
236 680 m 0
 212 680 199 664 183 636 c 1
 104 674 l 1
 129 738 173 792 233 792 c 0
 264 792 282 782 303 768 c 0
 321 755 333 747 349 747 c 0
 371 747 385 762 401 791 c 1
 480 752 l 1
 454 685 409 635 350 635 c 0
 322 635 303 643 283 658 c 0
 265 671 253 680 236 680 c 0
372 548 m 0
 464 548 519 489 519 388 c 2
 519 0 l 1
 361 0 l 1
 361 361 l 2
 361 417 342 432 311 432 c 0
 276 432 246 407 219 363 c 1
 219 0 l 1
 61 0 l 1
 61 531 l 1
 198 531 l 1
 210 467 l 1
 254 520 305 548 372 548 c 0
EndSplineSet
EndChar

StartChar: uni00F2
Encoding: 242 242 177
Width: 584
Flags: W
LayerCount: 2
Fore
SplineSet
224 835 m 1
 442 703 l 1
 398 622 l 1
 162 717 l 1
 224 835 l 1
292 548 m 0
 454 548 552 444 552 265 c 0
 552 95 454 -17 292 -17 c 0
 131 -17 32 87 32 266 c 0
 32 436 130 548 292 548 c 0
292 432 m 0
 228 432 196 381 196 266 c 0
 196 148 228 99 292 99 c 0
 356 99 388 150 388 265 c 0
 388 383 356 432 292 432 c 0
EndSplineSet
EndChar

StartChar: uni00F3
Encoding: 243 243 178
Width: 584
Flags: W
LayerCount: 2
Fore
SplineSet
364 835 m 1
 426 717 l 1
 190 622 l 1
 146 703 l 1
 364 835 l 1
292 548 m 0
 454 548 552 444 552 265 c 0
 552 95 454 -17 292 -17 c 0
 131 -17 32 87 32 266 c 0
 32 436 130 548 292 548 c 0
292 432 m 0
 228 432 196 381 196 266 c 0
 196 148 228 99 292 99 c 0
 356 99 388 150 388 265 c 0
 388 383 356 432 292 432 c 0
EndSplineSet
EndChar

StartChar: uni00F4
Encoding: 244 244 179
Width: 584
Flags: W
LayerCount: 2
Fore
SplineSet
158 620 m 1
 102 685 l 1
 243 822 l 1
 340 822 l 1
 481 685 l 1
 425 620 l 1
 292 712 l 1
 158 620 l 1
292 548 m 0
 454 548 552 444 552 265 c 0
 552 95 454 -17 292 -17 c 0
 131 -17 32 87 32 266 c 0
 32 436 130 548 292 548 c 0
292 432 m 0
 228 432 196 381 196 266 c 0
 196 148 228 99 292 99 c 0
 356 99 388 150 388 265 c 0
 388 383 356 432 292 432 c 0
EndSplineSet
EndChar

StartChar: uni00F5
Encoding: 245 245 180
Width: 584
Flags: W
LayerCount: 2
Fore
SplineSet
350 635 m 0
 322 635 303 643 283 658 c 0
 265 671 253 680 236 680 c 0
 212 680 199 664 183 636 c 1
 104 674 l 1
 129 738 173 792 233 792 c 0
 264 792 282 782 303 768 c 0
 321 755 333 747 349 747 c 0
 371 747 385 762 401 791 c 1
 480 752 l 1
 454 685 409 635 350 635 c 0
292 548 m 0
 454 548 552 444 552 265 c 0
 552 95 454 -17 292 -17 c 0
 131 -17 32 87 32 266 c 0
 32 436 130 548 292 548 c 0
292 432 m 0
 228 432 196 381 196 266 c 0
 196 148 228 99 292 99 c 0
 356 99 388 150 388 265 c 0
 388 383 356 432 292 432 c 0
EndSplineSet
EndChar

StartChar: uni00F6
Encoding: 246 246 181
Width: 584
Flags: W
LayerCount: 2
Fore
SplineSet
176 799 m 0
 222 799 257 764 257 720 c 0
 257 676 222 641 176 641 c 0
 131 641 95 676 95 720 c 0
 95 764 131 799 176 799 c 0
407 799 m 0
 454 799 488 764 488 720 c 0
 488 676 454 641 407 641 c 0
 363 641 327 676 327 720 c 0
 327 764 363 799 407 799 c 0
292 548 m 0
 454 548 552 444 552 265 c 0
 552 95 454 -17 292 -17 c 0
 131 -17 32 87 32 266 c 0
 32 436 130 548 292 548 c 0
292 432 m 0
 228 432 196 381 196 266 c 0
 196 148 228 99 292 99 c 0
 356 99 388 150 388 265 c 0
 388 383 356 432 292 432 c 0
EndSplineSet
EndChar

StartChar: uni00F7
Encoding: 247 247 182
Width: 519
Flags: W
LayerCount: 2
Fore
SplineSet
259 664 m 0
 310 664 350 623 350 574 c 0
 350 524 310 483 259 483 c 0
 209 483 169 524 169 574 c 0
 169 623 209 664 259 664 c 0
48 271 m 1
 48 393 l 1
 470 393 l 1
 470 271 l 1
 48 271 l 1
259 181 m 0
 310 181 350 141 350 91 c 0
 350 42 310 1 259 1 c 0
 209 1 169 42 169 91 c 0
 169 141 209 181 259 181 c 0
EndSplineSet
EndChar

StartChar: uni00F8
Encoding: 248 248 183
Width: 584
Flags: W
LayerCount: 2
Fore
SplineSet
438 510 m 1
 511 465 552 381 552 265 c 0
 552 95 454 -17 292 -17 c 0
 280 -17 269 -16 258 -15 c 1
 221 -135 l 1
 106 -101 l 1
 145 21 l 1
 73 67 32 151 32 266 c 0
 32 436 130 548 292 548 c 0
 303 548 314 547 325 546 c 1
 364 667 l 1
 480 633 l 1
 438 510 l 1
292 432 m 2
 222 432 183 381 183 266 c 0
 183 197 192 156 208 132 c 1
 308 432 l 1
 292 432 l 2
292 99 m 2
 363 99 401 150 401 265 c 0
 401 334 392 375 375 399 c 1
 276 99 l 1
 292 99 l 2
EndSplineSet
EndChar

StartChar: uni00F9
Encoding: 249 249 184
Width: 568
Flags: W
LayerCount: 2
Fore
SplineSet
213 835 m 1
 431 703 l 1
 387 622 l 1
 151 717 l 1
 213 835 l 1
507 531 m 1
 507 0 l 1
 370 0 l 1
 363 67 l 1
 325 11 273 -17 202 -17 c 0
 103 -17 54 47 54 150 c 2
 54 531 l 1
 212 531 l 1
 212 170 l 2
 212 116 230 100 263 100 c 0
 296 100 326 122 349 162 c 1
 349 531 l 1
 507 531 l 1
EndSplineSet
EndChar

StartChar: uni00FA
Encoding: 250 250 185
Width: 568
Flags: W
LayerCount: 2
Fore
SplineSet
353 835 m 1
 415 717 l 1
 179 622 l 1
 135 703 l 1
 353 835 l 1
507 531 m 1
 507 0 l 1
 370 0 l 1
 363 67 l 1
 325 11 273 -17 202 -17 c 0
 103 -17 54 47 54 150 c 2
 54 531 l 1
 212 531 l 1
 212 170 l 2
 212 116 230 100 263 100 c 0
 296 100 326 122 349 162 c 1
 349 531 l 1
 507 531 l 1
EndSplineSet
EndChar

StartChar: uni00FB
Encoding: 251 251 186
Width: 568
Flags: W
LayerCount: 2
Fore
SplineSet
148 620 m 1
 92 685 l 1
 233 822 l 1
 330 822 l 1
 471 685 l 1
 415 620 l 1
 282 712 l 1
 148 620 l 1
507 531 m 1
 507 0 l 1
 370 0 l 1
 363 67 l 1
 325 11 273 -17 202 -17 c 0
 103 -17 54 47 54 150 c 2
 54 531 l 1
 212 531 l 1
 212 170 l 2
 212 116 230 100 263 100 c 0
 296 100 326 122 349 162 c 1
 349 531 l 1
 507 531 l 1
EndSplineSet
EndChar

StartChar: uni00FC
Encoding: 252 252 187
Width: 568
Flags: W
LayerCount: 2
Fore
SplineSet
165 799 m 0
 211 799 246 764 246 720 c 0
 246 676 211 641 165 641 c 0
 120 641 84 676 84 720 c 0
 84 764 120 799 165 799 c 0
396 799 m 0
 443 799 477 764 477 720 c 0
 477 676 443 641 396 641 c 0
 352 641 316 676 316 720 c 0
 316 764 352 799 396 799 c 0
507 531 m 1
 507 0 l 1
 370 0 l 1
 363 67 l 1
 325 11 273 -17 202 -17 c 0
 103 -17 54 47 54 150 c 2
 54 531 l 1
 212 531 l 1
 212 170 l 2
 212 116 230 100 263 100 c 0
 296 100 326 122 349 162 c 1
 349 531 l 1
 507 531 l 1
EndSplineSet
EndChar

StartChar: uni00FD
Encoding: 253 253 188
Width: 518
Flags: W
LayerCount: 2
Fore
SplineSet
331 835 m 1
 393 717 l 1
 157 622 l 1
 113 703 l 1
 331 835 l 1
524 531 m 1
 355 -1 l 2
 313 -135 223 -213 56 -222 c 1
 39 -111 l 1
 143 -98 181 -68 210 0 c 1
 156 0 l 1
 -6 531 l 1
 162 531 l 1
 257 101 l 1
 361 531 l 1
 524 531 l 1
EndSplineSet
EndChar

StartChar: uni00FE
Encoding: 254 254 189
Width: 591
Flags: W
LayerCount: 2
Fore
SplineSet
358 548 m 0
 498 548 559 439 559 267 c 0
 559 103 479 -17 348 -17 c 0
 296 -17 252 1 219 38 c 1
 219 -204 l 1
 61 -222 l 1
 61 742 l 1
 219 759 l 1
 219 481 l 1
 261 530 313 548 358 548 c 0
299 99 m 0
 358 99 395 146 395 265 c 0
 395 397 363 432 308 432 c 0
 273 432 242 409 219 370 c 1
 219 146 l 1
 241 114 266 99 299 99 c 0
EndSplineSet
EndChar

StartChar: uni00FF
Encoding: 255 255 190
Width: 518
Flags: W
LayerCount: 2
Fore
SplineSet
143 799 m 0
 189 799 224 764 224 720 c 0
 224 676 189 641 143 641 c 0
 98 641 62 676 62 720 c 0
 62 764 98 799 143 799 c 0
374 799 m 0
 421 799 455 764 455 720 c 0
 455 676 421 641 374 641 c 0
 330 641 294 676 294 720 c 0
 294 764 330 799 374 799 c 0
524 531 m 1
 355 -1 l 2
 313 -135 223 -213 56 -222 c 1
 39 -111 l 1
 143 -98 181 -68 210 0 c 1
 156 0 l 1
 -6 531 l 1
 162 531 l 1
 257 101 l 1
 361 531 l 1
 524 531 l 1
EndSplineSet
EndChar

StartChar: uni0100
Encoding: 256 256 191
Width: 590
Flags: W
LayerCount: 2
Fore
SplineSet
448 781 m 1
 143 781 l 1
 143 891 l 1
 448 891 l 1
 448 781 l 1
430 0 m 1
 395 149 l 1
 192 149 l 1
 157 0 l 1
 -13 0 l 1
 196 693 l 1
 395 693 l 1
 604 0 l 1
 430 0 l 1
220 268 m 1
 366 268 l 1
 293 574 l 1
 220 268 l 1
EndSplineSet
EndChar

StartChar: uni0101
Encoding: 257 257 192
Width: 546
Flags: W
LayerCount: 2
Fore
SplineSet
421 655 m 1
 116 655 l 1
 116 765 l 1
 421 765 l 1
 421 655 l 1
482 154 m 2
 482 113 493 98 518 89 c 1
 485 -14 l 1
 423 -9 382 10 357 62 c 1
 319 4 260 -17 197 -17 c 0
 91 -17 24 52 24 149 c 0
 24 265 113 328 273 328 c 2
 327 328 l 1
 327 351 l 2
 327 414 302 433 237 433 c 0
 203 433 151 423 98 405 c 1
 62 509 l 1
 129 534 202 548 262 548 c 0
 416 548 482 483 482 360 c 2
 482 154 l 2
243 96 m 0
 279 96 308 115 327 146 c 1
 327 241 l 1
 288 241 l 2
 216 241 182 216 182 163 c 0
 182 121 204 96 243 96 c 0
EndSplineSet
EndChar

StartChar: uni0102
Encoding: 258 258 193
Width: 590
Flags: W
LayerCount: 2
Fore
SplineSet
295 751 m 0
 190 751 131 828 123 913 c 1
 210 928 l 1
 222 890 249 860 295 860 c 0
 341 860 368 890 381 928 c 1
 468 913 l 1
 460 828 400 751 295 751 c 0
430 0 m 1
 394 149 l 1
 192 149 l 1
 157 0 l 1
 -13 0 l 1
 196 693 l 1
 395 693 l 1
 604 0 l 1
 430 0 l 1
220 268 m 1
 366 268 l 1
 293 574 l 1
 220 268 l 1
EndSplineSet
EndChar

StartChar: uni0103
Encoding: 259 259 194
Width: 546
Flags: W
LayerCount: 2
Fore
SplineSet
269 632 m 0
 164 632 105 709 97 805 c 1
 184 820 l 1
 196 772 223 742 269 742 c 0
 315 742 342 772 355 820 c 1
 442 805 l 1
 434 709 374 632 269 632 c 0
482 154 m 2
 482 113 493 98 518 89 c 1
 485 -14 l 1
 423 -9 381 10 357 62 c 1
 319 4 260 -17 197 -17 c 0
 91 -17 24 52 24 149 c 0
 24 265 113 328 273 328 c 2
 327 328 l 1
 327 351 l 2
 327 414 302 433 237 433 c 0
 203 433 151 423 98 405 c 1
 62 509 l 1
 129 534 202 548 262 548 c 0
 416 548 482 483 482 360 c 2
 482 154 l 2
243 96 m 0
 280 96 308 115 327 146 c 1
 327 241 l 1
 288 241 l 2
 216 241 182 216 182 163 c 0
 182 121 204 96 243 96 c 0
EndSplineSet
EndChar

StartChar: uni0104
Encoding: 260 260 195
Width: 590
Flags: W
LayerCount: 2
Fore
SplineSet
521 0 m 1
 422 -37 403 -74 403 -102 c 0
 403 -132 420 -148 456 -148 c 0
 475 -148 494 -145 517 -140 c 1
 506 -238 l 1
 484 -243 462 -246 436 -246 c 0
 351 -246 289 -201 289 -129 c 0
 289 -55 341 -8 424 26 c 1
 395 149 l 1
 192 149 l 1
 157 0 l 1
 -13 0 l 1
 196 693 l 1
 395 693 l 1
 604 0 l 1
 521 0 l 1
220 268 m 1
 366 268 l 1
 293 574 l 1
 220 268 l 1
EndSplineSet
EndChar

StartChar: uni0105
Encoding: 261 261 196
Width: 546
Flags: W
LayerCount: 2
Fore
SplineSet
486 -14 m 1
 387 -51 368 -88 368 -116 c 0
 368 -146 385 -162 421 -162 c 0
 440 -162 459 -159 482 -154 c 1
 471 -252 l 1
 449 -257 427 -260 401 -260 c 0
 316 -260 254 -215 254 -143 c 0
 254 -68 308 -19 395 14 c 1
 379 26 367 41 357 62 c 1
 319 4 260 -17 197 -17 c 0
 91 -17 24 52 24 149 c 0
 24 265 113 328 273 328 c 2
 327 328 l 1
 327 351 l 2
 327 414 302 433 237 433 c 0
 203 433 151 423 98 405 c 1
 62 509 l 1
 129 534 202 548 262 548 c 0
 416 548 482 483 482 360 c 2
 482 154 l 2
 482 113 493 98 518 89 c 1
 485 -13 l 1
 486 -14 l 1
327 146 m 1
 327 241 l 1
 288 241 l 2
 216 241 182 216 182 163 c 0
 182 121 204 96 243 96 c 0
 279 96 308 115 327 146 c 1
EndSplineSet
EndChar

StartChar: uni0106
Encoding: 262 262 197
Width: 575
Flags: W
LayerCount: 2
Fore
SplineSet
435 956 m 1
 494 838 l 1
 254 751 l 1
 214 831 l 1
 435 956 l 1
348 710 m 0
 438 710 501 683 559 634 c 1
 481 541 l 1
 442 571 403 589 356 589 c 0
 267 589 205 518 205 348 c 0
 205 181 266 110 358 110 c 0
 413 110 453 135 494 166 c 1
 567 72 l 1
 521 26 446 -17 350 -17 c 0
 160 -17 33 111 33 348 c 0
 33 580 168 710 348 710 c 0
EndSplineSet
EndChar

StartChar: uni0107
Encoding: 263 263 198
Width: 479
Flags: W
LayerCount: 2
Fore
SplineSet
363 835 m 1
 425 717 l 1
 189 622 l 1
 145 703 l 1
 363 835 l 1
292 548 m 0
 366 548 423 526 474 483 c 1
 406 389 l 1
 372 415 341 427 305 427 c 0
 237 427 198 381 198 262 c 0
 198 144 240 108 303 108 c 0
 341 108 367 120 405 144 c 1
 474 46 l 1
 425 7 368 -17 295 -17 c 0
 132 -17 32 93 32 261 c 0
 32 430 133 548 292 548 c 0
EndSplineSet
EndChar

StartChar: uni010C
Encoding: 268 268 199
Width: 575
Flags: W
LayerCount: 2
Fore
SplineSet
487 944 m 1
 543 879 l 1
 402 750 l 1
 306 750 l 1
 164 879 l 1
 221 944 l 1
 354 860 l 1
 487 944 l 1
348 710 m 0
 438 710 501 683 559 634 c 1
 481 541 l 1
 442 571 403 589 356 589 c 0
 267 589 205 518 205 348 c 0
 205 181 266 110 358 110 c 0
 413 110 453 135 494 166 c 1
 567 72 l 1
 521 26 446 -17 350 -17 c 0
 160 -17 33 111 33 348 c 0
 33 580 168 710 348 710 c 0
EndSplineSet
EndChar

StartChar: uni010D
Encoding: 269 269 200
Width: 479
Flags: W
LayerCount: 2
Fore
SplineSet
424 813 m 1
 480 748 l 1
 339 611 l 1
 243 611 l 1
 101 748 l 1
 158 813 l 1
 291 722 l 1
 424 813 l 1
292 548 m 0
 366 548 423 526 474 483 c 1
 406 389 l 1
 372 415 341 427 305 427 c 0
 237 427 198 381 198 262 c 0
 198 144 240 108 303 108 c 0
 341 108 367 120 405 144 c 1
 474 46 l 1
 425 7 368 -17 295 -17 c 0
 132 -17 32 93 32 261 c 0
 32 430 133 548 292 548 c 0
EndSplineSet
EndChar

StartChar: uni010E
Encoding: 270 270 201
Width: 651
Flags: W
LayerCount: 2
Fore
SplineSet
429 944 m 1
 485 879 l 1
 344 750 l 1
 248 750 l 1
 106 879 l 1
 163 944 l 1
 296 860 l 1
 429 944 l 1
258 693 m 2
 443 693 618 636 618 350 c 0
 618 71 450 0 273 0 c 2
 65 0 l 1
 65 693 l 1
 258 693 l 2
281 574 m 2
 229 574 l 1
 229 119 l 1
 283 119 l 2
 382 119 448 166 448 350 c 0
 448 536 377 574 281 574 c 2
EndSplineSet
EndChar

StartChar: uni010F
Encoding: 271 271 202
Width: 686
Flags: W
LayerCount: 2
Fore
SplineSet
375 498 m 1
 375 759 l 1
 533 742 l 1
 533 0 l 1
 393 0 l 1
 385 62 l 1
 354 18 306 -17 234 -17 c 0
 99 -17 32 95 32 267 c 0
 32 431 118 548 249 548 c 0
 301 548 344 529 375 498 c 1
599 758 m 1
 718 741 l 1
 663 526 l 1
 576 539 l 1
 599 758 l 1
283 99 m 0
 321 99 350 119 375 159 c 1
 375 388 l 1
 351 416 327 433 292 433 c 0
 236 433 196 385 196 266 c 0
 196 134 232 99 283 99 c 0
EndSplineSet
EndChar

StartChar: uni0110
Encoding: 272 272 203
Width: 665
Flags: W
LayerCount: 2
Fore
SplineSet
272 693 m 2
 457 693 632 636 632 350 c 0
 632 71 464 0 287 0 c 2
 78 0 l 1
 78 304 l 1
 14 304 l 1
 14 402 l 1
 78 402 l 1
 78 693 l 1
 272 693 l 2
297 119 m 2
 396 119 462 166 462 350 c 0
 462 536 391 574 295 574 c 2
 242 574 l 1
 242 402 l 1
 377 402 l 1
 377 304 l 1
 242 304 l 1
 242 119 l 1
 297 119 l 2
EndSplineSet
EndChar

StartChar: uni0111
Encoding: 273 273 204
Width: 608
Flags: W
LayerCount: 2
Fore
SplineSet
533 688 m 1
 600 688 l 1
 600 596 l 1
 533 596 l 1
 533 0 l 1
 393 0 l 1
 385 62 l 1
 354 18 306 -17 234 -17 c 0
 99 -17 32 95 32 267 c 0
 32 431 118 548 249 548 c 0
 301 548 344 529 375 498 c 1
 375 596 l 1
 243 596 l 1
 243 688 l 1
 375 688 l 1
 375 759 l 1
 533 742 l 1
 533 688 l 1
283 99 m 0
 321 99 350 119 375 159 c 1
 375 388 l 1
 351 416 327 433 292 433 c 0
 236 433 196 385 196 266 c 0
 196 134 232 99 283 99 c 0
EndSplineSet
EndChar

StartChar: uni0112
Encoding: 274 274 205
Width: 526
Flags: W
LayerCount: 2
Fore
SplineSet
431 781 m 1
 126 781 l 1
 126 891 l 1
 431 891 l 1
 431 781 l 1
490 693 m 1
 473 576 l 1
 229 576 l 1
 229 410 l 1
 442 410 l 1
 442 295 l 1
 229 295 l 1
 229 118 l 1
 490 118 l 1
 490 0 l 1
 65 0 l 1
 65 693 l 1
 490 693 l 1
EndSplineSet
EndChar

StartChar: uni0113
Encoding: 275 275 206
Width: 554
Flags: W
LayerCount: 2
Fore
SplineSet
435 655 m 1
 130 655 l 1
 130 765 l 1
 435 765 l 1
 435 655 l 1
525 276 m 0
 525 259 524 235 522 219 c 1
 194 219 l 1
 204 124 249 98 314 98 c 0
 357 98 395 113 441 145 c 1
 506 57 l 1
 453 15 385 -17 299 -17 c 0
 122 -17 32 97 32 263 c 0
 32 422 119 548 280 548 c 0
 432 548 525 448 525 276 c 0
370 314 m 1
 370 321 l 2
 369 393 347 443 284 443 c 0
 231 443 201 410 193 314 c 1
 370 314 l 1
EndSplineSet
EndChar

StartChar: uni0116
Encoding: 278 278 207
Width: 526
Flags: W
LayerCount: 2
Fore
SplineSet
278 937 m 0
 333 937 372 898 372 847 c 0
 372 796 333 757 278 757 c 0
 223 757 185 796 185 847 c 0
 185 898 223 937 278 937 c 0
490 693 m 1
 473 576 l 1
 229 576 l 1
 229 410 l 1
 442 410 l 1
 442 295 l 1
 229 295 l 1
 229 118 l 1
 490 118 l 1
 490 0 l 1
 65 0 l 1
 65 693 l 1
 490 693 l 1
EndSplineSet
EndChar

StartChar: uni0117
Encoding: 279 279 208
Width: 554
Flags: W
LayerCount: 2
Fore
SplineSet
282 811 m 0
 337 811 376 772 376 721 c 0
 376 670 337 631 282 631 c 0
 227 631 189 670 189 721 c 0
 189 772 227 811 282 811 c 0
525 276 m 0
 525 259 524 235 522 219 c 1
 194 219 l 1
 204 124 249 98 314 98 c 0
 357 98 395 113 441 145 c 1
 506 57 l 1
 453 15 385 -17 299 -17 c 0
 122 -17 32 97 32 263 c 0
 32 422 119 548 280 548 c 0
 432 548 525 448 525 276 c 0
370 314 m 1
 370 321 l 2
 369 393 347 443 284 443 c 0
 231 443 201 410 193 314 c 1
 370 314 l 1
EndSplineSet
EndChar

StartChar: uni0118
Encoding: 280 280 209
Width: 526
Flags: W
LayerCount: 2
Fore
SplineSet
229 295 m 1
 229 118 l 1
 490 118 l 1
 490 0 l 1
 450 0 l 1
 351 -37 332 -74 332 -102 c 0
 332 -132 349 -148 385 -148 c 0
 404 -148 423 -145 446 -140 c 1
 435 -238 l 1
 413 -243 391 -246 365 -246 c 0
 280 -246 218 -201 218 -129 c 0
 218 -73 248 -31 300 0 c 1
 65 0 l 1
 65 693 l 1
 490 693 l 1
 473 576 l 1
 229 576 l 1
 229 410 l 1
 442 410 l 1
 442 295 l 1
 229 295 l 1
EndSplineSet
EndChar

StartChar: uni0119
Encoding: 281 281 210
Width: 554
Flags: W
LayerCount: 2
Fore
SplineSet
525 276 m 0
 525 259 524 235 522 219 c 1
 194 219 l 1
 204 124 249 98 314 98 c 0
 357 98 395 113 441 145 c 1
 506 57 l 1
 475 32 439 11 397 -2 c 1
 322 -35 306 -68 306 -93 c 0
 306 -123 323 -139 359 -139 c 0
 379 -139 397 -136 420 -131 c 1
 409 -229 l 1
 388 -234 366 -237 339 -237 c 0
 254 -237 192 -192 192 -120 c 0
 192 -74 218 -39 260 -15 c 1
 109 1 32 110 32 263 c 0
 32 422 119 548 280 548 c 0
 432 548 525 448 525 276 c 0
370 314 m 1
 370 321 l 2
 369 393 347 443 284 443 c 0
 231 443 201 410 193 314 c 1
 370 314 l 1
EndSplineSet
EndChar

StartChar: uni011A
Encoding: 282 282 211
Width: 526
Flags: W
LayerCount: 2
Fore
SplineSet
412 944 m 1
 468 879 l 1
 327 750 l 1
 231 750 l 1
 89 879 l 1
 146 944 l 1
 279 860 l 1
 412 944 l 1
490 693 m 1
 473 576 l 1
 229 576 l 1
 229 410 l 1
 442 410 l 1
 442 295 l 1
 229 295 l 1
 229 118 l 1
 490 118 l 1
 490 0 l 1
 65 0 l 1
 65 693 l 1
 490 693 l 1
EndSplineSet
EndChar

StartChar: uni011B
Encoding: 283 283 212
Width: 554
Flags: W
LayerCount: 2
Fore
SplineSet
331 611 m 1
 235 611 l 1
 93 748 l 1
 150 813 l 1
 283 722 l 1
 416 813 l 1
 472 748 l 1
 331 611 l 1
525 276 m 0
 525 259 524 235 522 219 c 1
 193 219 l 1
 204 124 249 98 314 98 c 0
 357 98 395 113 441 145 c 1
 506 57 l 1
 453 15 385 -17 299 -17 c 0
 122 -17 32 97 32 263 c 0
 32 422 119 548 280 548 c 0
 432 548 525 448 525 276 c 0
370 314 m 1
 370 321 l 2
 369 393 347 443 284 443 c 0
 231 443 200 409 193 314 c 1
 370 314 l 1
EndSplineSet
EndChar

StartChar: uni011E
Encoding: 286 286 213
Width: 645
Flags: W
LayerCount: 2
Fore
SplineSet
351 751 m 0
 246 751 187 828 179 913 c 1
 266 928 l 1
 278 890 305 860 351 860 c 0
 397 860 424 890 437 928 c 1
 524 913 l 1
 516 828 456 751 351 751 c 0
365 710 m 0
 466 710 539 675 596 625 c 1
 513 538 l 1
 466 574 428 591 372 591 c 0
 275 591 203 519 203 347 c 0
 203 165 251 103 347 103 c 0
 381 103 412 110 441 126 c 1
 441 283 l 1
 351 283 l 1
 335 399 l 1
 600 399 l 1
 600 56 l 1
 528 10 438 -17 351 -17 c 0
 139 -17 33 110 33 347 c 0
 33 582 179 710 365 710 c 0
EndSplineSet
EndChar

StartChar: uni011F
Encoding: 287 287 214
Width: 551
Flags: W
LayerCount: 2
Fore
SplineSet
275 632 m 0
 170 632 111 709 103 805 c 1
 190 820 l 1
 202 772 229 742 275 742 c 0
 321 742 348 772 361 820 c 1
 448 805 l 1
 440 709 380 632 275 632 c 0
514 617 m 1
 551 500 l 1
 514 485 465 479 398 479 c 1
 465 450 498 411 498 342 c 0
 498 239 413 164 275 164 c 0
 253 164 233 166 214 170 c 1
 203 164 197 152 197 140 c 0
 197 124 204 108 255 108 c 2
 335 108 l 2
 459 108 538 43 538 -46 c 0
 538 -155 442 -222 260 -222 c 0
 59 -222 6 -156 6 -51 c 1
 148 -51 l 1
 148 -97 168 -117 264 -117 c 0
 357 -117 379 -91 379 -57 c 0
 379 -26 356 -5 303 -5 c 2
 226 -5 l 2
 110 -5 63 43 63 100 c 0
 63 139 88 178 126 202 c 1
 58 238 31 285 31 354 c 0
 31 474 125 548 264 548 c 0
 382 545 450 579 514 617 c 1
268 444 m 0
 219 444 188 411 188 356 c 0
 188 298 220 266 268 266 c 0
 320 266 348 297 348 358 c 0
 348 417 321 444 268 444 c 0
EndSplineSet
EndChar

StartChar: uni0122
Encoding: 290 290 215
Width: 645
Flags: W
LayerCount: 2
Fore
SplineSet
365 710 m 0
 466 710 539 675 596 625 c 1
 513 538 l 1
 466 574 428 591 372 591 c 0
 275 591 203 519 203 347 c 0
 203 165 251 103 347 103 c 0
 381 103 412 110 441 126 c 1
 441 283 l 1
 351 283 l 1
 335 399 l 1
 600 399 l 1
 600 56 l 1
 528 10 438 -17 351 -17 c 0
 139 -17 33 110 33 347 c 0
 33 582 179 710 365 710 c 0
348 -68 m 0
 394 -68 427 -101 427 -145 c 0
 427 -171 419 -191 400 -229 c 2
 354 -325 l 1
 275 -325 l 1
 302 -210 l 1
 283 -195 269 -174 269 -145 c 0
 269 -103 302 -68 348 -68 c 0
EndSplineSet
EndChar

StartChar: uni0123
Encoding: 291 291 216
Width: 551
Flags: W
LayerCount: 2
Fore
SplineSet
272 577 m 0
 226 577 193 610 193 655 c 0
 193 680 201 700 220 738 c 2
 266 834 l 1
 345 834 l 1
 318 719 l 1
 337 704 351 683 351 655 c 0
 351 612 317 577 272 577 c 0
514 617 m 1
 551 500 l 1
 514 485 465 479 398 479 c 1
 465 450 498 411 498 342 c 0
 498 239 413 164 275 164 c 0
 253 164 233 166 214 170 c 1
 203 164 197 152 197 140 c 0
 197 124 204 108 255 108 c 2
 335 108 l 2
 459 108 538 43 538 -46 c 0
 538 -155 442 -222 260 -222 c 0
 59 -222 6 -156 6 -51 c 1
 148 -51 l 1
 148 -97 168 -117 264 -117 c 0
 357 -117 379 -91 379 -57 c 0
 379 -26 356 -5 303 -5 c 2
 226 -5 l 2
 110 -5 63 43 63 100 c 0
 63 139 88 178 126 202 c 1
 58 238 31 285 31 354 c 0
 31 474 125 548 264 548 c 0
 382 545 450 579 514 617 c 1
268 444 m 0
 219 444 188 411 188 356 c 0
 188 298 220 266 268 266 c 0
 320 266 348 297 348 358 c 0
 348 417 321 444 268 444 c 0
EndSplineSet
EndChar

StartChar: uni012A
Encoding: 298 298 217
Width: 293
Flags: W
LayerCount: 2
Fore
SplineSet
298 781 m 1
 -7 781 l 1
 -7 891 l 1
 298 891 l 1
 298 781 l 1
229 693 m 1
 229 0 l 1
 65 0 l 1
 65 693 l 1
 229 693 l 1
EndSplineSet
EndChar

StartChar: uni012B
Encoding: 299 299 218
Width: 280
Flags: W
LayerCount: 2
Fore
SplineSet
292 655 m 1
 -13 655 l 1
 -13 765 l 1
 292 765 l 1
 292 655 l 1
219 531 m 1
 219 0 l 1
 61 0 l 1
 61 531 l 1
 219 531 l 1
EndSplineSet
EndChar

StartChar: uni012E
Encoding: 302 302 219
Width: 293
Flags: W
LayerCount: 2
Fore
SplineSet
65 693 m 1
 229 693 l 1
 229 0 l 1
 200 0 l 1
 101 -37 82 -74 82 -102 c 0
 82 -132 99 -148 135 -148 c 0
 154 -148 173 -145 196 -140 c 1
 185 -238 l 1
 163 -243 141 -246 115 -246 c 0
 30 -246 -32 -201 -32 -129 c 0
 -32 -67 4 -24 65 8 c 1
 65 693 l 1
EndSplineSet
EndChar

StartChar: uni012F
Encoding: 303 303 220
Width: 280
Flags: W
LayerCount: 2
Fore
SplineSet
139 631 m 0
 84 631 46 670 46 721 c 0
 46 772 84 811 139 811 c 0
 194 811 233 772 233 721 c 0
 233 670 194 631 139 631 c 0
61 10 m 1
 61 531 l 1
 219 531 l 1
 219 0 l 1
 194 0 l 1
 95 -37 76 -74 76 -102 c 0
 76 -132 93 -148 129 -148 c 0
 148 -148 167 -145 190 -140 c 1
 179 -238 l 1
 157 -243 135 -246 109 -246 c 0
 24 -246 -38 -201 -38 -129 c 0
 -38 -67 -1 -23 61 10 c 1
EndSplineSet
EndChar

StartChar: uni0130
Encoding: 304 304 221
Width: 293
Flags: W
LayerCount: 2
Fore
SplineSet
146 937 m 0
 201 937 240 898 240 847 c 0
 240 796 201 757 146 757 c 0
 91 757 53 796 53 847 c 0
 53 898 91 937 146 937 c 0
229 693 m 1
 229 0 l 1
 65 0 l 1
 65 693 l 1
 229 693 l 1
EndSplineSet
EndChar

StartChar: uni0131
Encoding: 305 305 222
Width: 280
Flags: W
LayerCount: 2
Fore
SplineSet
219 531 m 1
 219 0 l 1
 61 0 l 1
 61 531 l 1
 219 531 l 1
EndSplineSet
EndChar

StartChar: uni0136
Encoding: 310 310 223
Width: 633
Flags: W
LayerCount: 2
Fore
SplineSet
229 693 m 1
 229 0 l 1
 65 0 l 1
 65 693 l 1
 229 693 l 1
627 693 m 1
 406 382 l 1
 645 0 l 1
 455 0 l 1
 234 370 l 1
 454 693 l 1
 627 693 l 1
325 -68 m 0
 371 -68 404 -101 404 -145 c 0
 404 -171 396 -191 377 -229 c 2
 331 -325 l 1
 252 -325 l 1
 279 -210 l 1
 260 -195 246 -174 246 -145 c 0
 246 -103 279 -68 325 -68 c 0
EndSplineSet
EndChar

StartChar: uni0137
Encoding: 311 311 224
Width: 551
Flags: W
LayerCount: 2
Fore
SplineSet
219 759 m 1
 219 0 l 1
 61 0 l 1
 61 742 l 1
 219 759 l 1
547 531 m 1
 386 298 l 1
 560 0 l 1
 382 0 l 1
 224 290 l 1
 386 531 l 1
 547 531 l 1
275 -68 m 0
 321 -68 354 -101 354 -145 c 0
 354 -171 346 -191 327 -229 c 2
 281 -325 l 1
 202 -325 l 1
 229 -210 l 1
 210 -195 196 -174 196 -145 c 0
 196 -103 229 -68 275 -68 c 0
EndSplineSet
EndChar

StartChar: uni0139
Encoding: 313 313 225
Width: 513
Flags: W
LayerCount: 2
Fore
SplineSet
228 956 m 1
 287 838 l 1
 47 751 l 1
 7 831 l 1
 228 956 l 1
229 693 m 1
 229 130 l 1
 499 130 l 1
 482 0 l 1
 65 0 l 1
 65 693 l 1
 229 693 l 1
EndSplineSet
EndChar

StartChar: uni013A
Encoding: 314 314 226
Width: 300
Flags: W
LayerCount: 2
Fore
SplineSet
214 1005 m 1
 273 887 l 1
 33 800 l 1
 -7 880 l 1
 214 1005 l 1
200 -17 m 0
 108 -17 54 38 54 135 c 2
 54 742 l 1
 212 759 l 1
 212 141 l 2
 212 119 221 108 240 108 c 0
 250 108 259 110 266 113 c 1
 296 1 l 1
 273 -9 239 -17 200 -17 c 0
EndSplineSet
EndChar

StartChar: uni013B
Encoding: 315 315 227
Width: 513
Flags: W
LayerCount: 2
Fore
SplineSet
229 693 m 1
 229 130 l 1
 499 130 l 1
 482 0 l 1
 65 0 l 1
 65 693 l 1
 229 693 l 1
274 -68 m 0
 320 -68 353 -101 353 -145 c 0
 353 -171 345 -191 326 -229 c 2
 280 -325 l 1
 201 -325 l 1
 228 -210 l 1
 209 -195 195 -174 195 -145 c 0
 195 -103 228 -68 274 -68 c 0
EndSplineSet
EndChar

StartChar: uni013C
Encoding: 316 316 228
Width: 300
Flags: W
LayerCount: 2
Fore
SplineSet
200 -17 m 0
 108 -17 54 38 54 135 c 2
 54 742 l 1
 212 759 l 1
 212 141 l 2
 212 119 221 108 240 108 c 0
 250 108 259 110 266 113 c 1
 296 1 l 1
 273 -9 239 -17 200 -17 c 0
181 -68 m 0
 227 -68 260 -101 260 -145 c 0
 260 -171 252 -191 233 -229 c 2
 187 -325 l 1
 108 -325 l 1
 135 -210 l 1
 116 -195 102 -174 102 -145 c 0
 102 -103 135 -68 181 -68 c 0
EndSplineSet
EndChar

StartChar: uni013D
Encoding: 317 317 229
Width: 513
Flags: W
LayerCount: 2
Fore
SplineSet
358 478 m 1
 413 693 l 1
 294 710 l 1
 271 491 l 1
 358 478 l 1
229 693 m 1
 229 130 l 1
 499 130 l 1
 482 0 l 1
 65 0 l 1
 65 693 l 1
 229 693 l 1
EndSplineSet
EndChar

StartChar: uni013E
Encoding: 318 318 230
Width: 369
Flags: W
LayerCount: 2
Fore
SplineSet
200 -17 m 0
 108 -17 54 38 54 135 c 2
 54 742 l 1
 212 759 l 1
 212 141 l 2
 212 119 221 108 240 108 c 0
 250 108 259 110 266 113 c 1
 296 1 l 1
 273 -9 239 -17 200 -17 c 0
339 526 m 1
 394 741 l 1
 275 758 l 1
 252 539 l 1
 339 526 l 1
EndSplineSet
EndChar

StartChar: uni0141
Encoding: 321 321 231
Width: 553
Flags: W
LayerCount: 2
Fore
SplineSet
268 130 m 1
 539 130 l 1
 522 0 l 1
 104 0 l 1
 104 224 l 1
 62 198 l 1
 8 285 l 1
 104 344 l 1
 104 693 l 1
 268 693 l 1
 268 446 l 1
 396 525 l 1
 450 439 l 1
 268 326 l 1
 268 130 l 1
EndSplineSet
EndChar

StartChar: uni0142
Encoding: 322 322 232
Width: 358
Flags: W
LayerCount: 2
Fore
SplineSet
268 108 m 0
 279 108 287 110 294 113 c 1
 325 1 l 1
 301 -9 267 -17 229 -17 c 0
 136 -17 83 38 83 135 c 2
 83 267 l 1
 44 243 l 1
 -9 329 l 1
 83 387 l 1
 83 742 l 1
 241 759 l 1
 241 482 l 1
 310 523 l 1
 362 437 l 1
 241 363 l 1
 241 141 l 2
 241 119 249 108 268 108 c 0
EndSplineSet
EndChar

StartChar: uni0143
Encoding: 323 323 233
Width: 663
Flags: W
LayerCount: 2
Fore
SplineSet
417 956 m 1
 476 838 l 1
 236 751 l 1
 196 831 l 1
 417 956 l 1
599 693 m 1
 599 0 l 1
 390 0 l 1
 190 537 l 1
 198 474 211 382 211 254 c 2
 211 0 l 1
 65 0 l 1
 65 693 l 1
 269 693 l 1
 474 155 l 1
 465 211 452 302 452 413 c 2
 452 693 l 1
 599 693 l 1
EndSplineSet
EndChar

StartChar: uni0144
Encoding: 324 324 234
Width: 573
Flags: W
LayerCount: 2
Fore
SplineSet
426 717 m 1
 190 622 l 1
 146 703 l 1
 364 835 l 1
 426 717 l 1
372 548 m 0
 464 548 519 489 519 388 c 2
 519 0 l 1
 361 0 l 1
 361 361 l 2
 361 417 342 432 311 432 c 0
 276 432 246 407 219 363 c 1
 219 0 l 1
 61 0 l 1
 61 531 l 1
 198 531 l 1
 210 467 l 1
 254 520 305 548 372 548 c 0
EndSplineSet
EndChar

StartChar: uni0145
Encoding: 325 325 235
Width: 663
Flags: W
LayerCount: 2
Fore
SplineSet
599 693 m 1
 599 0 l 1
 390 0 l 1
 190 537 l 1
 198 474 211 382 211 254 c 2
 211 0 l 1
 65 0 l 1
 65 693 l 1
 269 693 l 1
 474 155 l 1
 465 211 452 302 452 413 c 2
 452 693 l 1
 599 693 l 1
333 -68 m 0
 379 -68 412 -101 412 -145 c 0
 412 -171 404 -191 385 -229 c 2
 339 -325 l 1
 260 -325 l 1
 287 -210 l 1
 268 -195 254 -174 254 -145 c 0
 254 -103 287 -68 333 -68 c 0
EndSplineSet
EndChar

StartChar: uni0146
Encoding: 326 326 236
Width: 573
Flags: W
LayerCount: 2
Fore
SplineSet
372 548 m 0
 464 548 519 489 519 388 c 2
 519 0 l 1
 361 0 l 1
 361 361 l 2
 361 417 342 432 311 432 c 0
 276 432 246 407 219 363 c 1
 219 0 l 1
 61 0 l 1
 61 531 l 1
 198 531 l 1
 210 467 l 1
 254 520 305 548 372 548 c 0
289 -68 m 0
 335 -68 368 -101 368 -145 c 0
 368 -171 360 -191 341 -229 c 2
 295 -325 l 1
 216 -325 l 1
 243 -210 l 1
 224 -195 210 -174 210 -145 c 0
 210 -103 243 -68 289 -68 c 0
EndSplineSet
EndChar

StartChar: uni0147
Encoding: 327 327 237
Width: 663
Flags: W
LayerCount: 2
Fore
SplineSet
470 944 m 1
 526 879 l 1
 385 750 l 1
 289 750 l 1
 147 879 l 1
 204 944 l 1
 337 860 l 1
 470 944 l 1
599 693 m 1
 599 0 l 1
 390 0 l 1
 190 537 l 1
 198 474 211 382 211 254 c 2
 211 0 l 1
 65 0 l 1
 65 693 l 1
 269 693 l 1
 474 155 l 1
 465 211 452 302 452 413 c 2
 452 693 l 1
 599 693 l 1
EndSplineSet
EndChar

StartChar: uni0148
Encoding: 328 328 238
Width: 573
Flags: W
LayerCount: 2
Fore
SplineSet
341 611 m 1
 245 611 l 1
 103 748 l 1
 160 813 l 1
 293 722 l 1
 426 813 l 1
 482 748 l 1
 341 611 l 1
372 548 m 0
 464 548 519 489 519 388 c 2
 519 0 l 1
 361 0 l 1
 361 361 l 2
 361 417 342 432 311 432 c 0
 276 432 246 407 219 363 c 1
 219 0 l 1
 61 0 l 1
 61 531 l 1
 198 531 l 1
 210 467 l 1
 254 520 305 548 372 548 c 0
EndSplineSet
EndChar

StartChar: uni014C
Encoding: 332 332 239
Width: 691
Flags: W
LayerCount: 2
Fore
SplineSet
497 781 m 1
 192 781 l 1
 192 891 l 1
 497 891 l 1
 497 781 l 1
345 710 m 0
 541 710 658 578 658 347 c 0
 658 120 541 -17 345 -17 c 0
 150 -17 33 116 33 347 c 0
 33 573 150 710 345 710 c 0
345 590 m 0
 253 590 205 522 205 347 c 0
 205 171 255 103 345 103 c 0
 439 103 486 171 486 347 c 0
 486 522 438 590 345 590 c 0
EndSplineSet
EndChar

StartChar: uni014D
Encoding: 333 333 240
Width: 584
Flags: W
LayerCount: 2
Fore
SplineSet
444 655 m 1
 139 655 l 1
 139 765 l 1
 444 765 l 1
 444 655 l 1
292 548 m 0
 454 548 552 444 552 265 c 0
 552 95 454 -17 292 -17 c 0
 131 -17 32 87 32 266 c 0
 32 436 130 548 292 548 c 0
292 432 m 0
 228 432 196 381 196 266 c 0
 196 148 228 99 292 99 c 0
 356 99 388 150 388 265 c 0
 388 383 356 432 292 432 c 0
EndSplineSet
EndChar

StartChar: uni0150
Encoding: 336 336 241
Width: 691
Flags: W
LayerCount: 2
Fore
SplineSet
308 956 m 1
 408 899 l 1
 282 740 l 1
 212 778 l 1
 308 956 l 1
479 947 m 1
 576 885 l 1
 441 733 l 1
 374 775 l 1
 479 947 l 1
345 710 m 0
 541 710 658 578 658 347 c 0
 658 120 541 -17 345 -17 c 0
 150 -17 33 116 33 347 c 0
 33 573 150 710 345 710 c 0
345 590 m 0
 253 590 205 522 205 347 c 0
 205 171 255 103 345 103 c 0
 439 103 486 171 486 347 c 0
 486 522 438 590 345 590 c 0
EndSplineSet
EndChar

StartChar: uni0151
Encoding: 337 337 242
Width: 584
Flags: W
LayerCount: 2
Fore
SplineSet
272 827 m 1
 372 770 l 1
 246 601 l 1
 176 639 l 1
 272 827 l 1
443 818 m 1
 540 756 l 1
 405 594 l 1
 338 636 l 1
 443 818 l 1
292 548 m 0
 454 548 552 444 552 265 c 0
 552 95 454 -17 292 -17 c 0
 131 -17 32 87 32 266 c 0
 32 436 130 548 292 548 c 0
292 432 m 0
 228 432 196 381 196 266 c 0
 196 148 228 99 292 99 c 0
 356 99 388 150 388 265 c 0
 388 383 356 432 292 432 c 0
EndSplineSet
EndChar

StartChar: uni0152
Encoding: 338 338 243
Width: 905
Flags: W
LayerCount: 2
Fore
SplineSet
635 295 m 1
 627 228 604 166 566 118 c 1
 869 118 l 1
 869 0 l 1
 424 0 l 1
 396 -11 363 -17 329 -17 c 0
 150 -17 33 116 33 347 c 0
 33 573 150 710 329 710 c 0
 365 710 399 704 428 693 c 1
 869 693 l 1
 852 576 l 1
 570 576 l 1
 605 530 626 473 634 410 c 1
 821 410 l 1
 821 295 l 1
 635 295 l 1
335 103 m 0
 419 103 466 171 466 347 c 0
 466 522 418 590 335 590 c 0
 253 590 205 522 205 347 c 0
 205 171 255 103 335 103 c 0
EndSplineSet
EndChar

StartChar: uni0153
Encoding: 339 339 244
Width: 909
Flags: W
LayerCount: 2
Fore
SplineSet
880 276 m 0
 880 259 879 235 877 219 c 1
 548 219 l 1
 558 124 603 98 669 98 c 0
 712 98 750 113 796 145 c 1
 861 57 l 1
 808 15 740 -17 654 -17 c 0
 570 -17 511 13 469 65 c 1
 426 12 368 -17 291 -17 c 0
 130 -17 32 87 32 266 c 0
 32 435 130 548 292 548 c 0
 367 548 426 519 469 469 c 1
 509 518 564 548 637 548 c 0
 787 548 880 448 880 276 c 0
724 314 m 1
 724 321 l 2
 724 393 701 443 640 443 c 0
 586 443 555 409 548 314 c 1
 724 314 l 1
291 99 m 0
 355 99 387 149 387 266 c 0
 387 381 355 432 292 432 c 0
 228 432 196 381 196 266 c 0
 196 148 228 99 291 99 c 0
EndSplineSet
EndChar

StartChar: uni0154
Encoding: 340 340 245
Width: 617
Flags: W
LayerCount: 2
Fore
SplineSet
441 838 m 1
 201 751 l 1
 161 831 l 1
 382 956 l 1
 441 838 l 1
435 0 m 1
 293 265 l 1
 229 265 l 1
 229 0 l 1
 65 0 l 1
 65 693 l 1
 292 693 l 2
 480 693 577 626 577 482 c 0
 577 391 534 336 444 295 c 1
 620 0 l 1
 435 0 l 1
229 578 m 1
 229 378 l 1
 298 378 l 2
 370 378 408 409 408 482 c 0
 408 549 369 578 288 578 c 2
 229 578 l 1
EndSplineSet
EndChar

StartChar: uni0155
Encoding: 341 341 246
Width: 400
Flags: W
LayerCount: 2
Fore
SplineSet
366 717 m 1
 130 622 l 1
 86 703 l 1
 304 835 l 1
 366 717 l 1
349 546 m 0
 369 546 384 544 402 539 c 1
 377 386 l 1
 360 390 346 393 329 393 c 0
 264 393 237 346 219 267 c 1
 219 0 l 1
 61 0 l 1
 61 531 l 1
 198 531 l 1
 212 428 l 1
 236 502 288 546 349 546 c 0
EndSplineSet
EndChar

StartChar: uni0156
Encoding: 342 342 247
Width: 617
Flags: W
LayerCount: 2
Fore
SplineSet
444 295 m 1
 620 0 l 1
 435 0 l 1
 293 265 l 1
 229 265 l 1
 229 0 l 1
 65 0 l 1
 65 693 l 1
 292 693 l 2
 480 693 577 626 577 482 c 0
 577 391 534 336 444 295 c 1
229 578 m 1
 229 378 l 1
 298 378 l 2
 370 378 408 409 408 482 c 0
 408 549 369 578 288 578 c 2
 229 578 l 1
312 -68 m 0
 358 -68 391 -101 391 -145 c 0
 391 -171 383 -191 364 -229 c 2
 318 -325 l 1
 239 -325 l 1
 266 -210 l 1
 247 -195 233 -174 233 -145 c 0
 233 -103 266 -68 312 -68 c 0
EndSplineSet
EndChar

StartChar: uni0157
Encoding: 343 343 248
Width: 400
Flags: W
LayerCount: 2
Fore
SplineSet
349 546 m 0
 369 546 384 544 402 539 c 1
 377 386 l 1
 360 390 346 393 329 393 c 0
 264 393 237 346 219 267 c 1
 219 0 l 1
 61 0 l 1
 61 531 l 1
 198 531 l 1
 212 428 l 1
 236 502 288 546 349 546 c 0
141 -68 m 0
 187 -68 220 -101 220 -145 c 0
 220 -171 212 -191 193 -229 c 2
 147 -325 l 1
 68 -325 l 1
 95 -210 l 1
 76 -195 62 -174 62 -145 c 0
 62 -103 95 -68 141 -68 c 0
EndSplineSet
EndChar

StartChar: uni0158
Encoding: 344 344 249
Width: 617
Flags: W
LayerCount: 2
Fore
SplineSet
349 750 m 1
 253 750 l 1
 111 879 l 1
 168 944 l 1
 301 860 l 1
 434 944 l 1
 490 879 l 1
 349 750 l 1
435 0 m 1
 293 265 l 1
 229 265 l 1
 229 0 l 1
 65 0 l 1
 65 693 l 1
 292 693 l 2
 480 693 577 626 577 482 c 0
 577 391 534 336 444 295 c 1
 620 0 l 1
 435 0 l 1
229 578 m 1
 229 378 l 1
 298 378 l 2
 370 378 408 409 408 482 c 0
 408 549 369 578 288 578 c 2
 229 578 l 1
EndSplineSet
EndChar

StartChar: uni0159
Encoding: 345 345 250
Width: 400
Flags: W
LayerCount: 2
Fore
SplineSet
281 611 m 1
 185 611 l 1
 43 748 l 1
 100 813 l 1
 233 722 l 1
 366 813 l 1
 422 748 l 1
 281 611 l 1
212 428 m 1
 236 502 288 546 349 546 c 0
 369 546 384 544 402 539 c 1
 377 386 l 1
 360 390 346 393 329 393 c 0
 264 393 237 346 219 267 c 1
 219 0 l 1
 61 0 l 1
 61 531 l 1
 198 531 l 1
 212 428 l 1
EndSplineSet
EndChar

StartChar: uni015A
Encoding: 346 346 251
Width: 572
Flags: W
LayerCount: 2
Fore
SplineSet
376 956 m 1
 435 838 l 1
 195 751 l 1
 155 831 l 1
 376 956 l 1
288 710 m 0
 394 710 467 679 528 621 c 1
 452 532 l 1
 404 571 356 590 300 590 c 0
 243 590 207 566 207 522 c 0
 207 478 233 460 341 426 c 0
 472 384 547 330 547 202 c 0
 547 73 445 -17 272 -17 c 0
 152 -17 66 27 9 82 c 1
 92 173 l 1
 143 130 198 105 267 105 c 0
 335 105 377 137 377 190 c 0
 377 241 351 264 250 295 c 0
 95 343 38 407 38 510 c 0
 38 632 144 710 288 710 c 0
EndSplineSet
EndChar

StartChar: uni015B
Encoding: 347 347 252
Width: 480
Flags: W
LayerCount: 2
Fore
SplineSet
321 835 m 1
 383 717 l 1
 147 622 l 1
 103 703 l 1
 321 835 l 1
249 548 m 0
 326 548 395 523 444 483 c 1
 386 394 l 1
 345 420 301 435 255 435 c 0
 212 435 191 419 191 395 c 0
 191 367 205 355 300 327 c 0
 405 297 464 253 464 158 c 0
 464 48 360 -17 228 -17 c 0
 136 -17 58 15 6 62 c 1
 83 148 l 1
 123 117 172 96 224 96 c 0
 272 96 301 114 301 146 c 0
 301 182 285 193 189 220 c 0
 84 250 32 304 32 386 c 0
 32 477 115 548 249 548 c 0
EndSplineSet
EndChar

StartChar: uni015E
Encoding: 350 350 253
Width: 572
Flags: W
LayerCount: 2
Fore
SplineSet
547 202 m 0
 547 87 466 3 325 -14 c 1
 325 -48 l 1
 397 -56 429 -93 429 -147 c 0
 429 -215 371 -262 280 -262 c 0
 233 -262 193 -249 168 -232 c 1
 204 -159 l 1
 224 -169 243 -176 268 -176 c 0
 296 -176 315 -168 315 -146 c 0
 315 -122 287 -112 223 -112 c 1
 234 -16 l 1
 134 -7 60 33 9 82 c 1
 92 173 l 1
 143 130 198 105 267 105 c 0
 335 105 377 137 377 190 c 0
 377 241 351 264 250 295 c 0
 95 343 38 407 38 510 c 0
 38 632 144 710 288 710 c 0
 394 710 467 679 528 621 c 1
 452 532 l 1
 404 571 356 590 300 590 c 0
 243 590 207 566 207 522 c 0
 207 478 233 460 341 426 c 0
 472 384 547 330 547 202 c 0
EndSplineSet
EndChar

StartChar: uni015F
Encoding: 351 351 254
Width: 480
Flags: W
LayerCount: 2
Fore
SplineSet
464 158 m 0
 464 64 389 3 285 -13 c 1
 285 -48 l 1
 357 -56 389 -93 389 -147 c 0
 389 -215 331 -262 240 -262 c 0
 193 -262 153 -249 128 -232 c 1
 164 -159 l 1
 184 -169 203 -176 228 -176 c 0
 256 -176 275 -168 275 -146 c 0
 275 -122 247 -112 183 -112 c 1
 194 -16 l 1
 117 -9 52 21 6 62 c 1
 83 148 l 1
 123 117 172 96 224 96 c 0
 272 96 301 114 301 146 c 0
 301 182 285 193 189 220 c 0
 84 250 32 304 32 386 c 0
 32 477 115 548 249 548 c 0
 326 548 395 523 444 483 c 1
 386 394 l 1
 345 420 301 435 255 435 c 0
 212 435 191 419 191 395 c 0
 191 367 205 355 300 327 c 0
 405 297 464 253 464 158 c 0
EndSplineSet
EndChar

StartChar: uni0160
Encoding: 352 352 255
Width: 572
Flags: W
LayerCount: 2
Fore
SplineSet
429 944 m 1
 485 879 l 1
 344 750 l 1
 248 750 l 1
 106 879 l 1
 163 944 l 1
 296 860 l 1
 429 944 l 1
288 710 m 0
 394 710 467 679 528 621 c 1
 452 532 l 1
 404 571 356 590 300 590 c 0
 243 590 207 566 207 522 c 0
 207 478 233 460 341 426 c 0
 472 384 547 330 547 202 c 0
 547 73 445 -17 272 -17 c 0
 152 -17 66 27 9 82 c 1
 92 173 l 1
 143 130 198 105 267 105 c 0
 335 105 377 137 377 190 c 0
 377 241 351 264 250 295 c 0
 95 343 38 407 38 510 c 0
 38 632 144 710 288 710 c 0
EndSplineSet
EndChar

StartChar: uni0161
Encoding: 353 353 256
Width: 480
Flags: W
LayerCount: 2
Fore
SplineSet
382 813 m 1
 438 748 l 1
 297 611 l 1
 201 611 l 1
 59 748 l 1
 116 813 l 1
 249 722 l 1
 382 813 l 1
249 548 m 0
 326 548 395 523 444 483 c 1
 386 394 l 1
 345 420 301 435 255 435 c 0
 212 435 191 419 191 395 c 0
 191 367 205 355 300 327 c 0
 405 297 464 253 464 158 c 0
 464 48 360 -17 228 -17 c 0
 136 -17 58 15 6 62 c 1
 83 148 l 1
 123 117 172 96 224 96 c 0
 272 96 301 114 301 146 c 0
 301 182 285 193 189 220 c 0
 84 250 32 304 32 386 c 0
 32 477 115 548 249 548 c 0
EndSplineSet
EndChar

StartChar: uni0162
Encoding: 354 354 257
Width: 540
Flags: W
LayerCount: 2
Fore
SplineSet
352 -48 m 1
 423 -56 457 -93 457 -147 c 0
 457 -215 398 -262 307 -262 c 0
 261 -262 220 -248 196 -232 c 1
 232 -159 l 1
 252 -169 270 -176 293 -176 c 0
 323 -176 343 -168 343 -145 c 0
 343 -122 315 -112 251 -112 c 1
 264 0 l 1
 188 0 l 1
 188 567 l 1
 9 567 l 1
 9 693 l 1
 539 693 l 1
 523 567 l 1
 352 567 l 1
 352 -48 l 1
EndSplineSet
EndChar

StartChar: uni0163
Encoding: 355 355 258
Width: 386
Flags: W
LayerCount: 2
Fore
SplineSet
277 -48 m 1
 349 -56 381 -93 381 -147 c 0
 381 -215 323 -262 232 -262 c 0
 185 -262 145 -249 120 -232 c 1
 156 -159 l 1
 176 -169 195 -176 220 -176 c 0
 248 -176 267 -168 267 -146 c 0
 267 -122 239 -112 175 -112 c 1
 187 -8 l 1
 113 13 77 75 77 175 c 2
 77 421 l 1
 2 421 l 1
 2 531 l 1
 77 531 l 1
 77 646 l 1
 235 664 l 1
 235 531 l 1
 357 531 l 1
 340 421 l 1
 235 421 l 1
 235 177 l 2
 235 126 252 108 285 108 c 0
 303 108 321 113 342 125 c 1
 395 25 l 1
 362 2 318 -12 277 -16 c 1
 277 -48 l 1
EndSplineSet
EndChar

StartChar: uni0164
Encoding: 356 356 259
Width: 540
Flags: W
LayerCount: 2
Fore
SplineSet
404 944 m 1
 460 879 l 1
 319 750 l 1
 223 750 l 1
 81 879 l 1
 138 944 l 1
 271 860 l 1
 404 944 l 1
539 693 m 1
 523 567 l 1
 352 567 l 1
 352 0 l 1
 188 0 l 1
 188 567 l 1
 9 567 l 1
 9 693 l 1
 539 693 l 1
EndSplineSet
EndChar

StartChar: uni0165
Encoding: 357 357 260
Width: 386
Flags: W
LayerCount: 2
Fore
SplineSet
400 779 m 1
 345 564 l 1
 257 577 l 1
 280 796 l 1
 400 779 l 1
285 108 m 0
 303 108 321 113 342 125 c 1
 395 25 l 1
 355 -3 299 -17 251 -17 c 0
 134 -16 77 50 77 175 c 2
 77 421 l 1
 2 421 l 1
 2 531 l 1
 77 531 l 1
 77 646 l 1
 235 664 l 1
 235 531 l 1
 357 531 l 1
 340 421 l 1
 235 421 l 1
 235 177 l 2
 235 126 252 108 285 108 c 0
EndSplineSet
EndChar

StartChar: uni016A
Encoding: 362 362 261
Width: 651
Flags: W
LayerCount: 2
Fore
SplineSet
477 781 m 1
 172 781 l 1
 172 891 l 1
 477 891 l 1
 477 781 l 1
596 693 m 1
 596 230 l 2
 596 90 506 -17 325 -17 c 0
 144 -17 55 84 55 230 c 2
 55 693 l 1
 219 693 l 1
 219 237 l 2
 219 148 251 105 325 105 c 0
 400 105 432 148 432 237 c 2
 432 693 l 1
 596 693 l 1
EndSplineSet
EndChar

StartChar: uni016B
Encoding: 363 363 262
Width: 568
Flags: W
LayerCount: 2
Fore
SplineSet
433 655 m 1
 128 655 l 1
 128 765 l 1
 433 765 l 1
 433 655 l 1
507 531 m 1
 507 0 l 1
 370 0 l 1
 363 67 l 1
 325 11 273 -17 202 -17 c 0
 103 -17 54 47 54 150 c 2
 54 531 l 1
 212 531 l 1
 212 170 l 2
 212 116 230 100 263 100 c 0
 296 100 326 122 349 162 c 1
 349 531 l 1
 507 531 l 1
EndSplineSet
EndChar

StartChar: uni016E
Encoding: 366 366 263
Width: 651
Flags: W
LayerCount: 2
Fore
SplineSet
325 993 m 0
 411 993 464 933 464 862 c 0
 464 791 411 731 325 731 c 0
 239 731 186 791 186 862 c 0
 186 933 239 993 325 993 c 0
325 912 m 0
 298 912 280 895 280 862 c 0
 280 829 298 812 325 812 c 0
 351 812 370 829 370 862 c 0
 370 895 352 912 325 912 c 0
596 693 m 1
 596 230 l 2
 596 90 506 -17 325 -17 c 0
 144 -17 55 84 55 230 c 2
 55 693 l 1
 219 693 l 1
 219 237 l 2
 219 148 251 105 325 105 c 0
 400 105 432 148 432 237 c 2
 432 693 l 1
 596 693 l 1
EndSplineSet
EndChar

StartChar: uni016F
Encoding: 367 367 264
Width: 568
Flags: W
LayerCount: 2
Fore
SplineSet
281 867 m 0
 367 867 420 807 420 736 c 0
 420 665 367 605 281 605 c 0
 195 605 142 665 142 736 c 0
 142 807 195 867 281 867 c 0
281 786 m 0
 254 786 236 769 236 736 c 0
 236 703 254 686 281 686 c 0
 307 686 326 703 326 736 c 0
 326 769 308 786 281 786 c 0
507 531 m 1
 507 0 l 1
 370 0 l 1
 363 67 l 1
 325 11 273 -17 202 -17 c 0
 103 -17 54 47 54 150 c 2
 54 531 l 1
 212 531 l 1
 212 170 l 2
 212 116 230 100 263 100 c 0
 296 100 326 122 349 162 c 1
 349 531 l 1
 507 531 l 1
EndSplineSet
EndChar

StartChar: uni0170
Encoding: 368 368 265
Width: 651
Flags: W
LayerCount: 2
Fore
SplineSet
288 956 m 1
 388 899 l 1
 262 740 l 1
 192 778 l 1
 288 956 l 1
459 947 m 1
 556 885 l 1
 421 733 l 1
 354 775 l 1
 459 947 l 1
596 693 m 1
 596 230 l 2
 596 90 506 -17 325 -17 c 0
 144 -17 55 84 55 230 c 2
 55 693 l 1
 219 693 l 1
 219 237 l 2
 219 148 251 105 325 105 c 0
 400 105 432 148 432 237 c 2
 432 693 l 1
 596 693 l 1
EndSplineSet
EndChar

StartChar: uni0171
Encoding: 369 369 266
Width: 568
Flags: W
LayerCount: 2
Fore
SplineSet
261 827 m 1
 361 770 l 1
 235 601 l 1
 165 639 l 1
 261 827 l 1
432 818 m 1
 529 756 l 1
 394 594 l 1
 327 636 l 1
 432 818 l 1
507 531 m 1
 507 0 l 1
 370 0 l 1
 363 67 l 1
 325 11 273 -17 202 -17 c 0
 103 -17 54 47 54 150 c 2
 54 531 l 1
 212 531 l 1
 212 170 l 2
 212 116 230 100 263 100 c 0
 296 100 326 122 349 162 c 1
 349 531 l 1
 507 531 l 1
EndSplineSet
EndChar

StartChar: uni0172
Encoding: 370 370 267
Width: 651
Flags: W
LayerCount: 2
Fore
SplineSet
432 693 m 1
 596 693 l 1
 596 230 l 2
 596 122 543 34 436 -1 c 1
 340 -37 320 -74 320 -102 c 0
 320 -132 337 -148 373 -148 c 0
 393 -148 411 -145 434 -140 c 1
 423 -238 l 1
 402 -243 380 -246 353 -246 c 0
 268 -246 206 -201 206 -129 c 0
 206 -77 239 -40 290 -16 c 1
 132 -3 55 94 55 230 c 2
 55 693 l 1
 219 693 l 1
 219 237 l 2
 219 148 251 105 325 105 c 0
 400 105 432 148 432 237 c 2
 432 693 l 1
EndSplineSet
EndChar

StartChar: uni0173
Encoding: 371 371 268
Width: 568
Flags: W
LayerCount: 2
Fore
SplineSet
390 -102 m 0
 390 -132 407 -148 443 -148 c 0
 462 -148 481 -145 504 -140 c 1
 493 -238 l 1
 471 -243 449 -246 423 -246 c 0
 338 -246 276 -201 276 -129 c 0
 276 -69 311 -26 369 7 c 1
 363 67 l 1
 325 11 273 -17 202 -17 c 0
 103 -17 54 47 54 150 c 2
 54 531 l 1
 212 531 l 1
 212 170 l 2
 212 116 230 100 263 100 c 0
 296 100 326 122 349 162 c 1
 349 531 l 1
 507 531 l 1
 507 2 l 1
 508 0 l 1
 409 -37 390 -74 390 -102 c 0
EndSplineSet
EndChar

StartChar: uni0178
Encoding: 376 376 269
Width: 594
Flags: W
LayerCount: 2
Fore
SplineSet
179 925 m 0
 225 925 260 890 260 846 c 0
 260 802 225 767 179 767 c 0
 134 767 98 802 98 846 c 0
 98 890 134 925 179 925 c 0
410 925 m 0
 457 925 491 890 491 846 c 0
 491 802 457 767 410 767 c 0
 366 767 330 802 330 846 c 0
 330 890 366 925 410 925 c 0
601 693 m 1
 379 260 l 1
 379 0 l 1
 215 0 l 1
 215 259 l 1
 -7 693 l 1
 172 693 l 1
 300 388 l 1
 428 693 l 1
 601 693 l 1
EndSplineSet
EndChar

StartChar: uni0179
Encoding: 377 377 270
Width: 544
Flags: W
LayerCount: 2
Fore
SplineSet
357 956 m 1
 416 838 l 1
 176 751 l 1
 136 831 l 1
 357 956 l 1
512 693 m 1
 512 569 l 1
 211 131 l 1
 517 131 l 1
 501 0 l 1
 18 0 l 1
 18 123 l 1
 325 566 l 1
 49 566 l 1
 49 693 l 1
 512 693 l 1
EndSplineSet
EndChar

StartChar: uni017A
Encoding: 378 378 271
Width: 454
Flags: W
LayerCount: 2
Fore
SplineSet
305 835 m 1
 367 717 l 1
 131 622 l 1
 87 703 l 1
 305 835 l 1
436 531 m 1
 436 420 l 1
 196 120 l 1
 441 120 l 1
 427 0 l 1
 13 0 l 1
 13 112 l 1
 254 412 l 1
 34 412 l 1
 34 531 l 1
 436 531 l 1
EndSplineSet
EndChar

StartChar: uni017B
Encoding: 379 379 272
Width: 544
Flags: W
LayerCount: 2
Fore
SplineSet
276 937 m 0
 331 937 370 898 370 847 c 0
 370 796 331 757 276 757 c 0
 221 757 183 796 183 847 c 0
 183 898 221 937 276 937 c 0
512 693 m 1
 512 569 l 1
 211 131 l 1
 517 131 l 1
 501 0 l 1
 18 0 l 1
 18 123 l 1
 325 566 l 1
 49 566 l 1
 49 693 l 1
 512 693 l 1
EndSplineSet
EndChar

StartChar: uni017C
Encoding: 380 380 273
Width: 454
Flags: W
LayerCount: 2
Fore
SplineSet
232 811 m 0
 287 811 326 772 326 721 c 0
 326 670 287 631 232 631 c 0
 177 631 139 670 139 721 c 0
 139 772 177 811 232 811 c 0
436 531 m 1
 436 420 l 1
 196 120 l 1
 441 120 l 1
 427 0 l 1
 13 0 l 1
 13 112 l 1
 254 412 l 1
 34 412 l 1
 34 531 l 1
 436 531 l 1
EndSplineSet
EndChar

StartChar: uni017D
Encoding: 381 381 274
Width: 544
Flags: W
LayerCount: 2
Fore
SplineSet
410 944 m 1
 466 879 l 1
 325 750 l 1
 229 750 l 1
 87 879 l 1
 144 944 l 1
 277 860 l 1
 410 944 l 1
512 693 m 1
 512 569 l 1
 211 131 l 1
 517 131 l 1
 501 0 l 1
 18 0 l 1
 18 123 l 1
 325 566 l 1
 49 566 l 1
 49 693 l 1
 512 693 l 1
EndSplineSet
EndChar

StartChar: uni017E
Encoding: 382 382 275
Width: 454
Flags: W
LayerCount: 2
Fore
SplineSet
366 813 m 1
 422 748 l 1
 281 611 l 1
 185 611 l 1
 43 748 l 1
 100 813 l 1
 233 722 l 1
 366 813 l 1
436 531 m 1
 436 420 l 1
 196 120 l 1
 441 120 l 1
 427 0 l 1
 13 0 l 1
 13 112 l 1
 254 412 l 1
 34 412 l 1
 34 531 l 1
 436 531 l 1
EndSplineSet
EndChar

StartChar: uni0192
Encoding: 402 402 276
Width: 372
Flags: W
LayerCount: 2
Fore
SplineSet
316 642 m 0
 262 642 246 622 246 572 c 2
 246 531 l 1
 372 531 l 1
 354 421 l 1
 246 421 l 1
 246 60 l 2
 246 -113 157 -176 33 -221 c 1
 -20 -106 l 1
 48 -75 88 -47 88 50 c 2
 88 421 l 1
 7 421 l 1
 7 531 l 1
 88 531 l 1
 88 578 l 2
 88 680 156 759 291 759 c 0
 352 759 404 745 446 725 c 1
 403 622 l 1
 369 637 342 642 316 642 c 0
EndSplineSet
EndChar

StartChar: uni0218
Encoding: 536 536 277
Width: 572
Flags: W
LayerCount: 2
Fore
SplineSet
288 710 m 0
 394 710 467 679 528 621 c 1
 452 532 l 1
 404 571 356 590 300 590 c 0
 243 590 207 566 207 522 c 0
 207 478 233 460 341 426 c 0
 472 384 547 330 547 202 c 0
 547 73 445 -17 272 -17 c 0
 152 -17 66 27 9 82 c 1
 92 173 l 1
 143 130 198 105 267 105 c 0
 335 105 377 137 377 190 c 0
 377 241 351 264 250 295 c 0
 95 343 38 407 38 510 c 0
 38 632 144 710 288 710 c 0
284 -68 m 0
 330 -68 363 -101 363 -145 c 0
 363 -171 355 -191 336 -229 c 2
 290 -325 l 1
 211 -325 l 1
 238 -210 l 1
 219 -195 205 -174 205 -145 c 0
 205 -103 238 -68 284 -68 c 0
EndSplineSet
EndChar

StartChar: uni0219
Encoding: 537 537 278
Width: 480
Flags: W
LayerCount: 2
Fore
SplineSet
249 548 m 0
 326 548 395 523 444 483 c 1
 386 394 l 1
 345 420 301 435 255 435 c 0
 212 435 191 419 191 395 c 0
 191 367 205 355 300 327 c 0
 405 297 464 253 464 158 c 0
 464 48 360 -17 228 -17 c 0
 136 -17 58 15 6 62 c 1
 83 148 l 1
 123 117 172 96 224 96 c 0
 272 96 301 114 301 146 c 0
 301 182 285 193 189 220 c 0
 84 250 32 304 32 386 c 0
 32 477 115 548 249 548 c 0
243 -68 m 0
 289 -68 322 -101 322 -145 c 0
 322 -171 314 -191 295 -229 c 2
 249 -325 l 1
 170 -325 l 1
 197 -210 l 1
 178 -195 164 -174 164 -145 c 0
 164 -103 197 -68 243 -68 c 0
EndSplineSet
EndChar

StartChar: uni021A
Encoding: 538 538 279
Width: 540
Flags: W
LayerCount: 2
Fore
SplineSet
539 693 m 1
 523 567 l 1
 352 567 l 1
 352 0 l 1
 188 0 l 1
 188 567 l 1
 9 567 l 1
 9 693 l 1
 539 693 l 1
271 -68 m 0
 317 -68 350 -101 350 -145 c 0
 350 -171 342 -191 323 -229 c 2
 277 -325 l 1
 198 -325 l 1
 225 -210 l 1
 206 -195 192 -174 192 -145 c 0
 192 -103 225 -68 271 -68 c 0
EndSplineSet
EndChar

StartChar: uni021B
Encoding: 539 539 280
Width: 386
Flags: W
LayerCount: 2
Fore
SplineSet
395 25 m 1
 355 -3 299 -17 251 -17 c 0
 134 -16 77 50 77 175 c 2
 77 421 l 1
 2 421 l 1
 2 531 l 1
 77 531 l 1
 77 646 l 1
 235 664 l 1
 235 531 l 1
 357 531 l 1
 340 421 l 1
 235 421 l 1
 235 177 l 2
 235 126 252 108 285 108 c 0
 303 108 321 113 342 125 c 1
 395 25 l 1
235 -68 m 0
 281 -68 314 -101 314 -145 c 0
 314 -171 306 -191 287 -229 c 2
 241 -325 l 1
 162 -325 l 1
 189 -210 l 1
 170 -195 156 -174 156 -145 c 0
 156 -103 189 -68 235 -68 c 0
EndSplineSet
EndChar

StartChar: uni0237
Encoding: 567 567 281
Width: 280
Flags: W
LayerCount: 2
Fore
SplineSet
219 531 m 1
 219 60 l 2
 219 -113 130 -176 6 -221 c 1
 -47 -106 l 1
 21 -75 61 -47 61 50 c 2
 61 531 l 1
 219 531 l 1
EndSplineSet
EndChar

StartChar: uni0300
Encoding: 768 768 282
Width: 0
Flags: W
LayerCount: 2
Fore
SplineSet
-248 835 m 1
 -30 703 l 1
 -74 622 l 1
 -310 717 l 1
 -248 835 l 1
EndSplineSet
EndChar

StartChar: uni0301
Encoding: 769 769 283
Width: 0
Flags: W
LayerCount: 2
Fore
SplineSet
-92 835 m 1
 -30 717 l 1
 -266 622 l 1
 -310 703 l 1
 -92 835 l 1
EndSplineSet
EndChar

StartChar: uni0302
Encoding: 770 770 284
Width: 0
Flags: W
LayerCount: 2
Fore
SplineSet
-353 620 m 1
 -409 685 l 1
 -268 822 l 1
 -171 822 l 1
 -30 685 l 1
 -86 620 l 1
 -219 712 l 1
 -353 620 l 1
EndSplineSet
EndChar

StartChar: uni0303
Encoding: 771 771 285
Width: 0
Flags: W
LayerCount: 2
Fore
SplineSet
-160 635 m 0
 -188 635 -207 643 -227 658 c 0
 -245 671 -257 680 -274 680 c 0
 -298 680 -311 664 -327 636 c 1
 -406 674 l 1
 -381 738 -337 792 -277 792 c 0
 -246 792 -228 782 -207 768 c 0
 -189 755 -177 747 -161 747 c 0
 -139 747 -125 762 -109 791 c 1
 -30 752 l 1
 -56 685 -101 635 -160 635 c 0
EndSplineSet
EndChar

StartChar: uni0304
Encoding: 772 772 286
Width: 0
Flags: W
LayerCount: 2
Fore
SplineSet
-30 655 m 1
 -335 655 l 1
 -335 765 l 1
 -30 765 l 1
 -30 655 l 1
EndSplineSet
EndChar

StartChar: uni0305
Encoding: 773 773 287
Width: 0
Flags: W
LayerCount: 2
Fore
SplineSet
-30 656 m 1
 -487 656 l 1
 -487 736 l 1
 -30 736 l 1
 -30 656 l 1
EndSplineSet
EndChar

StartChar: uni0306
Encoding: 774 774 288
Width: 0
Flags: W
LayerCount: 2
Fore
SplineSet
-203 632 m 0
 -308 632 -367 709 -375 805 c 1
 -288 820 l 1
 -276 772 -249 742 -203 742 c 0
 -157 742 -130 772 -117 820 c 1
 -30 805 l 1
 -38 709 -98 632 -203 632 c 0
EndSplineSet
EndChar

StartChar: uni0307
Encoding: 775 775 289
Width: 0
Flags: W
LayerCount: 2
Fore
SplineSet
-124 811 m 0
 -69 811 -30 772 -30 721 c 0
 -30 670 -69 631 -124 631 c 0
 -179 631 -217 670 -217 721 c 0
 -217 772 -179 811 -124 811 c 0
EndSplineSet
EndChar

StartChar: uni0308
Encoding: 776 776 290
Width: 0
Flags: W
LayerCount: 2
Fore
SplineSet
-342 799 m 0
 -296 799 -261 764 -261 720 c 0
 -261 676 -296 641 -342 641 c 0
 -387 641 -423 676 -423 720 c 0
 -423 764 -387 799 -342 799 c 0
-111 799 m 0
 -64 799 -30 764 -30 720 c 0
 -30 676 -64 641 -111 641 c 0
 -155 641 -191 676 -191 720 c 0
 -191 764 -155 799 -111 799 c 0
EndSplineSet
EndChar

StartChar: uni0309
Encoding: 777 777 291
Width: 0
Flags: W
LayerCount: 2
Fore
SplineSet
-202 605 m 1
 -202 704 l 1
 -153 707 -131 716 -131 742 c 0
 -131 763 -147 773 -171 773 c 0
 -194 773 -211 768 -231 760 c 1
 -257 826 l 1
 -229 842 -195 852 -148 852 c 0
 -67 852 -24 810 -24 751 c 0
 -24 699 -54 667 -108 657 c 1
 -108 605 l 1
 -202 605 l 1
EndSplineSet
EndChar

StartChar: uni030A
Encoding: 778 778 292
Width: 0
Flags: W
LayerCount: 2
Fore
SplineSet
-169 867 m 0
 -83 867 -30 807 -30 736 c 0
 -30 665 -83 605 -169 605 c 0
 -255 605 -308 665 -308 736 c 0
 -308 807 -255 867 -169 867 c 0
-169 786 m 0
 -196 786 -214 769 -214 736 c 0
 -214 703 -196 686 -169 686 c 0
 -143 686 -124 703 -124 736 c 0
 -124 769 -142 786 -169 786 c 0
EndSplineSet
EndChar

StartChar: uni030B
Encoding: 779 779 293
Width: 0
Flags: W
LayerCount: 2
Fore
SplineSet
-298 827 m 1
 -198 770 l 1
 -324 601 l 1
 -394 639 l 1
 -298 827 l 1
-127 818 m 1
 -30 756 l 1
 -165 594 l 1
 -232 636 l 1
 -127 818 l 1
EndSplineSet
EndChar

StartChar: uni030C
Encoding: 780 780 294
Width: 0
Flags: W
LayerCount: 2
Fore
SplineSet
-86 813 m 1
 -30 748 l 1
 -171 611 l 1
 -267 611 l 1
 -409 748 l 1
 -352 813 l 1
 -219 722 l 1
 -86 813 l 1
EndSplineSet
EndChar

StartChar: uni030D
Encoding: 781 781 295
Width: 0
Flags: W
LayerCount: 2
Fore
SplineSet
-169 620 m 1
 -169 882 l 1
 -30 882 l 1
 -30 620 l 1
 -169 620 l 1
EndSplineSet
EndChar

StartChar: uni030F
Encoding: 783 783 296
Width: 0
Flags: W
LayerCount: 2
Fore
SplineSet
-294 860 m 1
 -197 663 l 1
 -278 625 l 1
 -400 807 l 1
 -294 860 l 1
-118 860 m 1
 -30 663 l 1
 -113 630 l 1
 -226 810 l 1
 -118 860 l 1
EndSplineSet
EndChar

StartChar: uni0311
Encoding: 785 785 297
Width: 0
Flags: W
LayerCount: 2
Fore
SplineSet
-203 789 m 0
 -98 789 -38 712 -30 617 c 1
 -117 602 l 1
 -130 650 -157 679 -203 679 c 0
 -249 679 -276 650 -288 602 c 1
 -375 617 l 1
 -367 712 -308 789 -203 789 c 0
EndSplineSet
EndChar

StartChar: uni0312
Encoding: 786 786 298
Width: 0
Flags: W
LayerCount: 2
Fore
SplineSet
-111 577 m 0
 -157 577 -190 610 -190 655 c 0
 -190 680 -182 700 -163 738 c 2
 -117 834 l 1
 -38 834 l 1
 -65 719 l 1
 -46 704 -32 683 -32 655 c 0
 -32 612 -66 577 -111 577 c 0
EndSplineSet
EndChar

StartChar: uni0313
Encoding: 787 787 299
Width: 0
Flags: W
LayerCount: 2
Fore
SplineSet
-109 840 m 0
 -63 840 -30 807 -30 762 c 0
 -30 736 -38 717 -57 678 c 2
 -103 583 l 1
 -182 583 l 1
 -155 698 l 1
 -174 713 -188 734 -188 762 c 0
 -188 805 -155 840 -109 840 c 0
EndSplineSet
EndChar

StartChar: uni0316
Encoding: 790 790 300
Width: 0
Flags: W
LayerCount: 2
Fore
SplineSet
-251 -41 m 1
 -30 -166 l 1
 -70 -246 l 1
 -310 -160 l 1
 -251 -41 l 1
EndSplineSet
EndChar

StartChar: uni0317
Encoding: 791 791 301
Width: 0
Flags: W
LayerCount: 2
Fore
SplineSet
-89 -41 m 1
 -30 -160 l 1
 -270 -246 l 1
 -310 -166 l 1
 -89 -41 l 1
EndSplineSet
EndChar

StartChar: uni0318
Encoding: 792 792 302
Width: 0
Flags: W
LayerCount: 2
Fore
SplineSet
-125 -58 m 1
 -30 -58 l 1
 -30 -354 l 1
 -125 -354 l 1
 -125 -249 l 1
 -246 -249 l 1
 -246 -164 l 1
 -125 -164 l 1
 -125 -58 l 1
EndSplineSet
EndChar

StartChar: uni0319
Encoding: 793 793 303
Width: 0
Flags: W
LayerCount: 2
Fore
SplineSet
-151 -58 m 1
 -151 -164 l 1
 -30 -164 l 1
 -30 -249 l 1
 -151 -249 l 1
 -151 -354 l 1
 -246 -354 l 1
 -246 -58 l 1
 -151 -58 l 1
EndSplineSet
EndChar

StartChar: uni031A
Encoding: 794 794 304
Width: 0
Flags: W
LayerCount: 2
Fore
SplineSet
-240 801 m 1
 -30 801 l 1
 -30 595 l 1
 -124 595 l 1
 -124 717 l 1
 -240 717 l 1
 -240 801 l 1
EndSplineSet
EndChar

StartChar: uni031B
Encoding: 795 795 305
Width: 0
Flags: W
LayerCount: 2
Fore
SplineSet
-179 395 m 1
 -189 471 l 1
 -152 475 -138 492 -138 527 c 0
 -138 556 -144 574 -151 594 c 1
 -49 609 l 1
 -39 590 -30 563 -30 521 c 0
 -30 437 -87 396 -179 395 c 1
EndSplineSet
EndChar

StartChar: uni031C
Encoding: 796 796 306
Width: 0
Flags: W
LayerCount: 2
Fore
SplineSet
-30 -314 m 1
 -30 -232 l 1
 -57 -232 -75 -216 -75 -182 c 0
 -75 -149 -59 -133 -30 -133 c 1
 -30 -52 l 1
 -116 -52 -169 -112 -169 -182 c 0
 -169 -253 -116 -314 -30 -314 c 1
EndSplineSet
EndChar

StartChar: uni031D
Encoding: 797 797 307
Width: 0
Flags: W
LayerCount: 2
Fore
SplineSet
-30 -235 m 1
 -30 -322 l 1
 -355 -322 l 1
 -355 -235 l 1
 -243 -235 l 1
 -243 -87 l 1
 -143 -87 l 1
 -143 -235 l 1
 -30 -235 l 1
EndSplineSet
EndChar

StartChar: uni031E
Encoding: 798 798 308
Width: 0
Flags: W
LayerCount: 2
Fore
SplineSet
-30 -174 m 1
 -143 -174 l 1
 -143 -322 l 1
 -243 -322 l 1
 -243 -174 l 1
 -355 -174 l 1
 -355 -87 l 1
 -30 -87 l 1
 -30 -174 l 1
EndSplineSet
EndChar

StartChar: uni031F
Encoding: 799 799 309
Width: 0
Flags: W
LayerCount: 2
Fore
SplineSet
-122 -78 m 1
 -122 -165 l 1
 -30 -165 l 1
 -30 -253 l 1
 -122 -253 l 1
 -122 -339 l 1
 -223 -339 l 1
 -223 -253 l 1
 -315 -253 l 1
 -315 -165 l 1
 -223 -165 l 1
 -223 -78 l 1
 -122 -78 l 1
EndSplineSet
EndChar

StartChar: uni0320
Encoding: 800 800 310
Width: 0
Flags: W
LayerCount: 2
Fore
SplineSet
-315 -253 m 1
 -315 -165 l 1
 -31 -165 l 1
 -31 -253 l 1
 -315 -253 l 1
EndSplineSet
EndChar

StartChar: uni0321
Encoding: 801 801 311
Width: 0
Flags: W
LayerCount: 2
Fore
SplineSet
-226 -222 m 0
 -292 -222 -336 -203 -368 -179 c 1
 -315 -87 l 1
 -291 -99 -274 -107 -244 -107 c 0
 -209 -107 -188 -87 -188 -46 c 2
 -188 1 l 1
 -30 1 l 1
 -30 -31 l 2
 -30 -158 -109 -222 -226 -222 c 0
EndSplineSet
EndChar

StartChar: uni0323
Encoding: 803 803 312
Width: 0
Flags: W
LayerCount: 2
Fore
SplineSet
-123 -239 m 0
 -179 -239 -217 -201 -217 -150 c 0
 -217 -99 -179 -60 -123 -60 c 0
 -69 -60 -30 -99 -30 -150 c 0
 -30 -201 -69 -239 -123 -239 c 0
EndSplineSet
EndChar

StartChar: uni0324
Encoding: 804 804 313
Width: 0
Flags: W
LayerCount: 2
Fore
SplineSet
-342 -69 m 0
 -296 -69 -261 -104 -261 -148 c 0
 -261 -193 -296 -227 -342 -227 c 0
 -387 -227 -423 -193 -423 -148 c 0
 -423 -104 -387 -69 -342 -69 c 0
-111 -69 m 0
 -64 -69 -30 -104 -30 -148 c 0
 -30 -193 -64 -227 -111 -227 c 0
 -155 -227 -191 -193 -191 -148 c 0
 -191 -104 -155 -69 -111 -69 c 0
EndSplineSet
EndChar

StartChar: uni0325
Encoding: 805 805 314
Width: 0
Flags: W
LayerCount: 2
Fore
SplineSet
-169 -52 m 0
 -83 -52 -30 -112 -30 -182 c 0
 -30 -253 -83 -314 -169 -314 c 0
 -255 -314 -308 -253 -308 -182 c 0
 -308 -112 -255 -52 -169 -52 c 0
-169 -133 m 0
 -196 -133 -214 -149 -214 -182 c 0
 -214 -216 -196 -232 -169 -232 c 0
 -143 -232 -124 -216 -124 -182 c 0
 -124 -149 -142 -133 -169 -133 c 0
EndSplineSet
EndChar

StartChar: uni0326
Encoding: 806 806 315
Width: 0
Flags: W
LayerCount: 2
Fore
SplineSet
-109 -68 m 0
 -63 -68 -30 -101 -30 -145 c 0
 -30 -171 -38 -191 -57 -229 c 2
 -103 -325 l 1
 -182 -325 l 1
 -155 -210 l 1
 -174 -195 -188 -174 -188 -145 c 0
 -188 -103 -155 -68 -109 -68 c 0
EndSplineSet
EndChar

StartChar: uni0327
Encoding: 807 807 316
Width: 0
Flags: W
LayerCount: 2
Fore
SplineSet
-134 16 m 1
 -134 -48 l 1
 -62 -56 -30 -93 -30 -147 c 0
 -30 -215 -88 -262 -179 -262 c 0
 -226 -262 -266 -249 -291 -232 c 1
 -255 -159 l 1
 -235 -169 -216 -176 -191 -176 c 0
 -163 -176 -144 -168 -144 -146 c 0
 -144 -122 -172 -112 -236 -112 c 1
 -221 16 l 1
 -134 16 l 1
EndSplineSet
EndChar

StartChar: uni0328
Encoding: 808 808 317
Width: 0
Flags: W
LayerCount: 2
Fore
SplineSet
-55 50 m 1
 -30 0 l 1
 -129 -37 -148 -74 -148 -102 c 0
 -148 -132 -131 -148 -95 -148 c 0
 -76 -148 -57 -145 -34 -140 c 1
 -45 -238 l 1
 -67 -243 -89 -246 -115 -246 c 0
 -200 -246 -262 -201 -262 -129 c 0
 -262 -36 -179 16 -55 50 c 1
EndSplineSet
EndChar

StartChar: uni0329
Encoding: 809 809 318
Width: 0
Flags: W
LayerCount: 2
Fore
SplineSet
-173 -329 m 1
 -173 -67 l 1
 -34 -67 l 1
 -34 -329 l 1
 -173 -329 l 1
EndSplineSet
EndChar

StartChar: uni032A
Encoding: 810 810 319
Width: 0
Flags: W
LayerCount: 2
Fore
SplineSet
-335 -252 m 1
 -335 -87 l 1
 -30 -87 l 1
 -30 -252 l 1
 -124 -252 l 1
 -124 -168 l 1
 -241 -168 l 1
 -241 -252 l 1
 -335 -252 l 1
EndSplineSet
EndChar

StartChar: uni032B
Encoding: 811 811 320
Width: 0
Flags: W
LayerCount: 2
Fore
SplineSet
-96 -55 m 1
 -30 -62 l 1
 -36 -155 -75 -226 -145 -226 c 0
 -190 -226 -222 -197 -241 -149 c 1
 -260 -197 -292 -226 -338 -226 c 0
 -408 -226 -447 -155 -452 -62 c 1
 -387 -55 l 1
 -380 -99 -365 -123 -335 -123 c 0
 -304 -123 -289 -99 -282 -55 c 1
 -201 -55 l 1
 -193 -99 -179 -123 -148 -123 c 0
 -118 -123 -103 -99 -96 -55 c 1
EndSplineSet
EndChar

StartChar: uni032C
Encoding: 812 812 321
Width: 0
Flags: W
LayerCount: 2
Fore
SplineSet
-86 -61 m 1
 -30 -126 l 1
 -171 -255 l 1
 -267 -255 l 1
 -409 -126 l 1
 -352 -61 l 1
 -219 -145 l 1
 -86 -61 l 1
EndSplineSet
EndChar

StartChar: uni032D
Encoding: 813 813 322
Width: 0
Flags: W
LayerCount: 2
Fore
SplineSet
-353 -265 m 1
 -409 -200 l 1
 -268 -63 l 1
 -171 -63 l 1
 -30 -200 l 1
 -86 -265 l 1
 -219 -173 l 1
 -353 -265 l 1
EndSplineSet
EndChar

StartChar: uni032F
Encoding: 815 815 323
Width: 0
Flags: W
LayerCount: 2
Fore
SplineSet
-203 -46 m 0
 -98 -46 -38 -123 -30 -218 c 1
 -117 -233 l 1
 -130 -185 -157 -155 -203 -155 c 0
 -249 -155 -276 -185 -288 -233 c 1
 -375 -218 l 1
 -367 -123 -308 -46 -203 -46 c 0
EndSplineSet
EndChar

StartChar: uni0330
Encoding: 816 816 324
Width: 0
Flags: W
LayerCount: 2
Fore
SplineSet
-160 -211 m 0
 -188 -211 -207 -203 -227 -189 c 0
 -245 -175 -257 -167 -274 -167 c 0
 -298 -167 -311 -182 -327 -211 c 1
 -406 -172 l 1
 -381 -108 -337 -54 -277 -54 c 0
 -246 -54 -228 -64 -207 -78 c 0
 -189 -91 -177 -99 -161 -99 c 0
 -139 -99 -125 -84 -109 -56 c 1
 -30 -94 l 1
 -56 -161 -101 -211 -160 -211 c 0
EndSplineSet
EndChar

StartChar: uni0331
Encoding: 817 817 325
Width: 0
Flags: W
LayerCount: 2
Fore
SplineSet
-30 -191 m 1
 -335 -191 l 1
 -335 -82 l 1
 -30 -82 l 1
 -30 -191 l 1
EndSplineSet
EndChar

StartChar: uni0332
Encoding: 818 818 326
Width: 0
Flags: W
LayerCount: 2
Fore
SplineSet
-31 -191 m 1
 -489 -191 l 1
 -489 -82 l 1
 -31 -82 l 1
 -31 -191 l 1
EndSplineSet
EndChar

StartChar: uni0334
Encoding: 820 820 327
Width: 0
Flags: W
LayerCount: 2
Fore
SplineSet
-190 232 m 0
 -279 232 -310 293 -359 293 c 0
 -395 293 -411 267 -429 241 c 1
 -512 283 l 1
 -482 345 -436 410 -351 410 c 0
 -263 410 -232 350 -182 350 c 0
 -148 350 -131 373 -113 398 c 1
 -30 357 l 1
 -61 295 -106 232 -190 232 c 0
EndSplineSet
EndChar

StartChar: uni0335
Encoding: 821 821 328
Width: 0
Flags: W
LayerCount: 2
Fore
SplineSet
-363 252 m 1
 -363 374 l 1
 -44 374 l 1
 -44 252 l 1
 -363 252 l 1
EndSplineSet
EndChar

StartChar: uni0336
Encoding: 822 822 329
Width: 0
Flags: W
LayerCount: 2
Fore
SplineSet
-783 252 m 1
 -783 374 l 1
 -30 374 l 1
 -30 252 l 1
 -783 252 l 1
EndSplineSet
EndChar

StartChar: uni0339
Encoding: 825 825 330
Width: 0
Flags: W
LayerCount: 2
Fore
SplineSet
-169 -313 m 1
 -83 -313 -30 -252 -30 -181 c 0
 -30 -111 -83 -51 -169 -51 c 1
 -169 -132 l 1
 -140 -132 -124 -148 -124 -181 c 0
 -124 -215 -142 -231 -169 -231 c 1
 -169 -313 l 1
EndSplineSet
EndChar

StartChar: uni033A
Encoding: 826 826 331
Width: 0
Flags: W
LayerCount: 2
Fore
SplineSet
-335 -87 m 1
 -241 -87 l 1
 -241 -170 l 1
 -124 -170 l 1
 -124 -87 l 1
 -30 -87 l 1
 -30 -251 l 1
 -335 -251 l 1
 -335 -87 l 1
EndSplineSet
EndChar

StartChar: uni033B
Encoding: 827 827 332
Width: 0
Flags: W
LayerCount: 2
Fore
SplineSet
-335 -251 m 1
 -335 -62 l 1
 -30 -62 l 1
 -30 -251 l 1
 -335 -251 l 1
-259 -188 m 1
 -106 -188 l 1
 -106 -125 l 1
 -259 -125 l 1
 -259 -188 l 1
EndSplineSet
EndChar

StartChar: uni033C
Encoding: 828 828 333
Width: 0
Flags: W
LayerCount: 2
Fore
SplineSet
-145 -56 m 0
 -75 -56 -36 -126 -30 -220 c 1
 -96 -227 l 1
 -103 -183 -118 -159 -148 -159 c 0
 -179 -159 -193 -183 -201 -227 c 1
 -282 -227 l 1
 -289 -183 -304 -159 -335 -159 c 0
 -365 -159 -380 -183 -387 -227 c 1
 -452 -220 l 1
 -447 -126 -408 -56 -338 -56 c 0
 -292 -56 -260 -85 -241 -132 c 1
 -222 -85 -190 -56 -145 -56 c 0
EndSplineSet
EndChar

StartChar: uni033D
Encoding: 829 829 334
Width: 0
Flags: W
LayerCount: 2
Fore
SplineSet
-125 728 m 1
 -30 600 l 1
 -120 600 l 1
 -176 689 l 1
 -231 600 l 1
 -318 600 l 1
 -223 726 l 1
 -308 838 l 1
 -219 838 l 1
 -173 763 l 1
 -129 838 l 1
 -44 838 l 1
 -125 728 l 1
EndSplineSet
EndChar

StartChar: uni0342
Encoding: 834 834 335
Width: 0
Flags: W
LayerCount: 2
Fore
SplineSet
-160 635 m 0
 -188 635 -207 643 -227 658 c 0
 -245 671 -257 680 -274 680 c 0
 -298 680 -311 664 -327 636 c 1
 -406 674 l 1
 -381 738 -337 792 -277 792 c 0
 -246 792 -228 782 -207 768 c 0
 -189 755 -177 747 -161 747 c 0
 -139 747 -125 762 -109 791 c 1
 -30 752 l 1
 -56 685 -101 635 -160 635 c 0
EndSplineSet
EndChar

StartChar: uni0345
Encoding: 837 837 336
Width: 0
Flags: W
LayerCount: 2
Fore
SplineSet
-142 -204 m 0
 -228 -204 -274 -150 -274 -76 c 2
 -274 -42 l 1
 -161 -42 l 1
 -161 -73 l 2
 -161 -99 -149 -114 -122 -114 c 0
 -102 -114 -88 -108 -71 -99 c 1
 -30 -166 l 1
 -56 -187 -90 -204 -142 -204 c 0
EndSplineSet
EndChar

StartChar: uni035C
Encoding: 860 860 337
Width: 0
Flags: W
LayerCount: 2
Fore
SplineSet
340 -98 m 1
 256 -165 151 -224 -1 -224 c 0
 -152 -224 -257 -165 -342 -98 c 1
 -292 -27 l 1
 -215 -68 -120 -99 -1 -99 c 0
 118 -99 212 -68 290 -27 c 1
 340 -98 l 1
EndSplineSet
EndChar

StartChar: uni0361
Encoding: 865 865 338
Width: 0
Flags: W
LayerCount: 2
Fore
SplineSet
340 687 m 1
 290 615 l 1
 212 656 118 687 -1 687 c 0
 -120 687 -215 656 -292 615 c 1
 -342 686 l 1
 -257 753 -152 813 -1 813 c 0
 151 813 256 753 340 687 c 1
EndSplineSet
EndChar

StartChar: uni037E
Encoding: 894 894 339
Width: 240
Flags: W
LayerCount: 2
Fore
SplineSet
120 509 m 0
 170 509 210 468 210 419 c 0
 210 370 170 329 120 329 c 0
 69 329 29 370 29 419 c 0
 29 468 69 509 120 509 c 0
120 164 m 0
 171 164 210 125 210 74 c 0
 210 43 200 17 178 -32 c 2
 115 -177 l 1
 26 -177 l 1
 69 -1 l 1
 44 16 29 43 29 74 c 0
 29 125 68 164 120 164 c 0
EndSplineSet
EndChar

StartChar: uni0384
Encoding: 900 900 340
Width: 215
Flags: W
LayerCount: 2
Fore
SplineSet
31 836 m 1
 185 824 l 1
 139 596 l 1
 38 596 l 1
 31 836 l 1
EndSplineSet
EndChar

StartChar: uni0385
Encoding: 901 901 341
Width: 485
Flags: W
LayerCount: 2
Fore
SplineSet
193 948 m 1
 325 938 l 1
 286 741 l 1
 199 741 l 1
 193 948 l 1
111 759 m 0
 155 759 192 724 192 680 c 0
 192 636 155 601 111 601 c 0
 65 601 30 636 30 680 c 0
 30 724 65 759 111 759 c 0
374 759 m 0
 418 759 455 724 455 680 c 0
 455 636 418 601 374 601 c 0
 328 601 293 636 293 680 c 0
 293 724 328 759 374 759 c 0
EndSplineSet
EndChar

StartChar: uni0386
Encoding: 902 902 342
Width: 691
Flags: W
LayerCount: 2
Fore
SplineSet
77 705 m 1
 231 693 l 1
 185 465 l 1
 84 465 l 1
 77 705 l 1
531 0 m 1
 495 149 l 1
 293 149 l 1
 257 0 l 1
 87 0 l 1
 297 693 l 1
 496 693 l 1
 704 0 l 1
 531 0 l 1
321 268 m 1
 467 268 l 1
 394 574 l 1
 321 268 l 1
EndSplineSet
EndChar

StartChar: uni0387
Encoding: 903 903 343
Width: 240
Flags: W
LayerCount: 2
Fore
SplineSet
120 398 m 0
 170 398 210 357 210 308 c 0
 210 258 170 217 120 217 c 0
 69 217 29 258 29 308 c 0
 29 357 69 398 120 398 c 0
EndSplineSet
EndChar

StartChar: uni0388
Encoding: 904 904 344
Width: 719
Flags: W
LayerCount: 2
Fore
SplineSet
73 705 m 1
 226 693 l 1
 180 465 l 1
 80 465 l 1
 73 705 l 1
683 693 m 1
 665 576 l 1
 421 576 l 1
 421 410 l 1
 635 410 l 1
 635 295 l 1
 421 295 l 1
 421 118 l 1
 683 118 l 1
 683 0 l 1
 257 0 l 1
 257 693 l 1
 683 693 l 1
EndSplineSet
EndChar

StartChar: uni0389
Encoding: 905 905 345
Width: 859
Flags: W
LayerCount: 2
Fore
SplineSet
73 705 m 1
 226 693 l 1
 180 465 l 1
 80 465 l 1
 73 705 l 1
630 0 m 1
 630 297 l 1
 421 297 l 1
 421 0 l 1
 257 0 l 1
 257 693 l 1
 421 693 l 1
 421 425 l 1
 630 425 l 1
 630 693 l 1
 794 693 l 1
 794 0 l 1
 630 0 l 1
EndSplineSet
EndChar

StartChar: uni038A
Encoding: 906 906 346
Width: 486
Flags: W
LayerCount: 2
Fore
SplineSet
73 705 m 1
 226 693 l 1
 180 465 l 1
 80 465 l 1
 73 705 l 1
421 693 m 1
 421 0 l 1
 257 0 l 1
 257 693 l 1
 421 693 l 1
EndSplineSet
EndChar

StartChar: uni038C
Encoding: 908 908 347
Width: 838
Flags: W
LayerCount: 2
Fore
SplineSet
492 710 m 0
 688 710 804 578 804 347 c 0
 804 120 688 -17 492 -17 c 0
 297 -17 180 116 180 347 c 0
 180 573 297 710 492 710 c 0
63 705 m 1
 216 693 l 1
 170 465 l 1
 70 465 l 1
 63 705 l 1
492 590 m 0
 400 590 351 522 351 347 c 0
 351 171 401 103 492 103 c 0
 586 103 633 171 633 347 c 0
 633 522 585 590 492 590 c 0
EndSplineSet
EndChar

StartChar: uni038E
Encoding: 910 910 348
Width: 845
Flags: W
LayerCount: 2
Fore
SplineSet
73 705 m 1
 226 693 l 1
 180 465 l 1
 80 465 l 1
 73 705 l 1
853 693 m 1
 631 260 l 1
 631 0 l 1
 466 0 l 1
 466 259 l 1
 244 693 l 1
 424 693 l 1
 552 388 l 1
 680 693 l 1
 853 693 l 1
EndSplineSet
EndChar

StartChar: uni038F
Encoding: 911 911 349
Width: 856
Flags: W
LayerCount: 2
Fore
SplineSet
511 710 m 0
 708 710 823 570 823 378 c 0
 823 253 780 170 689 119 c 1
 802 119 l 1
 802 0 l 1
 549 0 l 1
 549 112 l 1
 635 149 652 227 652 378 c 0
 652 519 604 590 511 590 c 0
 419 590 370 519 370 377 c 0
 370 222 390 150 473 112 c 1
 473 0 l 1
 220 0 l 1
 220 119 l 1
 331 119 l 1
 244 167 199 251 199 377 c 0
 199 568 316 710 511 710 c 0
63 705 m 1
 216 693 l 1
 170 465 l 1
 70 465 l 1
 63 705 l 1
EndSplineSet
EndChar

StartChar: uni0390
Encoding: 912 912 350
Width: 279
Flags: W
LayerCount: 2
Fore
SplineSet
83 948 m 1
 215 938 l 1
 176 741 l 1
 89 741 l 1
 83 948 l 1
1 759 m 0
 45 759 82 724 82 680 c 0
 82 636 45 601 1 601 c 0
 -45 601 -80 636 -80 680 c 0
 -80 724 -45 759 1 759 c 0
264 759 m 0
 308 759 345 724 345 680 c 0
 345 636 308 601 264 601 c 0
 218 601 183 636 183 680 c 0
 183 724 218 759 264 759 c 0
212 531 m 1
 212 179 l 2
 212 131 223 112 255 97 c 1
 209 -17 l 1
 109 1 54 50 54 159 c 2
 54 531 l 1
 212 531 l 1
EndSplineSet
EndChar

StartChar: uni0391
Encoding: 913 913 351
Width: 590
Flags: W
LayerCount: 2
Fore
SplineSet
430 0 m 1
 395 149 l 1
 192 149 l 1
 157 0 l 1
 -13 0 l 1
 196 693 l 1
 395 693 l 1
 604 0 l 1
 430 0 l 1
220 268 m 1
 366 268 l 1
 293 574 l 1
 220 268 l 1
EndSplineSet
EndChar

StartChar: uni0392
Encoding: 914 914 352
Width: 617
Flags: W
LayerCount: 2
Fore
SplineSet
434 367 m 1
 511 352 590 314 590 202 c 0
 590 44 462 0 288 0 c 2
 65 0 l 1
 65 693 l 1
 261 693 l 2
 447 693 561 646 561 516 c 0
 561 428 498 382 434 367 c 1
277 577 m 2
 229 577 l 1
 229 416 l 1
 290 416 l 2
 358 416 394 442 394 500 c 0
 394 558 356 577 277 577 c 2
289 119 m 2
 366 119 421 135 421 211 c 0
 421 281 372 307 301 307 c 2
 229 307 l 1
 229 119 l 1
 289 119 l 2
EndSplineSet
EndChar

StartChar: uni0393
Encoding: 915 915 353
Width: 510
Flags: W
LayerCount: 2
Fore
SplineSet
509 693 m 1
 491 564 l 1
 229 564 l 1
 229 0 l 1
 65 0 l 1
 65 693 l 1
 509 693 l 1
EndSplineSet
EndChar

StartChar: uni0394
Encoding: 916 916 354
Width: 599
Flags: W
LayerCount: 2
Fore
SplineSet
399 693 m 1
 612 0 l 1
 -13 0 l 1
 201 693 l 1
 399 693 l 1
298 572 m 1
 184 120 l 1
 411 120 l 1
 298 572 l 1
EndSplineSet
EndChar

StartChar: uni0395
Encoding: 917 917 355
Width: 526
Flags: W
LayerCount: 2
Fore
SplineSet
490 693 m 1
 473 576 l 1
 229 576 l 1
 229 410 l 1
 442 410 l 1
 442 295 l 1
 229 295 l 1
 229 118 l 1
 490 118 l 1
 490 0 l 1
 65 0 l 1
 65 693 l 1
 490 693 l 1
EndSplineSet
EndChar

StartChar: uni0396
Encoding: 918 918 356
Width: 544
Flags: W
LayerCount: 2
Fore
SplineSet
512 693 m 1
 512 569 l 1
 211 131 l 1
 517 131 l 1
 501 0 l 1
 18 0 l 1
 18 123 l 1
 325 566 l 1
 49 566 l 1
 49 693 l 1
 512 693 l 1
EndSplineSet
EndChar

StartChar: uni0397
Encoding: 919 919 357
Width: 666
Flags: W
LayerCount: 2
Fore
SplineSet
437 0 m 1
 437 297 l 1
 229 297 l 1
 229 0 l 1
 65 0 l 1
 65 693 l 1
 229 693 l 1
 229 425 l 1
 437 425 l 1
 437 693 l 1
 601 693 l 1
 601 0 l 1
 437 0 l 1
EndSplineSet
EndChar

StartChar: uni0398
Encoding: 920 920 358
Width: 691
Flags: W
LayerCount: 2
Fore
SplineSet
345 710 m 0
 541 710 658 578 658 347 c 0
 658 120 541 -17 345 -17 c 0
 150 -17 33 116 33 347 c 0
 33 573 150 710 345 710 c 0
345 590 m 0
 247 590 196 522 196 347 c 0
 196 171 248 103 345 103 c 0
 445 103 495 171 495 347 c 0
 495 522 445 590 345 590 c 0
446 399 m 1
 446 305 l 1
 244 305 l 1
 244 399 l 1
 446 399 l 1
EndSplineSet
EndChar

StartChar: uni0399
Encoding: 921 921 359
Width: 293
Flags: W
LayerCount: 2
Fore
SplineSet
229 693 m 1
 229 0 l 1
 65 0 l 1
 65 693 l 1
 229 693 l 1
EndSplineSet
EndChar

StartChar: uni039A
Encoding: 922 922 360
Width: 633
Flags: W
LayerCount: 2
Fore
SplineSet
229 693 m 1
 229 0 l 1
 65 0 l 1
 65 693 l 1
 229 693 l 1
627 693 m 1
 406 382 l 1
 645 0 l 1
 455 0 l 1
 234 370 l 1
 454 693 l 1
 627 693 l 1
EndSplineSet
EndChar

StartChar: uni039B
Encoding: 923 923 361
Width: 590
Flags: W
LayerCount: 2
Fore
SplineSet
395 693 m 1
 604 0 l 1
 430 0 l 1
 294 574 l 1
 157 0 l 1
 -13 0 l 1
 196 693 l 1
 395 693 l 1
EndSplineSet
EndChar

StartChar: uni039C
Encoding: 924 924 362
Width: 786
Flags: W
LayerCount: 2
Fore
SplineSet
701 693 m 1
 753 0 l 1
 592 0 l 1
 580 271 l 2
 575 368 573 468 578 554 c 1
 471 73 l 1
 316 73 l 1
 202 554 l 1
 209 452 209 366 205 269 c 2
 193 0 l 1
 33 0 l 1
 85 693 l 1
 292 693 l 1
 396 223 l 1
 493 693 l 1
 701 693 l 1
EndSplineSet
EndChar

StartChar: uni039D
Encoding: 925 925 363
Width: 663
Flags: W
LayerCount: 2
Fore
SplineSet
599 693 m 1
 599 0 l 1
 390 0 l 1
 190 537 l 1
 198 474 211 382 211 254 c 2
 211 0 l 1
 65 0 l 1
 65 693 l 1
 269 693 l 1
 474 155 l 1
 465 211 452 302 452 413 c 2
 452 693 l 1
 599 693 l 1
EndSplineSet
EndChar

StartChar: uni039E
Encoding: 926 926 364
Width: 524
Flags: W
LayerCount: 2
Fore
SplineSet
495 693 m 1
 476 556 l 1
 29 556 l 1
 29 693 l 1
 495 693 l 1
428 416 m 1
 428 288 l 1
 94 288 l 1
 94 416 l 1
 428 416 l 1
495 141 m 1
 495 0 l 1
 29 0 l 1
 29 141 l 1
 495 141 l 1
EndSplineSet
EndChar

StartChar: uni039F
Encoding: 927 927 365
Width: 691
Flags: W
LayerCount: 2
Fore
SplineSet
345 710 m 0
 541 710 658 578 658 347 c 0
 658 120 541 -17 345 -17 c 0
 150 -17 33 116 33 347 c 0
 33 573 150 710 345 710 c 0
345 590 m 0
 253 590 205 522 205 347 c 0
 205 171 255 103 345 103 c 0
 439 103 486 171 486 347 c 0
 486 522 438 590 345 590 c 0
EndSplineSet
EndChar

StartChar: uni03A0
Encoding: 928 928 366
Width: 664
Flags: W
LayerCount: 2
Fore
SplineSet
599 693 m 1
 599 0 l 1
 435 0 l 1
 435 567 l 1
 229 567 l 1
 229 0 l 1
 65 0 l 1
 65 693 l 1
 599 693 l 1
EndSplineSet
EndChar

StartChar: uni03A1
Encoding: 929 929 367
Width: 600
Flags: W
LayerCount: 2
Fore
SplineSet
289 693 m 2
 468 693 578 619 578 467 c 0
 578 306 464 231 304 231 c 2
 229 231 l 1
 229 0 l 1
 65 0 l 1
 65 693 l 1
 289 693 l 2
290 349 m 2
 364 349 409 380 409 467 c 0
 409 541 368 576 287 576 c 2
 229 576 l 1
 229 349 l 1
 290 349 l 2
EndSplineSet
EndChar

StartChar: uni03A3
Encoding: 931 931 368
Width: 503
Flags: W
LayerCount: 2
Fore
SplineSet
482 693 m 1
 482 574 l 1
 202 574 l 1
 370 374 l 1
 370 309 l 1
 201 122 l 1
 482 122 l 1
 482 0 l 1
 21 0 l 1
 21 119 l 1
 213 340 l 1
 21 574 l 1
 21 693 l 1
 482 693 l 1
EndSplineSet
EndChar

StartChar: uni03A4
Encoding: 932 932 369
Width: 540
Flags: W
LayerCount: 2
Fore
SplineSet
539 693 m 1
 523 567 l 1
 352 567 l 1
 352 0 l 1
 188 0 l 1
 188 567 l 1
 9 567 l 1
 9 693 l 1
 539 693 l 1
EndSplineSet
EndChar

StartChar: uni03A5
Encoding: 933 933 370
Width: 594
Flags: W
LayerCount: 2
Fore
SplineSet
601 693 m 1
 379 260 l 1
 379 0 l 1
 215 0 l 1
 215 259 l 1
 -7 693 l 1
 172 693 l 1
 300 388 l 1
 428 693 l 1
 601 693 l 1
EndSplineSet
EndChar

StartChar: uni03A6
Encoding: 934 934 371
Width: 843
Flags: W
LayerCount: 2
Fore
SplineSet
827 349 m 0
 827 176 696 84 501 76 c 1
 501 0 l 1
 342 0 l 1
 342 76 l 1
 145 85 16 177 16 345 c 0
 16 516 147 608 342 616 c 1
 342 693 l 1
 501 693 l 1
 501 616 l 1
 698 607 827 515 827 349 c 0
494 173 m 1
 612 183 660 250 660 349 c 0
 660 447 608 510 494 518 c 1
 494 173 l 1
183 345 m 0
 183 245 235 182 349 174 c 1
 349 518 l 1
 231 509 183 445 183 345 c 0
EndSplineSet
EndChar

StartChar: uni03A7
Encoding: 935 935 372
Width: 581
Flags: W
LayerCount: 2
Fore
SplineSet
385 374 m 1
 585 0 l 1
 406 0 l 1
 287 264 l 1
 170 0 l 1
 -4 0 l 1
 190 368 l 1
 11 693 l 1
 189 693 l 1
 289 471 l 1
 394 693 l 1
 568 693 l 1
 385 374 l 1
EndSplineSet
EndChar

StartChar: uni03A8
Encoding: 936 936 373
Width: 728
Flags: W
LayerCount: 2
Fore
SplineSet
551 693 m 1
 708 693 l 1
 708 430 l 2
 708 293 619 204 446 182 c 1
 446 0 l 1
 282 0 l 1
 282 182 l 1
 106 203 19 290 19 429 c 2
 19 693 l 1
 177 693 l 1
 177 426 l 2
 177 350 208 309 289 295 c 1
 289 693 l 1
 439 693 l 1
 439 296 l 1
 517 310 551 352 551 426 c 2
 551 693 l 1
EndSplineSet
EndChar

StartChar: uni03A9
Encoding: 937 937 374
Width: 691
Flags: W
LayerCount: 2
Fore
SplineSet
345 710 m 0
 542 710 658 570 658 378 c 0
 658 253 614 170 523 119 c 1
 636 119 l 1
 636 0 l 1
 383 0 l 1
 383 112 l 1
 469 149 486 227 486 378 c 0
 486 519 438 590 345 590 c 0
 253 590 205 519 205 377 c 0
 205 222 224 150 307 112 c 1
 307 0 l 1
 54 0 l 1
 54 119 l 1
 165 119 l 1
 78 167 33 251 33 377 c 0
 33 568 150 710 345 710 c 0
EndSplineSet
EndChar

StartChar: uni03AA
Encoding: 938 938 375
Width: 293
Flags: W
LayerCount: 2
Fore
SplineSet
29 925 m 0
 75 925 110 890 110 846 c 0
 110 802 75 767 29 767 c 0
 -16 767 -52 802 -52 846 c 0
 -52 890 -16 925 29 925 c 0
260 925 m 0
 307 925 341 890 341 846 c 0
 341 802 307 767 260 767 c 0
 216 767 180 802 180 846 c 0
 180 890 216 925 260 925 c 0
229 693 m 1
 229 0 l 1
 65 0 l 1
 65 693 l 1
 229 693 l 1
EndSplineSet
EndChar

StartChar: uni03AB
Encoding: 939 939 376
Width: 594
Flags: W
LayerCount: 2
Fore
SplineSet
179 925 m 0
 225 925 260 890 260 846 c 0
 260 802 225 767 179 767 c 0
 134 767 98 802 98 846 c 0
 98 890 134 925 179 925 c 0
410 925 m 0
 457 925 491 890 491 846 c 0
 491 802 457 767 410 767 c 0
 366 767 330 802 330 846 c 0
 330 890 366 925 410 925 c 0
601 693 m 1
 379 260 l 1
 379 0 l 1
 215 0 l 1
 215 259 l 1
 -7 693 l 1
 172 693 l 1
 300 388 l 1
 428 693 l 1
 601 693 l 1
EndSplineSet
EndChar

StartChar: uni03AC
Encoding: 940 940 377
Width: 597
Flags: W
LayerCount: 2
Fore
SplineSet
223 836 m 1
 377 824 l 1
 331 596 l 1
 230 596 l 1
 223 836 l 1
251 548 m 0
 339 548 390 500 409 410 c 1
 425 531 l 1
 560 531 l 1
 491 260 l 1
 518 155 l 2
 526 121 544 107 574 101 c 1
 523 -17 l 1
 461 -9 419 19 406 77 c 2
 399 113 l 1
 366 29 317 -17 235 -17 c 0
 112 -17 32 79 32 261 c 0
 32 428 112 548 251 548 c 0
272 433 m 0
 225 433 192 379 192 261 c 0
 192 142 225 98 268 98 c 0
 311 98 346 133 370 272 c 1
 347 395 321 433 272 433 c 0
EndSplineSet
EndChar

StartChar: uni03AD
Encoding: 941 941 378
Width: 477
Flags: W
LayerCount: 2
Fore
SplineSet
201 836 m 1
 355 824 l 1
 309 596 l 1
 208 596 l 1
 201 836 l 1
260 548 m 0
 338 548 403 529 459 488 c 1
 394 406 l 1
 357 427 324 439 281 439 c 0
 237 439 209 419 209 383 c 0
 209 348 234 324 283 324 c 2
 350 324 l 1
 335 222 l 1
 276 222 l 2
 215 222 192 200 192 160 c 0
 192 121 221 96 280 96 c 0
 324 96 361 108 408 136 c 1
 474 47 l 1
 421 7 347 -17 258 -17 c 0
 126 -17 29 39 29 147 c 0
 29 228 78 272 171 283 c 1
 88 299 49 340 49 402 c 0
 49 493 134 548 260 548 c 0
EndSplineSet
EndChar

StartChar: uni03AE
Encoding: 942 942 379
Width: 577
Flags: W
LayerCount: 2
Fore
SplineSet
341 596 m 1
 240 596 l 1
 233 836 l 1
 387 824 l 1
 341 596 l 1
375 548 m 0
 467 548 523 489 523 385 c 2
 523 -222 l 1
 365 -205 l 1
 365 361 l 2
 365 416 345 432 315 432 c 0
 280 432 252 409 225 368 c 1
 225 0 l 1
 67 0 l 1
 67 382 l 2
 67 439 58 485 45 525 c 1
 191 545 l 1
 200 527 208 505 215 469 c 1
 259 521 310 548 375 548 c 0
EndSplineSet
EndChar

StartChar: uni03AF
Encoding: 943 943 380
Width: 279
Flags: W
LayerCount: 2
Fore
SplineSet
76 836 m 1
 230 824 l 1
 184 596 l 1
 83 596 l 1
 76 836 l 1
212 531 m 1
 212 179 l 2
 212 131 223 112 255 97 c 1
 209 -17 l 1
 109 1 54 50 54 159 c 2
 54 531 l 1
 212 531 l 1
EndSplineSet
EndChar

StartChar: uni03B0
Encoding: 944 944 381
Width: 562
Flags: W
LayerCount: 2
Fore
SplineSet
227 948 m 1
 359 938 l 1
 320 741 l 1
 233 741 l 1
 227 948 l 1
145 759 m 0
 189 759 226 724 226 680 c 0
 226 636 189 601 145 601 c 0
 99 601 64 636 64 680 c 0
 64 724 99 759 145 759 c 0
408 759 m 0
 452 759 489 724 489 680 c 0
 489 636 452 601 408 601 c 0
 362 601 327 636 327 680 c 0
 327 724 362 759 408 759 c 0
491 531 m 1
 506 450 520 359 520 248 c 0
 520 59 388 -17 261 -17 c 0
 150 -17 54 42 54 180 c 2
 54 531 l 1
 212 531 l 1
 212 183 l 2
 212 122 235 99 272 99 c 0
 316 99 362 138 362 261 c 0
 362 343 352 438 335 531 c 1
 491 531 l 1
EndSplineSet
EndChar

StartChar: uni03B1
Encoding: 945 945 382
Width: 597
Flags: W
LayerCount: 2
Fore
SplineSet
251 548 m 0
 339 548 390 500 409 410 c 1
 425 531 l 1
 560 531 l 1
 491 260 l 1
 518 155 l 2
 526 121 544 107 574 101 c 1
 523 -17 l 1
 461 -9 419 19 406 77 c 2
 399 113 l 1
 366 29 317 -17 235 -17 c 0
 112 -17 32 79 32 261 c 0
 32 428 112 548 251 548 c 0
272 433 m 0
 225 433 192 379 192 261 c 0
 192 142 225 98 268 98 c 0
 311 98 346 133 370 272 c 1
 347 395 321 433 272 433 c 0
EndSplineSet
EndChar

StartChar: uni03B2
Encoding: 946 946 383
Width: 606
Flags: W
LayerCount: 2
Fore
SplineSet
385 405 m 1
 470 397 580 360 580 207 c 0
 580 73 483 -17 354 -17 c 0
 297 -17 252 0 213 28 c 1
 213 -200 l 1
 61 -222 l 1
 61 546 l 2
 61 681 158 759 296 759 c 0
 437 759 524 680 524 570 c 0
 524 482 474 425 385 405 c 1
313 104 m 0
 374 104 421 139 421 220 c 0
 421 313 368 344 293 344 c 2
 254 344 l 1
 264 451 l 1
 288 451 l 2
 338 451 371 485 371 556 c 0
 371 619 341 647 293 647 c 0
 242 647 213 615 213 547 c 2
 213 128 l 1
 239 112 269 104 313 104 c 0
EndSplineSet
EndChar

StartChar: uni03B3
Encoding: 947 947 384
Width: 508
Flags: W
LayerCount: 2
Fore
SplineSet
126 548 m 1
 173 492 224 372 254 160 c 1
 357 547 l 1
 513 513 l 1
 329 28 l 2
 298 -53 293 -108 311 -207 c 1
 185 -223 l 1
 144 -141 142 -81 178 12 c 1
 118 248 47 418 -17 498 c 1
 126 548 l 1
EndSplineSet
EndChar

StartChar: uni03B4
Encoding: 948 948 385
Width: 577
Flags: W
LayerCount: 2
Fore
SplineSet
338 518 m 0
 479 461 545 391 545 248 c 0
 545 89 446 -17 288 -17 c 0
 130 -17 32 80 32 241 c 0
 32 342 86 416 184 462 c 1
 103 507 86 550 86 604 c 0
 86 687 151 759 300 759 c 0
 384 759 447 732 492 698 c 1
 420 614 l 1
 385 636 353 649 311 649 c 0
 258 649 238 628 238 601 c 0
 238 569 250 554 338 518 c 0
288 99 m 0
 349 99 381 146 381 249 c 0
 381 345 362 380 266 424 c 1
 212 379 195 326 195 247 c 0
 195 147 224 99 288 99 c 0
EndSplineSet
EndChar

StartChar: uni03B5
Encoding: 949 949 386
Width: 477
Flags: W
LayerCount: 2
Fore
SplineSet
260 548 m 0
 338 548 403 529 459 488 c 1
 394 406 l 1
 357 427 324 439 281 439 c 0
 237 439 209 419 209 383 c 0
 209 348 234 324 283 324 c 2
 350 324 l 1
 335 222 l 1
 276 222 l 2
 215 222 192 200 192 160 c 0
 192 121 221 96 280 96 c 0
 324 96 361 108 408 136 c 1
 474 47 l 1
 421 7 347 -17 258 -17 c 0
 126 -17 29 39 29 147 c 0
 29 228 78 272 171 283 c 1
 88 299 49 340 49 402 c 0
 49 493 134 548 260 548 c 0
EndSplineSet
EndChar

StartChar: uni03B6
Encoding: 950 950 387
Width: 419
Flags: W
LayerCount: 2
Fore
SplineSet
424 742 m 1
 444 658 l 1
 237 484 185 364 185 260 c 0
 185 185 216 155 302 120 c 0
 382 86 434 53 434 -30 c 0
 434 -114 376 -170 253 -222 c 1
 194 -128 l 1
 240 -103 272 -82 272 -46 c 0
 272 -16 258 -3 191 26 c 0
 73 78 21 128 21 255 c 0
 21 380 119 530 306 647 c 1
 279 637 223 628 171 628 c 2
 32 628 l 1
 49 742 l 1
 424 742 l 1
EndSplineSet
EndChar

StartChar: uni03B7
Encoding: 951 951 388
Width: 577
Flags: W
LayerCount: 2
Fore
SplineSet
375 548 m 0
 467 548 523 489 523 385 c 2
 523 -222 l 1
 365 -205 l 1
 365 361 l 2
 365 416 345 432 315 432 c 0
 280 432 252 409 225 368 c 1
 225 0 l 1
 67 0 l 1
 67 382 l 2
 67 439 58 485 45 525 c 1
 191 545 l 1
 200 527 208 505 215 469 c 1
 259 521 310 548 375 548 c 0
EndSplineSet
EndChar

StartChar: uni03B8
Encoding: 952 952 389
Width: 563
Flags: W
LayerCount: 2
Fore
SplineSet
282 759 m 0
 443 759 531 626 531 373 c 0
 531 116 442 -17 281 -17 c 0
 120 -17 32 114 32 372 c 0
 32 624 121 759 282 759 c 0
282 644 m 0
 217 644 185 598 181 419 c 1
 381 419 l 1
 377 598 346 644 282 644 c 0
281 97 m 0
 344 97 376 145 381 327 c 1
 181 327 l 1
 187 144 220 97 281 97 c 0
EndSplineSet
EndChar

StartChar: uni03B9
Encoding: 953 953 390
Width: 279
Flags: W
LayerCount: 2
Fore
SplineSet
212 531 m 1
 212 179 l 2
 212 131 223 112 255 97 c 1
 209 -17 l 1
 109 1 54 50 54 159 c 2
 54 531 l 1
 212 531 l 1
EndSplineSet
EndChar

StartChar: uni03BA
Encoding: 954 954 391
Width: 552
Flags: W
LayerCount: 2
Fore
SplineSet
544 489 m 1
 396 286 l 1
 508 141 l 2
 524 119 539 109 561 101 c 1
 508 -17 l 1
 446 -11 403 11 363 77 c 2
 229 281 l 1
 411 547 l 1
 544 489 l 1
191 545 m 1
 210 507 225 456 225 345 c 2
 225 0 l 1
 67 0 l 1
 67 382 l 2
 67 439 56 490 45 525 c 1
 191 545 l 1
EndSplineSet
EndChar

StartChar: uni03BB
Encoding: 955 955 392
Width: 529
Flags: W
LayerCount: 2
Fore
SplineSet
81 758 m 1
 253 733 337 682 380 496 c 0
 443 229 476 129 547 33 c 1
 395 -17 l 1
 331 86 299 180 261 410 c 1
 164 -17 l 1
 8 19 l 1
 169 531 l 1
 225 531 l 1
 196 607 164 634 62 650 c 1
 81 758 l 1
EndSplineSet
EndChar

StartChar: uni03BC
Encoding: 956 956 393
Width: 581
Flags: W
LayerCount: 2
Fore
SplineSet
536 0 m 1
 391 -17 l 1
 378 11 374 33 368 69 c 1
 341 22 304 -8 260 -8 c 0
 223 -8 195 1 171 34 c 1
 194 -8 210 -43 210 -113 c 2
 210 -205 l 1
 61 -220 l 1
 61 531 l 1
 219 531 l 1
 219 167 l 2
 219 121 240 106 269 106 c 0
 298 106 329 124 354 170 c 1
 354 531 l 1
 512 531 l 1
 512 182 l 2
 512 102 523 42 536 0 c 1
EndSplineSet
EndChar

StartChar: uni03BD
Encoding: 957 957 394
Width: 508
Flags: W
LayerCount: 2
Fore
SplineSet
126 548 m 1
 174 490 220 352 252 127 c 1
 360 547 l 1
 513 513 l 1
 341 0 l 1
 156 0 l 1
 105 243 54 424 -17 498 c 1
 126 548 l 1
EndSplineSet
EndChar

StartChar: uni03BE
Encoding: 958 958 395
Width: 450
Flags: W
LayerCount: 2
Fore
SplineSet
279 759 m 0
 361 759 418 739 469 699 c 1
 400 613 l 1
 369 634 342 647 302 647 c 0
 252 647 227 618 227 571 c 0
 227 519 257 489 310 489 c 2
 372 489 l 1
 356 383 l 1
 306 383 l 2
 238 383 192 340 192 271 c 0
 192 194 226 168 331 123 c 0
 421 85 469 52 469 -30 c 0
 469 -114 411 -170 288 -222 c 1
 229 -128 l 1
 275 -103 307 -82 307 -46 c 0
 307 -16 293 -3 222 28 c 0
 109 79 28 120 28 258 c 0
 28 371 99 426 192 444 c 1
 114 466 67 513 67 592 c 0
 67 690 157 759 279 759 c 0
EndSplineSet
EndChar

StartChar: uni03BF
Encoding: 959 959 396
Width: 584
Flags: W
LayerCount: 2
Fore
SplineSet
292 548 m 0
 454 548 552 444 552 265 c 0
 552 95 454 -17 292 -17 c 0
 131 -17 32 87 32 266 c 0
 32 436 130 548 292 548 c 0
292 432 m 0
 228 432 196 381 196 266 c 0
 196 148 228 99 292 99 c 0
 356 99 388 150 388 265 c 0
 388 383 356 432 292 432 c 0
EndSplineSet
EndChar

StartChar: uni03C0
Encoding: 960 960 397
Width: 612
Flags: W
LayerCount: 2
Fore
SplineSet
590 413 m 1
 529 413 l 1
 529 179 l 2
 529 131 540 112 572 97 c 1
 526 -17 l 1
 424 1 371 49 371 158 c 2
 371 413 l 1
 253 413 l 1
 253 0 l 1
 98 0 l 1
 98 413 l 1
 66 412 52 410 27 402 c 1
 -1 508 l 1
 37 524 70 531 147 531 c 2
 590 531 l 1
 590 413 l 1
EndSplineSet
EndChar

StartChar: uni03C1
Encoding: 961 961 398
Width: 584
Flags: W
LayerCount: 2
Fore
SplineSet
295 548 m 0
 458 548 547 451 547 267 c 0
 547 108 468 -17 337 -17 c 0
 286 -17 242 -1 207 46 c 1
 207 -205 l 1
 49 -222 l 1
 49 275 l 2
 49 450 129 548 295 548 c 0
290 99 m 0
 347 99 384 149 384 265 c 0
 384 396 349 433 296 433 c 0
 230 433 207 380 207 260 c 2
 207 152 l 1
 229 114 256 99 290 99 c 0
EndSplineSet
EndChar

StartChar: uni03C2
Encoding: 962 962 399
Width: 478
Flags: W
LayerCount: 2
Fore
SplineSet
292 548 m 0
 366 548 423 526 474 483 c 1
 405 388 l 1
 372 415 341 427 305 427 c 0
 240 427 197 383 197 276 c 0
 197 192 223 161 318 120 c 0
 398 86 449 53 449 -30 c 0
 449 -114 390 -170 267 -222 c 1
 208 -129 l 1
 255 -103 286 -82 286 -46 c 0
 286 -16 272 -3 206 25 c 0
 101 70 32 126 32 276 c 0
 32 437 136 548 292 548 c 0
EndSplineSet
EndChar

StartChar: uni03C3
Encoding: 963 963 400
Width: 603
Flags: W
LayerCount: 2
Fore
SplineSet
593 531 m 1
 593 416 l 1
 488 423 l 1
 528 389 552 337 552 259 c 0
 552 95 454 -17 292 -17 c 0
 131 -17 32 87 32 266 c 0
 32 431 122 540 315 540 c 0
 409 540 507 536 593 531 c 1
292 99 m 0
 356 99 388 150 388 259 c 0
 388 352 371 400 348 427 c 1
 347 427 l 2
 233 427 196 396 196 265 c 0
 196 148 228 99 292 99 c 0
EndSplineSet
EndChar

StartChar: uni03C4
Encoding: 964 964 401
Width: 481
Flags: W
LayerCount: 2
Fore
SplineSet
480 413 m 1
 320 413 l 1
 320 179 l 2
 320 131 331 112 363 97 c 1
 317 -17 l 1
 215 1 162 49 162 158 c 2
 162 413 l 1
 114 413 l 2
 63 413 50 411 20 402 c 1
 -8 508 l 1
 29 524 62 531 133 531 c 2
 480 531 l 1
 480 413 l 1
EndSplineSet
EndChar

StartChar: uni03C5
Encoding: 965 965 402
Width: 562
Flags: W
LayerCount: 2
Fore
SplineSet
491 531 m 1
 506 450 520 359 520 248 c 0
 520 59 388 -17 261 -17 c 0
 150 -17 54 42 54 180 c 2
 54 531 l 1
 212 531 l 1
 212 183 l 2
 212 122 235 99 272 99 c 0
 316 99 362 138 362 261 c 0
 362 343 352 438 335 531 c 1
 491 531 l 1
EndSplineSet
EndChar

StartChar: uni03C6
Encoding: 966 966 403
Width: 755
Flags: W
LayerCount: 2
Fore
SplineSet
717 270 m 0
 717 89 631 1 449 -15 c 1
 449 -205 l 1
 301 -222 l 1
 301 -15 l 1
 118 1 37 95 37 242 c 0
 37 355 67 453 98 531 c 1
 248 531 l 1
 218 444 190 355 190 254 c 0
 190 152 220 104 301 92 c 1
 301 325 l 2
 301 465 372 548 502 548 c 0
 645 548 717 456 717 270 c 0
449 93 m 1
 539 103 564 149 564 268 c 0
 564 410 545 441 504 441 c 0
 470 441 449 424 449 329 c 2
 449 93 l 1
EndSplineSet
EndChar

StartChar: uni03C7
Encoding: 967 967 404
Width: 493
Flags: W
LayerCount: 2
Fore
SplineSet
328 185 m 1
 506 -196 l 1
 349 -221 l 1
 244 59 l 1
 144 -221 l 1
 -17 -204 l 1
 165 183 l 1
 89 347 44 428 -22 498 c 1
 133 545 l 1
 177 480 203 434 248 289 c 1
 323 544 l 1
 485 528 l 1
 328 185 l 1
EndSplineSet
EndChar

StartChar: uni03C8
Encoding: 968 968 405
Width: 780
Flags: W
LayerCount: 2
Fore
SplineSet
738 247 m 0
 738 81 629 -1 467 -15 c 1
 467 -205 l 1
 317 -222 l 1
 317 -16 l 1
 136 -2 52 83 52 204 c 2
 52 531 l 1
 207 531 l 1
 207 213 l 2
 207 146 234 106 317 96 c 1
 317 531 l 1
 467 531 l 1
 467 97 l 1
 547 109 582 159 582 253 c 0
 582 336 572 438 556 531 c 1
 708 531 l 1
 725 450 738 359 738 247 c 0
EndSplineSet
EndChar

StartChar: uni03C9
Encoding: 969 969 406
Width: 774
Flags: W
LayerCount: 2
Fore
SplineSet
674 531 m 1
 708 455 737 360 737 242 c 0
 737 63 653 -17 539 -17 c 0
 456 -17 405 18 387 101 c 1
 365 17 319 -17 233 -17 c 0
 119 -17 37 61 37 242 c 0
 37 360 65 454 100 531 c 1
 243 531 l 1
 213 436 192 347 192 249 c 0
 192 141 216 99 259 99 c 0
 291 99 314 112 314 187 c 2
 314 355 l 1
 460 374 l 1
 460 187 l 2
 460 117 483 99 516 99 c 0
 554 99 583 134 583 250 c 0
 583 347 561 436 530 531 c 1
 674 531 l 1
EndSplineSet
EndChar

StartChar: uni03CA
Encoding: 970 970 407
Width: 279
Flags: W
LayerCount: 2
Fore
SplineSet
17 799 m 0
 63 799 98 764 98 720 c 0
 98 676 63 641 17 641 c 0
 -28 641 -64 676 -64 720 c 0
 -64 764 -28 799 17 799 c 0
248 799 m 0
 295 799 329 764 329 720 c 0
 329 676 295 641 248 641 c 0
 204 641 168 676 168 720 c 0
 168 764 204 799 248 799 c 0
212 531 m 1
 212 179 l 2
 212 131 223 112 255 97 c 1
 209 -17 l 1
 109 1 54 50 54 159 c 2
 54 531 l 1
 212 531 l 1
EndSplineSet
EndChar

StartChar: uni03CB
Encoding: 971 971 408
Width: 562
Flags: W
LayerCount: 2
Fore
SplineSet
161 799 m 0
 207 799 242 764 242 720 c 0
 242 676 207 641 161 641 c 0
 116 641 80 676 80 720 c 0
 80 764 116 799 161 799 c 0
392 799 m 0
 439 799 473 764 473 720 c 0
 473 676 439 641 392 641 c 0
 348 641 312 676 312 720 c 0
 312 764 348 799 392 799 c 0
491 531 m 1
 506 450 520 359 520 248 c 0
 520 59 388 -17 261 -17 c 0
 150 -17 54 42 54 180 c 2
 54 531 l 1
 212 531 l 1
 212 183 l 2
 212 122 235 99 272 99 c 0
 316 99 362 138 362 261 c 0
 362 343 352 438 335 531 c 1
 491 531 l 1
EndSplineSet
EndChar

StartChar: uni03CC
Encoding: 972 972 409
Width: 584
Flags: W
LayerCount: 2
Fore
SplineSet
234 836 m 1
 388 824 l 1
 342 596 l 1
 241 596 l 1
 234 836 l 1
292 548 m 0
 454 548 552 444 552 265 c 0
 552 95 454 -17 292 -17 c 0
 131 -17 32 87 32 266 c 0
 32 436 130 548 292 548 c 0
292 432 m 0
 228 432 196 381 196 266 c 0
 196 148 228 99 292 99 c 0
 356 99 388 150 388 265 c 0
 388 383 356 432 292 432 c 0
EndSplineSet
EndChar

StartChar: uni03CD
Encoding: 973 973 410
Width: 562
Flags: W
LayerCount: 2
Fore
SplineSet
219 836 m 1
 373 824 l 1
 327 596 l 1
 226 596 l 1
 219 836 l 1
491 531 m 1
 506 450 520 359 520 248 c 0
 520 59 388 -17 261 -17 c 0
 150 -17 54 42 54 180 c 2
 54 531 l 1
 212 531 l 1
 212 183 l 2
 212 122 235 99 272 99 c 0
 316 99 362 138 362 261 c 0
 362 343 352 438 335 531 c 1
 491 531 l 1
EndSplineSet
EndChar

StartChar: uni03CE
Encoding: 974 974 411
Width: 774
Flags: W
LayerCount: 2
Fore
SplineSet
330 836 m 1
 484 824 l 1
 438 596 l 1
 337 596 l 1
 330 836 l 1
674 531 m 1
 708 455 737 360 737 242 c 0
 737 63 653 -17 539 -17 c 0
 456 -17 405 18 387 101 c 1
 365 17 319 -17 233 -17 c 0
 119 -17 37 61 37 242 c 0
 37 360 65 454 100 531 c 1
 243 531 l 1
 213 436 192 347 192 249 c 0
 192 141 216 99 259 99 c 0
 291 99 314 112 314 187 c 2
 314 355 l 1
 460 374 l 1
 460 187 l 2
 460 117 483 99 516 99 c 0
 554 99 583 134 583 250 c 0
 583 347 561 436 530 531 c 1
 674 531 l 1
EndSplineSet
EndChar

StartChar: uni03D0
Encoding: 976 976 412
Width: 566
Flags: W
LayerCount: 2
Fore
SplineSet
378 431 m 0
 482 431 539 351 539 231 c 0
 539 88 440 -17 284 -17 c 0
 105 -17 33 121 33 344 c 0
 33 605 159 759 320 759 c 0
 444 759 494 688 494 615 c 0
 494 531 443 463 318 422 c 1
 343 429 358 431 378 431 c 0
308 648 m 0
 258 648 207 598 195 434 c 1
 223 445 l 2
 315 480 352 532 352 600 c 0
 352 632 334 648 308 648 c 0
284 98 m 0
 341 98 375 141 375 226 c 0
 375 310 349 357 286 357 c 0
 266 357 243 351 217 341 c 2
 192 331 l 1
 193 158 223 98 284 98 c 0
EndSplineSet
EndChar

StartChar: uni03D1
Encoding: 977 977 413
Width: 549
Flags: W
LayerCount: 2
Fore
SplineSet
537 508 m 1
 536 402 l 1
 503 402 l 1
 503 122 435 -17 241 -17 c 0
 128 -17 41 42 41 180 c 2
 41 353 l 1
 193 353 l 1
 193 171 l 2
 193 119 212 96 249 97 c 0
 314 97 342 167 342 400 c 2
 342 402 l 1
 251 402 l 2
 93 402 28 470 28 573 c 0
 28 673 112 759 240 759 c 0
 390 759 472 667 496 508 c 1
 537 508 l 1
255 507 m 2
 337 507 l 1
 325 612 291 645 240 645 c 0
 194 645 168 617 168 576 c 0
 168 531 199 507 255 507 c 2
EndSplineSet
EndChar

StartChar: uni03D2
Encoding: 978 978 414
Width: 633
Flags: W
LayerCount: 2
Fore
SplineSet
215 0 m 1
 215 259 l 1
 -7 693 l 1
 172 693 l 1
 300 388 l 1
 370 566 l 2
 408 670 458 710 552 710 c 0
 603 710 640 695 672 673 c 1
 627 579 l 1
 613 587 595 595 573 595 c 0
 542 595 526 582 507 540 c 2
 379 260 l 1
 379 0 l 1
 215 0 l 1
EndSplineSet
EndChar

StartChar: uni03D5
Encoding: 981 981 415
Width: 663
Flags: W
LayerCount: 2
Fore
SplineSet
637 268 m 0
 637 98 536 18 410 5 c 1
 409 -205 l 1
 251 -222 l 1
 252 5 l 1
 127 17 26 95 26 264 c 0
 26 433 127 514 251 526 c 1
 251 742 l 1
 409 758 l 1
 409 526 l 1
 536 514 637 437 637 268 c 0
396 106 m 1
 454 114 482 164 482 268 c 0
 482 375 451 419 396 425 c 1
 396 106 l 1
180 264 m 0
 180 164 211 115 265 106 c 1
 265 425 l 1
 208 417 180 370 180 264 c 0
EndSplineSet
EndChar

StartChar: uni03D6
Encoding: 982 982 416
Width: 753
Flags: W
LayerCount: 2
Fore
SplineSet
738 531 m 1
 738 420 l 1
 650 420 l 1
 686 365 714 300 714 222 c 0
 714 66 635 -17 526 -17 c 0
 447 -17 396 18 377 101 c 1
 356 17 309 -17 228 -17 c 0
 118 -17 41 64 41 222 c 0
 41 300 69 364 105 419 c 1
 72 418 58 416 32 408 c 1
 4 508 l 1
 42 524 81 531 173 531 c 2
 738 531 l 1
559 236 m 0
 559 303 546 362 523 420 c 1
 232 419 l 1
 209 362 196 303 196 235 c 0
 196 141 215 99 255 99 c 0
 281 99 304 112 304 187 c 2
 304 300 l 1
 451 320 l 1
 451 187 l 2
 451 117 473 99 499 99 c 0
 535 99 559 134 559 236 c 0
EndSplineSet
EndChar

StartChar: uni03D7
Encoding: 983 983 417
Width: 571
Flags: W
LayerCount: 2
Fore
SplineSet
503 179 m 2
 503 127 513 106 547 89 c 1
 547 -37 l 2
 547 -164 473 -227 354 -227 c 0
 290 -227 240 -208 209 -185 c 1
 262 -91 l 1
 287 -104 308 -112 344 -112 c 0
 383 -112 408 -93 408 -50 c 2
 409 30 l 1
 375 53 357 89 357 144 c 0
 357 210 390 346 411 405 c 1
 188 -11 l 1
 67 27 l 1
 67 352 l 2
 67 398 58 417 24 433 c 1
 70 548 l 1
 159 529 213 482 213 387 c 0
 213 321 180 185 160 126 c 1
 382 542 l 1
 503 504 l 1
 503 179 l 2
EndSplineSet
EndChar

StartChar: uni03F0
Encoding: 1008 1008 418
Width: 570
Flags: W
LayerCount: 2
Fore
SplineSet
503 179 m 2
 503 133 512 114 546 97 c 1
 500 -17 l 1
 411 2 357 49 357 144 c 0
 357 210 390 346 411 405 c 1
 188 -11 l 1
 67 27 l 1
 67 352 l 2
 67 398 58 417 24 433 c 1
 70 548 l 1
 159 529 213 482 213 387 c 0
 213 321 180 185 160 126 c 1
 382 542 l 1
 503 504 l 1
 503 179 l 2
EndSplineSet
EndChar

StartChar: uni03F1
Encoding: 1009 1009 419
Width: 584
Flags: W
LayerCount: 2
Fore
SplineSet
335 -75 m 0
 431 -90 475 -121 493 -190 c 1
 357 -223 l 1
 344 -192 327 -186 237 -173 c 0
 113 -155 49 -99 49 37 c 2
 49 275 l 2
 49 450 129 548 295 548 c 0
 458 548 547 451 547 289 c 0
 547 146 468 21 337 21 c 0
 286 21 242 38 207 85 c 1
 207 15 l 2
 207 -45 236 -60 335 -75 c 0
297 433 m 0
 230 433 207 380 207 260 c 2
 207 191 l 1
 229 152 256 136 290 136 c 0
 347 136 384 187 384 287 c 0
 384 396 349 433 297 433 c 0
EndSplineSet
EndChar

StartChar: uni03F2
Encoding: 1010 1010 420
Width: 513
Flags: W
LayerCount: 2
Fore
SplineSet
310 548 m 0
 395 548 450 527 508 483 c 1
 440 389 l 1
 399 415 368 427 323 427 c 0
 247 427 198 378 198 262 c 0
 198 147 250 108 322 108 c 0
 371 108 398 120 439 142 c 1
 508 46 l 1
 454 7 397 -17 311 -17 c 0
 142 -17 32 87 32 261 c 0
 32 430 145 548 310 548 c 0
EndSplineSet
EndChar

StartChar: uni03F4
Encoding: 1012 1012 421
Width: 691
Flags: W
LayerCount: 2
Fore
SplineSet
345 710 m 0
 541 710 658 578 658 347 c 0
 658 120 541 -17 345 -17 c 0
 150 -17 33 116 33 347 c 0
 33 573 150 710 345 710 c 0
345 590 m 0
 262 590 211 535 202 397 c 1
 489 397 l 1
 480 535 429 590 345 590 c 0
345 103 m 0
 431 103 482 160 490 305 c 1
 201 305 l 1
 209 160 263 103 345 103 c 0
EndSplineSet
EndChar

StartChar: uni03F5
Encoding: 1013 1013 422
Width: 486
Flags: W
LayerCount: 2
Fore
SplineSet
304 98 m 0
 340 98 370 109 408 137 c 1
 475 46 l 1
 425 6 368 -17 299 -17 c 0
 132 -17 32 93 32 262 c 0
 32 431 134 548 293 548 c 0
 366 548 425 526 475 483 c 1
 408 395 l 1
 371 423 339 434 303 434 c 0
 238 434 197 398 192 316 c 1
 383 316 l 1
 383 225 l 1
 192 225 l 1
 196 133 242 98 304 98 c 0
EndSplineSet
EndChar

StartChar: uni03F6
Encoding: 1014 1014 423
Width: 486
Flags: W
LayerCount: 2
Fore
SplineSet
213 548 m 0
 358 548 454 457 454 270 c 0
 454 96 362 -17 192 -17 c 0
 119 -17 61 5 11 43 c 1
 79 134 l 1
 117 109 146 98 186 98 c 0
 242 98 287 130 294 225 c 1
 104 225 l 1
 104 316 l 1
 293 316 l 1
 287 402 253 434 201 434 c 0
 161 434 128 423 91 399 c 1
 24 486 l 1
 75 526 135 548 213 548 c 0
EndSplineSet
EndChar

StartChar: uni0400
Encoding: 1024 1024 424
Width: 526
Flags: W
LayerCount: 2
Fore
SplineSet
194 956 m 1
 415 831 l 1
 375 751 l 1
 135 838 l 1
 194 956 l 1
490 693 m 1
 473 576 l 1
 229 576 l 1
 229 410 l 1
 442 410 l 1
 442 295 l 1
 229 295 l 1
 229 118 l 1
 490 118 l 1
 490 0 l 1
 65 0 l 1
 65 693 l 1
 490 693 l 1
EndSplineSet
EndChar

StartChar: uni0401
Encoding: 1025 1025 425
Width: 526
Flags: W
LayerCount: 2
Fore
SplineSet
161 925 m 0
 207 925 242 890 242 846 c 0
 242 802 207 767 161 767 c 0
 116 767 80 802 80 846 c 0
 80 890 116 925 161 925 c 0
392 925 m 0
 439 925 473 890 473 846 c 0
 473 802 439 767 392 767 c 0
 348 767 312 802 312 846 c 0
 312 890 348 925 392 925 c 0
490 693 m 1
 473 576 l 1
 229 576 l 1
 229 410 l 1
 442 410 l 1
 442 295 l 1
 229 295 l 1
 229 118 l 1
 490 118 l 1
 490 0 l 1
 65 0 l 1
 65 693 l 1
 490 693 l 1
EndSplineSet
EndChar

StartChar: uni0402
Encoding: 1026 1026 426
Width: 750
Flags: W
LayerCount: 2
Fore
SplineSet
506 470 m 0
 647 470 724 378 724 229 c 2
 724 105 l 2
 724 -70 619 -131 501 -169 c 1
 458 -53 l 1
 547 -18 560 29 560 111 c 2
 560 228 l 2
 560 310 531 349 462 349 c 0
 412 349 379 332 352 305 c 1
 352 0 l 1
 188 0 l 1
 188 569 l 1
 9 569 l 1
 9 693 l 1
 539 693 l 1
 523 569 l 1
 352 569 l 1
 352 414 l 1
 392 450 440 470 506 470 c 0
EndSplineSet
EndChar

StartChar: uni0403
Encoding: 1027 1027 427
Width: 510
Flags: W
LayerCount: 2
Fore
SplineSet
437 838 m 1
 197 751 l 1
 157 831 l 1
 378 956 l 1
 437 838 l 1
509 693 m 1
 491 564 l 1
 229 564 l 1
 229 0 l 1
 65 0 l 1
 65 693 l 1
 509 693 l 1
EndSplineSet
EndChar

StartChar: uni0404
Encoding: 1028 1028 428
Width: 575
Flags: W
LayerCount: 2
Fore
SplineSet
496 165 m 1
 567 73 l 1
 521 26 445 -17 343 -17 c 0
 159 -17 33 111 33 348 c 0
 33 580 167 710 345 710 c 0
 437 710 501 682 559 633 c 1
 480 540 l 1
 439 574 400 591 353 591 c 0
 274 591 212 535 201 413 c 1
 438 413 l 1
 438 297 l 1
 201 297 l 1
 207 168 272 106 354 106 c 0
 414 106 456 133 496 165 c 1
EndSplineSet
EndChar

StartChar: uni0405
Encoding: 1029 1029 429
Width: 572
Flags: W
LayerCount: 2
Fore
SplineSet
288 710 m 0
 394 710 467 679 528 621 c 1
 452 532 l 1
 404 571 356 590 300 590 c 0
 243 590 207 566 207 522 c 0
 207 478 233 460 341 426 c 0
 472 384 547 330 547 202 c 0
 547 73 445 -17 272 -17 c 0
 152 -17 66 27 9 82 c 1
 92 173 l 1
 143 130 198 105 267 105 c 0
 335 105 377 137 377 190 c 0
 377 241 351 264 250 295 c 0
 95 343 38 407 38 510 c 0
 38 632 144 710 288 710 c 0
EndSplineSet
EndChar

StartChar: uni0406
Encoding: 1030 1030 430
Width: 293
Flags: W
LayerCount: 2
Fore
SplineSet
229 693 m 1
 229 0 l 1
 65 0 l 1
 65 693 l 1
 229 693 l 1
EndSplineSet
EndChar

StartChar: uni0407
Encoding: 1031 1031 431
Width: 293
Flags: W
LayerCount: 2
Fore
SplineSet
29 925 m 0
 75 925 110 890 110 846 c 0
 110 802 75 767 29 767 c 0
 -16 767 -52 802 -52 846 c 0
 -52 890 -16 925 29 925 c 0
260 925 m 0
 307 925 341 890 341 846 c 0
 341 802 307 767 260 767 c 0
 216 767 180 802 180 846 c 0
 180 890 216 925 260 925 c 0
229 693 m 1
 229 0 l 1
 65 0 l 1
 65 693 l 1
 229 693 l 1
EndSplineSet
EndChar

StartChar: uni0408
Encoding: 1032 1032 432
Width: 317
Flags: W
LayerCount: 2
Fore
SplineSet
256 693 m 1
 256 105 l 2
 256 -70 150 -131 33 -169 c 1
 -11 -53 l 1
 79 -18 92 29 92 111 c 2
 92 693 l 1
 256 693 l 1
EndSplineSet
EndChar

StartChar: uni0409
Encoding: 1033 1033 433
Width: 932
Flags: W
LayerCount: 2
Fore
SplineSet
640 457 m 2
 814 457 916 385 916 235 c 0
 916 73 802 0 644 0 c 2
 413 0 l 1
 413 569 l 1
 283 569 l 1
 257 334 l 2
 231 109 191 16 41 -17 c 1
 2 98 l 1
 75 127 83 177 103 342 c 2
 145 693 l 1
 577 693 l 1
 577 457 l 1
 640 457 l 2
631 119 m 2
 703 119 745 152 745 233 c 0
 745 307 707 343 626 343 c 2
 577 343 l 1
 577 119 l 1
 631 119 l 2
EndSplineSet
EndChar

StartChar: uni040A
Encoding: 1034 1034 434
Width: 951
Flags: W
LayerCount: 2
Fore
SplineSet
656 443 m 2
 830 443 936 371 936 227 c 0
 936 70 824 0 659 0 c 2
 432 0 l 1
 432 326 l 1
 229 326 l 1
 229 0 l 1
 65 0 l 1
 65 693 l 1
 229 693 l 1
 229 443 l 1
 432 443 l 1
 432 693 l 1
 596 693 l 1
 596 443 l 1
 656 443 l 2
654 120 m 2
 724 120 764 151 764 226 c 0
 764 295 727 326 647 326 c 2
 596 326 l 1
 596 120 l 1
 654 120 l 2
EndSplineSet
EndChar

StartChar: uni040B
Encoding: 1035 1035 435
Width: 750
Flags: W
LayerCount: 2
Fore
SplineSet
505 470 m 0
 646 470 724 378 724 229 c 2
 724 0 l 1
 560 0 l 1
 560 228 l 2
 560 310 531 349 463 349 c 0
 413 349 379 332 352 305 c 1
 352 0 l 1
 188 0 l 1
 188 569 l 1
 9 569 l 1
 9 693 l 1
 539 693 l 1
 523 569 l 1
 352 569 l 1
 352 414 l 1
 392 450 440 470 505 470 c 0
EndSplineSet
EndChar

StartChar: uni040C
Encoding: 1036 1036 436
Width: 623
Flags: W
LayerCount: 2
Fore
SplineSet
392 956 m 1
 451 838 l 1
 211 751 l 1
 171 831 l 1
 392 956 l 1
610 693 m 1
 439 379 l 1
 629 0 l 1
 450 0 l 1
 301 301 l 1
 229 301 l 1
 229 0 l 1
 65 0 l 1
 65 693 l 1
 229 693 l 1
 229 421 l 1
 305 421 l 1
 449 693 l 1
 610 693 l 1
EndSplineSet
EndChar

StartChar: uni040D
Encoding: 1037 1037 437
Width: 663
Flags: W
LayerCount: 2
Fore
SplineSet
247 956 m 1
 468 831 l 1
 428 751 l 1
 188 838 l 1
 247 956 l 1
599 693 m 1
 599 0 l 1
 438 0 l 1
 438 259 l 2
 438 380 450 470 461 532 c 1
 262 0 l 1
 65 0 l 1
 65 693 l 1
 226 693 l 1
 226 429 l 2
 226 303 213 230 202 163 c 1
 405 693 l 1
 599 693 l 1
EndSplineSet
EndChar

StartChar: uni040E
Encoding: 1038 1038 438
Width: 577
Flags: W
LayerCount: 2
Fore
SplineSet
288 751 m 0
 183 751 124 814 116 904 c 1
 203 920 l 1
 215 877 242 860 288 860 c 0
 334 860 361 877 374 920 c 1
 461 904 l 1
 453 814 393 751 288 751 c 0
594 693 m 1
 409 207 l 2
 348 44 270 -3 114 -17 c 1
 92 93 l 1
 179 104 220 125 252 183 c 1
 200 183 l 1
 -12 693 l 1
 156 693 l 1
 301 276 l 1
 428 693 l 1
 594 693 l 1
EndSplineSet
EndChar

StartChar: uni040F
Encoding: 1039 1039 439
Width: 657
Flags: W
LayerCount: 2
Fore
SplineSet
592 693 m 1
 592 0 l 1
 393 0 l 1
 393 -166 l 1
 279 -166 l 1
 261 0 l 1
 65 0 l 1
 65 693 l 1
 229 693 l 1
 229 128 l 1
 428 128 l 1
 428 693 l 1
 592 693 l 1
EndSplineSet
EndChar

StartChar: uni0410
Encoding: 1040 1040 440
Width: 590
Flags: W
LayerCount: 2
Fore
SplineSet
430 0 m 1
 395 149 l 1
 192 149 l 1
 157 0 l 1
 -13 0 l 1
 196 693 l 1
 395 693 l 1
 604 0 l 1
 430 0 l 1
220 268 m 1
 366 268 l 1
 293 574 l 1
 220 268 l 1
EndSplineSet
EndChar

StartChar: uni0411
Encoding: 1041 1041 441
Width: 596
Flags: W
LayerCount: 2
Fore
SplineSet
303 446 m 2
 476 446 578 374 578 229 c 0
 578 73 464 0 306 0 c 2
 65 0 l 1
 65 693 l 1
 497 693 l 1
 480 569 l 1
 229 569 l 1
 229 446 l 1
 303 446 l 2
292 119 m 2
 365 119 407 152 407 227 c 0
 407 296 369 332 289 332 c 2
 229 332 l 1
 229 119 l 1
 292 119 l 2
EndSplineSet
EndChar

StartChar: uni0412
Encoding: 1042 1042 442
Width: 617
Flags: W
LayerCount: 2
Fore
SplineSet
434 367 m 1
 511 352 590 314 590 202 c 0
 590 44 462 0 288 0 c 2
 65 0 l 1
 65 693 l 1
 261 693 l 2
 447 693 561 646 561 516 c 0
 561 428 498 382 434 367 c 1
277 577 m 2
 229 577 l 1
 229 416 l 1
 290 416 l 2
 358 416 394 442 394 500 c 0
 394 558 356 577 277 577 c 2
289 119 m 2
 366 119 421 135 421 211 c 0
 421 281 372 307 301 307 c 2
 229 307 l 1
 229 119 l 1
 289 119 l 2
EndSplineSet
EndChar

StartChar: uni0413
Encoding: 1043 1043 443
Width: 510
Flags: W
LayerCount: 2
Fore
SplineSet
509 693 m 1
 491 564 l 1
 229 564 l 1
 229 0 l 1
 65 0 l 1
 65 693 l 1
 509 693 l 1
EndSplineSet
EndChar

StartChar: uni0414
Encoding: 1044 1044 444
Width: 630
Flags: W
LayerCount: 2
Fore
SplineSet
556 125 m 1
 617 125 l 1
 617 -166 l 1
 503 -166 l 1
 485 0 l 1
 119 0 l 1
 100 -166 l 1
 -13 -166 l 1
 -13 125 l 1
 38 125 l 1
 79 173 95 245 125 475 c 2
 152 693 l 1
 556 693 l 1
 556 125 l 1
397 125 m 1
 397 572 l 1
 290 572 l 1
 282 489 l 2
 258 263 232 178 167 125 c 1
 397 125 l 1
EndSplineSet
EndChar

StartChar: uni0415
Encoding: 1045 1045 445
Width: 526
Flags: W
LayerCount: 2
Fore
SplineSet
490 693 m 1
 473 576 l 1
 229 576 l 1
 229 410 l 1
 442 410 l 1
 442 295 l 1
 229 295 l 1
 229 118 l 1
 490 118 l 1
 490 0 l 1
 65 0 l 1
 65 693 l 1
 490 693 l 1
EndSplineSet
EndChar

StartChar: uni0416
Encoding: 1046 1046 446
Width: 905
Flags: W
LayerCount: 2
Fore
SplineSet
894 693 m 1
 721 379 l 1
 913 0 l 1
 735 0 l 1
 589 303 l 1
 528 303 l 1
 528 0 l 1
 377 0 l 1
 377 303 l 1
 314 303 l 1
 167 0 l 1
 -7 0 l 1
 184 379 l 1
 11 693 l 1
 173 693 l 1
 318 419 l 1
 377 419 l 1
 377 693 l 1
 528 693 l 1
 528 419 l 1
 587 419 l 1
 734 693 l 1
 894 693 l 1
EndSplineSet
EndChar

StartChar: uni0417
Encoding: 1047 1047 447
Width: 541
Flags: W
LayerCount: 2
Fore
SplineSet
238 -17 m 0
 133 -17 55 17 -2 80 c 1
 85 166 l 1
 128 125 170 104 226 104 c 0
 299 104 343 140 343 205 c 0
 343 268 302 306 219 306 c 2
 146 306 l 1
 165 424 l 1
 222 424 l 2
 288 424 325 456 325 510 c 0
 325 555 300 591 235 591 c 0
 188 591 143 573 95 535 c 1
 19 618 l 1
 84 679 163 710 257 710 c 0
 405 710 493 633 493 528 c 0
 493 449 443 389 339 368 c 1
 446 356 515 299 515 197 c 0
 515 66 401 -17 238 -17 c 0
EndSplineSet
EndChar

StartChar: uni0418
Encoding: 1048 1048 448
Width: 663
Flags: W
LayerCount: 2
Fore
SplineSet
599 693 m 1
 599 0 l 1
 438 0 l 1
 438 259 l 2
 438 380 450 470 461 532 c 1
 262 0 l 1
 65 0 l 1
 65 693 l 1
 226 693 l 1
 226 429 l 2
 226 303 213 230 202 163 c 1
 405 693 l 1
 599 693 l 1
EndSplineSet
EndChar

StartChar: uni0419
Encoding: 1049 1049 449
Width: 663
Flags: W
LayerCount: 2
Fore
SplineSet
331 751 m 0
 226 751 167 814 159 904 c 1
 246 920 l 1
 258 877 285 860 331 860 c 0
 377 860 404 877 417 920 c 1
 504 904 l 1
 496 814 436 751 331 751 c 0
599 693 m 1
 599 0 l 1
 438 0 l 1
 438 259 l 2
 438 380 450 470 461 532 c 1
 262 0 l 1
 65 0 l 1
 65 693 l 1
 226 693 l 1
 226 429 l 2
 226 303 213 230 202 163 c 1
 405 693 l 1
 599 693 l 1
EndSplineSet
EndChar

StartChar: uni041A
Encoding: 1050 1050 450
Width: 623
Flags: W
LayerCount: 2
Fore
SplineSet
610 693 m 1
 439 379 l 1
 629 0 l 1
 450 0 l 1
 301 301 l 1
 229 301 l 1
 229 0 l 1
 65 0 l 1
 65 693 l 1
 229 693 l 1
 229 421 l 1
 305 421 l 1
 449 693 l 1
 610 693 l 1
EndSplineSet
EndChar

StartChar: uni041B
Encoding: 1051 1051 451
Width: 655
Flags: W
LayerCount: 2
Fore
SplineSet
145 693 m 1
 591 693 l 1
 591 0 l 1
 427 0 l 1
 427 569 l 1
 283 569 l 1
 257 334 l 2
 231 109 191 16 41 -17 c 1
 2 98 l 1
 75 127 83 177 103 342 c 2
 145 693 l 1
EndSplineSet
EndChar

StartChar: uni041C
Encoding: 1052 1052 452
Width: 786
Flags: W
LayerCount: 2
Fore
SplineSet
701 693 m 1
 753 0 l 1
 592 0 l 1
 580 271 l 2
 575 368 573 468 578 554 c 1
 471 73 l 1
 316 73 l 1
 202 554 l 1
 209 452 209 366 205 269 c 2
 193 0 l 1
 33 0 l 1
 85 693 l 1
 292 693 l 1
 396 223 l 1
 493 693 l 1
 701 693 l 1
EndSplineSet
EndChar

StartChar: uni041D
Encoding: 1053 1053 453
Width: 666
Flags: W
LayerCount: 2
Fore
SplineSet
437 0 m 1
 437 297 l 1
 229 297 l 1
 229 0 l 1
 65 0 l 1
 65 693 l 1
 229 693 l 1
 229 425 l 1
 437 425 l 1
 437 693 l 1
 601 693 l 1
 601 0 l 1
 437 0 l 1
EndSplineSet
EndChar

StartChar: uni041E
Encoding: 1054 1054 454
Width: 691
Flags: W
LayerCount: 2
Fore
SplineSet
345 710 m 0
 541 710 658 578 658 347 c 0
 658 120 541 -17 345 -17 c 0
 150 -17 33 116 33 347 c 0
 33 573 150 710 345 710 c 0
345 590 m 0
 253 590 205 522 205 347 c 0
 205 171 255 103 345 103 c 0
 439 103 486 171 486 347 c 0
 486 522 438 590 345 590 c 0
EndSplineSet
EndChar

StartChar: uni041F
Encoding: 1055 1055 455
Width: 664
Flags: W
LayerCount: 2
Fore
SplineSet
599 693 m 1
 599 0 l 1
 435 0 l 1
 435 567 l 1
 229 567 l 1
 229 0 l 1
 65 0 l 1
 65 693 l 1
 599 693 l 1
EndSplineSet
EndChar

StartChar: uni0420
Encoding: 1056 1056 456
Width: 600
Flags: W
LayerCount: 2
Fore
SplineSet
289 693 m 2
 468 693 578 619 578 467 c 0
 578 306 464 231 304 231 c 2
 229 231 l 1
 229 0 l 1
 65 0 l 1
 65 693 l 1
 289 693 l 2
290 349 m 2
 364 349 409 380 409 467 c 0
 409 541 368 576 287 576 c 2
 229 576 l 1
 229 349 l 1
 290 349 l 2
EndSplineSet
EndChar

StartChar: uni0421
Encoding: 1057 1057 457
Width: 575
Flags: W
LayerCount: 2
Fore
SplineSet
348 710 m 0
 438 710 501 683 559 634 c 1
 481 541 l 1
 442 571 403 589 356 589 c 0
 267 589 205 518 205 348 c 0
 205 181 266 110 358 110 c 0
 413 110 453 135 494 166 c 1
 567 72 l 1
 521 26 446 -17 350 -17 c 0
 160 -17 33 111 33 348 c 0
 33 580 168 710 348 710 c 0
EndSplineSet
EndChar

StartChar: uni0422
Encoding: 1058 1058 458
Width: 540
Flags: W
LayerCount: 2
Fore
SplineSet
539 693 m 1
 523 567 l 1
 352 567 l 1
 352 0 l 1
 188 0 l 1
 188 567 l 1
 9 567 l 1
 9 693 l 1
 539 693 l 1
EndSplineSet
EndChar

StartChar: uni0423
Encoding: 1059 1059 459
Width: 577
Flags: W
LayerCount: 2
Fore
SplineSet
594 693 m 1
 409 207 l 2
 348 44 270 -3 114 -17 c 1
 92 93 l 1
 179 104 220 125 252 183 c 1
 200 183 l 1
 -12 693 l 1
 156 693 l 1
 301 276 l 1
 428 693 l 1
 594 693 l 1
EndSplineSet
EndChar

StartChar: uni0424
Encoding: 1060 1060 460
Width: 853
Flags: W
LayerCount: 2
Fore
SplineSet
832 351 m 0
 832 144 701 51 506 43 c 1
 506 -40 l 1
 347 -40 l 1
 347 43 l 1
 150 52 21 145 21 346 c 0
 21 553 152 646 347 654 c 1
 347 731 l 1
 506 731 l 1
 506 654 l 1
 703 645 832 552 832 351 c 0
499 144 m 1
 617 153 665 217 665 351 c 0
 665 482 613 545 499 553 c 1
 499 144 l 1
188 346 m 0
 188 215 240 152 354 144 c 1
 354 553 l 1
 236 544 188 480 188 346 c 0
EndSplineSet
EndChar

StartChar: uni0425
Encoding: 1061 1061 461
Width: 581
Flags: W
LayerCount: 2
Fore
SplineSet
385 374 m 1
 585 0 l 1
 406 0 l 1
 287 264 l 1
 170 0 l 1
 -4 0 l 1
 190 368 l 1
 11 693 l 1
 189 693 l 1
 289 471 l 1
 394 693 l 1
 568 693 l 1
 385 374 l 1
EndSplineSet
EndChar

StartChar: uni0426
Encoding: 1062 1062 462
Width: 686
Flags: W
LayerCount: 2
Fore
SplineSet
592 125 m 1
 672 125 l 1
 672 -166 l 1
 559 -166 l 1
 541 0 l 1
 65 0 l 1
 65 693 l 1
 229 693 l 1
 229 128 l 1
 428 128 l 1
 428 693 l 1
 592 693 l 1
 592 125 l 1
EndSplineSet
EndChar

StartChar: uni0427
Encoding: 1063 1063 463
Width: 619
Flags: W
LayerCount: 2
Fore
SplineSet
390 693 m 1
 554 693 l 1
 554 0 l 1
 390 0 l 1
 390 256 l 1
 344 220 298 203 236 203 c 0
 101 203 21 295 21 441 c 2
 21 693 l 1
 183 693 l 1
 183 443 l 2
 183 361 214 325 283 325 c 0
 333 325 365 340 390 364 c 1
 390 693 l 1
EndSplineSet
EndChar

StartChar: uni0428
Encoding: 1064 1064 464
Width: 909
Flags: W
LayerCount: 2
Fore
SplineSet
845 693 m 1
 845 0 l 1
 65 0 l 1
 65 693 l 1
 225 693 l 1
 225 128 l 1
 378 128 l 1
 378 693 l 1
 531 693 l 1
 531 128 l 1
 684 128 l 1
 684 693 l 1
 845 693 l 1
EndSplineSet
EndChar

StartChar: uni0429
Encoding: 1065 1065 465
Width: 939
Flags: W
LayerCount: 2
Fore
SplineSet
845 125 m 1
 925 125 l 1
 925 -166 l 1
 811 -166 l 1
 793 0 l 1
 65 0 l 1
 65 693 l 1
 225 693 l 1
 225 128 l 1
 378 128 l 1
 378 693 l 1
 531 693 l 1
 531 128 l 1
 684 128 l 1
 684 693 l 1
 845 693 l 1
 845 125 l 1
EndSplineSet
EndChar

StartChar: uni042A
Encoding: 1066 1066 466
Width: 717
Flags: W
LayerCount: 2
Fore
SplineSet
426 457 m 2
 599 457 702 385 702 235 c 0
 702 73 588 0 430 0 c 2
 188 0 l 1
 188 569 l 1
 9 569 l 1
 9 693 l 1
 352 693 l 1
 352 457 l 1
 426 457 l 2
416 119 m 2
 488 119 530 152 530 233 c 0
 530 307 493 343 412 343 c 2
 352 343 l 1
 352 119 l 1
 416 119 l 2
EndSplineSet
EndChar

StartChar: uni042B
Encoding: 1067 1067 467
Width: 850
Flags: W
LayerCount: 2
Fore
SplineSet
292 457 m 2
 466 457 568 385 568 235 c 0
 568 73 454 0 296 0 c 2
 65 0 l 1
 65 693 l 1
 229 693 l 1
 229 457 l 1
 292 457 l 2
622 693 m 1
 786 693 l 1
 786 0 l 1
 622 0 l 1
 622 693 l 1
282 119 m 2
 355 119 397 152 397 233 c 0
 397 307 359 343 278 343 c 2
 229 343 l 1
 229 119 l 1
 282 119 l 2
EndSplineSet
EndChar

StartChar: uni042C
Encoding: 1068 1068 468
Width: 594
Flags: W
LayerCount: 2
Fore
SplineSet
303 457 m 2
 476 457 578 385 578 235 c 0
 578 73 464 0 306 0 c 2
 65 0 l 1
 65 693 l 1
 229 693 l 1
 229 457 l 1
 303 457 l 2
292 119 m 2
 365 119 407 152 407 233 c 0
 407 307 369 343 289 343 c 2
 229 343 l 1
 229 119 l 1
 292 119 l 2
EndSplineSet
EndChar

StartChar: uni042D
Encoding: 1069 1069 469
Width: 541
Flags: W
LayerCount: 2
Fore
SplineSet
231 710 m 0
 401 710 508 597 508 354 c 0
 508 111 397 -17 218 -17 c 0
 122 -17 58 15 8 63 c 1
 81 154 l 1
 119 124 153 106 207 106 c 0
 290 106 336 166 341 297 c 1
 107 297 l 1
 107 413 l 1
 341 413 l 1
 334 542 288 591 219 591 c 0
 167 591 133 574 92 540 c 1
 14 632 l 1
 72 681 133 710 231 710 c 0
EndSplineSet
EndChar

StartChar: uni042E
Encoding: 1070 1070 470
Width: 931
Flags: W
LayerCount: 2
Fore
SplineSet
596 710 m 0
 787 710 898 578 898 347 c 0
 898 120 787 -17 596 -17 c 0
 418 -17 318 99 302 295 c 1
 229 295 l 1
 229 0 l 1
 65 0 l 1
 65 693 l 1
 229 693 l 1
 229 423 l 1
 305 423 l 1
 332 606 429 710 596 710 c 0
596 103 m 0
 683 103 727 171 727 347 c 0
 727 522 682 590 596 590 c 0
 511 590 465 522 465 345 c 0
 465 171 512 103 596 103 c 0
EndSplineSet
EndChar

StartChar: uni042F
Encoding: 1071 1071 471
Width: 608
Flags: W
LayerCount: 2
Fore
SplineSet
313 693 m 2
 543 693 l 1
 543 0 l 1
 379 0 l 1
 379 250 l 1
 298 250 l 1
 182 0 l 1
 2 0 l 1
 151 279 l 1
 71 313 29 374 29 471 c 0
 29 618 124 693 313 693 c 2
305 364 m 2
 379 364 l 1
 379 578 l 1
 321 578 l 2
 239 578 200 539 200 467 c 0
 200 398 244 364 305 364 c 2
EndSplineSet
EndChar

StartChar: uni0430
Encoding: 1072 1072 472
Width: 546
Flags: W
LayerCount: 2
Fore
SplineSet
482 154 m 2
 482 113 493 98 518 89 c 1
 485 -14 l 1
 423 -9 382 10 357 62 c 1
 319 4 260 -17 197 -17 c 0
 91 -17 24 52 24 149 c 0
 24 265 113 328 273 328 c 2
 327 328 l 1
 327 351 l 2
 327 414 302 433 237 433 c 0
 203 433 151 423 98 405 c 1
 62 509 l 1
 129 534 202 548 262 548 c 0
 416 548 482 483 482 360 c 2
 482 154 l 2
243 96 m 0
 279 96 308 115 327 146 c 1
 327 241 l 1
 288 241 l 2
 216 241 182 216 182 163 c 0
 182 121 204 96 243 96 c 0
EndSplineSet
EndChar

StartChar: uni0431
Encoding: 1073 1073 473
Width: 576
Flags: W
LayerCount: 2
Fore
SplineSet
348 494 m 0
 459 494 547 406 547 248 c 0
 547 84 447 -17 294 -17 c 0
 142 -17 38 77 38 297 c 0
 38 521 86 628 258 683 c 0
 341 709 376 725 434 759 c 1
 491 658 l 1
 444 627 397 607 320 583 c 0
 238 556 202 523 189 412 c 1
 225 464 275 494 348 494 c 0
293 99 m 0
 345 99 384 130 384 243 c 0
 384 349 354 378 303 378 c 0
 264 378 226 357 202 312 c 1
 202 244 l 2
 202 143 237 99 293 99 c 0
EndSplineSet
EndChar

StartChar: uni0432
Encoding: 1074 1074 474
Width: 555
Flags: W
LayerCount: 2
Fore
SplineSet
387 292 m 1
 481 281 523 235 523 161 c 0
 523 48 425 0 286 0 c 2
 61 0 l 1
 61 526 l 1
 137 540 203 548 271 548 c 0
 411 548 499 501 499 404 c 0
 499 345 462 305 387 292 c 1
268 447 m 0
 251 447 237 447 219 445 c 1
 219 323 l 1
 275 323 l 2
 316 323 344 342 344 386 c 0
 344 427 318 447 268 447 c 0
281 104 m 2
 330 104 361 123 361 175 c 0
 361 218 338 240 282 240 c 2
 219 240 l 1
 219 104 l 1
 281 104 l 2
EndSplineSet
EndChar

StartChar: uni0433
Encoding: 1075 1075 475
Width: 432
Flags: W
LayerCount: 2
Fore
SplineSet
219 0 m 1
 61 0 l 1
 61 531 l 1
 437 531 l 1
 418 411 l 1
 219 411 l 1
 219 0 l 1
EndSplineSet
EndChar

StartChar: uni0434
Encoding: 1076 1076 476
Width: 555
Flags: W
LayerCount: 2
Fore
SplineSet
490 116 m 1
 546 116 l 1
 546 -166 l 1
 437 -166 l 1
 419 0 l 1
 127 0 l 1
 109 -166 l 1
 0 -166 l 1
 0 116 l 1
 33 116 l 1
 64 139 85 169 100 351 c 2
 115 531 l 1
 490 531 l 1
 490 116 l 1
342 116 m 1
 342 427 l 1
 250 427 l 1
 245 365 l 2
 232 206 209 149 151 116 c 1
 342 116 l 1
EndSplineSet
EndChar

StartChar: uni0435
Encoding: 1077 1077 477
Width: 554
Flags: W
LayerCount: 2
Fore
SplineSet
525 276 m 0
 525 259 524 235 522 219 c 1
 194 219 l 1
 204 124 249 98 314 98 c 0
 357 98 395 113 441 145 c 1
 506 57 l 1
 453 15 385 -17 299 -17 c 0
 122 -17 32 97 32 263 c 0
 32 422 119 548 280 548 c 0
 432 548 525 448 525 276 c 0
370 314 m 1
 370 321 l 2
 369 393 347 443 284 443 c 0
 231 443 201 410 193 314 c 1
 370 314 l 1
EndSplineSet
EndChar

StartChar: uni0436
Encoding: 1078 1078 478
Width: 761
Flags: W
LayerCount: 2
Fore
SplineSet
743 531 m 1
 621 284 l 1
 755 0 l 1
 594 0 l 1
 497 227 l 1
 450 227 l 1
 450 0 l 1
 311 0 l 1
 311 227 l 1
 264 227 l 1
 166 0 l 1
 6 0 l 1
 141 284 l 1
 18 531 l 1
 168 531 l 1
 262 322 l 1
 311 322 l 1
 311 531 l 1
 450 531 l 1
 450 322 l 1
 500 322 l 1
 594 531 l 1
 743 531 l 1
EndSplineSet
EndChar

StartChar: uni0437
Encoding: 1079 1079 479
Width: 494
Flags: W
LayerCount: 2
Fore
SplineSet
231 548 m 0
 346 548 439 494 439 401 c 0
 439 341 400 303 323 283 c 1
 415 270 465 231 465 153 c 0
 465 39 362 -17 219 -17 c 0
 129 -17 59 6 3 47 c 1
 77 135 l 1
 125 106 162 96 214 96 c 0
 268 96 302 115 302 162 c 0
 302 205 268 222 210 222 c 2
 127 222 l 1
 136 324 l 1
 198 324 l 2
 249 324 280 344 280 385 c 0
 280 423 250 439 209 439 c 0
 162 439 128 426 92 403 c 1
 19 486 l 1
 78 527 144 548 231 548 c 0
EndSplineSet
EndChar

StartChar: uni0438
Encoding: 1080 1080 480
Width: 588
Flags: W
LayerCount: 2
Fore
SplineSet
528 531 m 1
 528 0 l 1
 377 0 l 1
 377 189 l 2
 377 271 389 340 399 379 c 1
 222 0 l 1
 61 0 l 1
 61 531 l 1
 212 531 l 1
 212 339 l 2
 212 263 201 190 190 151 c 1
 365 531 l 1
 528 531 l 1
EndSplineSet
EndChar

StartChar: uni0439
Encoding: 1081 1081 481
Width: 588
Flags: W
LayerCount: 2
Fore
SplineSet
294 632 m 0
 189 632 130 696 122 786 c 1
 209 802 l 1
 221 759 248 742 294 742 c 0
 340 742 367 759 380 802 c 1
 467 786 l 1
 459 696 399 632 294 632 c 0
528 531 m 1
 528 0 l 1
 377 0 l 1
 377 189 l 2
 377 271 389 340 399 379 c 1
 222 0 l 1
 61 0 l 1
 61 531 l 1
 212 531 l 1
 212 339 l 2
 212 263 201 190 190 151 c 1
 365 531 l 1
 528 531 l 1
EndSplineSet
EndChar

StartChar: uni043A
Encoding: 1082 1082 482
Width: 549
Flags: W
LayerCount: 2
Fore
SplineSet
537 531 m 1
 397 285 l 1
 550 0 l 1
 383 0 l 1
 267 228 l 1
 219 228 l 1
 219 0 l 1
 61 0 l 1
 61 531 l 1
 219 531 l 1
 219 324 l 1
 271 324 l 1
 385 531 l 1
 537 531 l 1
EndSplineSet
EndChar

StartChar: uni043B
Encoding: 1083 1083 483
Width: 569
Flags: W
LayerCount: 2
Fore
SplineSet
110 531 m 1
 508 531 l 1
 508 0 l 1
 350 0 l 1
 350 415 l 1
 249 415 l 1
 239 302 l 2
 220 92 202 21 53 -13 c 1
 14 102 l 1
 75 130 82 146 94 310 c 2
 110 531 l 1
EndSplineSet
EndChar

StartChar: uni043C
Encoding: 1084 1084 484
Width: 672
Flags: W
LayerCount: 2
Fore
SplineSet
597 531 m 1
 643 0 l 1
 493 0 l 1
 481 190 l 2
 477 258 479 315 484 393 c 1
 398 54 l 1
 267 54 l 1
 184 392 l 1
 190 321 190 258 187 190 c 2
 178 0 l 1
 29 0 l 1
 74 531 l 1
 260 531 l 1
 333 189 l 1
 408 531 l 1
 597 531 l 1
EndSplineSet
EndChar

StartChar: uni043D
Encoding: 1085 1085 485
Width: 584
Flags: W
LayerCount: 2
Fore
SplineSet
365 0 m 1
 365 211 l 1
 219 211 l 1
 219 0 l 1
 61 0 l 1
 61 531 l 1
 219 531 l 1
 219 328 l 1
 365 328 l 1
 365 531 l 1
 523 531 l 1
 523 0 l 1
 365 0 l 1
EndSplineSet
EndChar

StartChar: uni043E
Encoding: 1086 1086 486
Width: 584
Flags: W
LayerCount: 2
Fore
SplineSet
292 548 m 0
 454 548 552 444 552 265 c 0
 552 95 454 -17 292 -17 c 0
 131 -17 32 87 32 266 c 0
 32 436 130 548 292 548 c 0
292 432 m 0
 228 432 196 381 196 266 c 0
 196 148 228 99 292 99 c 0
 356 99 388 150 388 265 c 0
 388 383 356 432 292 432 c 0
EndSplineSet
EndChar

StartChar: uni043F
Encoding: 1087 1087 487
Width: 580
Flags: W
LayerCount: 2
Fore
SplineSet
361 0 m 1
 361 414 l 1
 219 414 l 1
 219 0 l 1
 61 0 l 1
 61 531 l 1
 519 531 l 1
 519 0 l 1
 361 0 l 1
EndSplineSet
EndChar

StartChar: uni0440
Encoding: 1088 1088 488
Width: 591
Flags: W
LayerCount: 2
Fore
SplineSet
361 548 m 0
 498 548 559 439 559 267 c 0
 559 103 479 -17 348 -17 c 0
 296 -17 252 1 219 38 c 1
 219 -205 l 1
 61 -222 l 1
 61 531 l 1
 200 531 l 1
 208 472 l 1
 252 527 308 548 361 548 c 0
299 99 m 0
 358 99 395 146 395 265 c 0
 395 397 363 432 310 432 c 0
 274 432 242 409 219 370 c 1
 219 146 l 1
 241 114 266 99 299 99 c 0
EndSplineSet
EndChar

StartChar: uni0441
Encoding: 1089 1089 489
Width: 479
Flags: W
LayerCount: 2
Fore
SplineSet
292 548 m 0
 366 548 423 526 474 483 c 1
 406 389 l 1
 372 415 341 427 305 427 c 0
 237 427 198 381 198 262 c 0
 198 144 240 108 303 108 c 0
 341 108 367 120 405 144 c 1
 474 46 l 1
 425 7 368 -17 295 -17 c 0
 132 -17 32 93 32 261 c 0
 32 430 133 548 292 548 c 0
EndSplineSet
EndChar

StartChar: uni0442
Encoding: 1090 1090 490
Width: 472
Flags: W
LayerCount: 2
Fore
SplineSet
478 531 m 1
 459 414 l 1
 315 414 l 1
 315 0 l 1
 157 0 l 1
 157 414 l 1
 2 414 l 1
 2 531 l 1
 478 531 l 1
EndSplineSet
EndChar

StartChar: uni0443
Encoding: 1091 1091 491
Width: 518
Flags: W
LayerCount: 2
Fore
SplineSet
524 531 m 1
 355 -1 l 2
 313 -135 223 -213 56 -222 c 1
 39 -111 l 1
 143 -98 181 -68 210 0 c 1
 156 0 l 1
 -6 531 l 1
 162 531 l 1
 257 101 l 1
 361 531 l 1
 524 531 l 1
EndSplineSet
EndChar

StartChar: uni0444
Encoding: 1092 1092 492
Width: 828
Flags: W
LayerCount: 2
Fore
SplineSet
613 548 m 0
 742 548 796 441 796 265 c 0
 796 92 722 -17 608 -17 c 0
 559 -17 519 3 488 41 c 1
 488 -205 l 1
 340 -222 l 1
 340 41 l 1
 309 3 267 -17 217 -17 c 0
 105 -17 32 92 32 265 c 0
 32 441 93 548 219 548 c 0
 265 548 305 534 340 495 c 1
 340 759 l 1
 488 742 l 1
 488 494 l 1
 524 534 566 548 613 548 c 0
265 97 m 0
 295 97 317 112 340 143 c 1
 340 390 l 1
 319 417 295 434 265 434 c 0
 218 434 193 390 193 265 c 0
 193 143 220 97 265 97 c 0
562 97 m 0
 608 97 635 143 635 265 c 0
 635 390 612 434 564 434 c 0
 533 434 510 417 488 389 c 1
 488 142 l 1
 509 112 530 97 562 97 c 0
EndSplineSet
EndChar

StartChar: uni0445
Encoding: 1093 1093 493
Width: 512
Flags: W
LayerCount: 2
Fore
SplineSet
351 284 m 1
 522 0 l 1
 343 0 l 1
 251 199 l 1
 161 0 l 1
 -11 0 l 1
 160 279 l 1
 6 531 l 1
 183 531 l 1
 257 361 l 1
 328 531 l 1
 496 531 l 1
 351 284 l 1
EndSplineSet
EndChar

StartChar: uni0446
Encoding: 1094 1094 494
Width: 594
Flags: W
LayerCount: 2
Fore
SplineSet
514 116 m 1
 595 116 l 1
 595 -166 l 1
 486 -166 l 1
 468 0 l 1
 61 0 l 1
 61 531 l 1
 219 531 l 1
 219 117 l 1
 356 117 l 1
 356 531 l 1
 514 531 l 1
 514 116 l 1
EndSplineSet
EndChar

StartChar: uni0447
Encoding: 1095 1095 495
Width: 550
Flags: W
LayerCount: 2
Fore
SplineSet
331 531 m 1
 489 531 l 1
 489 0 l 1
 331 0 l 1
 331 199 l 1
 294 168 241 148 183 148 c 0
 78 148 30 213 30 313 c 2
 30 531 l 1
 188 531 l 1
 188 333 l 2
 188 282 208 265 242 265 c 0
 274 265 309 279 331 299 c 1
 331 531 l 1
EndSplineSet
EndChar

StartChar: uni0448
Encoding: 1096 1096 496
Width: 779
Flags: W
LayerCount: 2
Fore
SplineSet
719 531 m 1
 719 0 l 1
 61 0 l 1
 61 531 l 1
 212 531 l 1
 212 116 l 1
 322 116 l 1
 322 531 l 1
 457 531 l 1
 457 116 l 1
 568 116 l 1
 568 531 l 1
 719 531 l 1
EndSplineSet
EndChar

StartChar: uni0449
Encoding: 1097 1097 497
Width: 799
Flags: W
LayerCount: 2
Fore
SplineSet
719 116 m 1
 800 116 l 1
 800 -166 l 1
 690 -166 l 1
 672 0 l 1
 61 0 l 1
 61 531 l 1
 212 531 l 1
 212 116 l 1
 322 116 l 1
 322 531 l 1
 457 531 l 1
 457 116 l 1
 568 116 l 1
 568 531 l 1
 719 531 l 1
 719 116 l 1
EndSplineSet
EndChar

StartChar: uni044A
Encoding: 1098 1098 498
Width: 616
Flags: W
LayerCount: 2
Fore
SplineSet
352 366 m 2
 527 366 600 301 600 182 c 0
 600 60 504 0 375 0 c 2
 156 0 l 1
 156 418 l 1
 2 418 l 1
 2 531 l 1
 315 531 l 1
 314 530 l 1
 314 366 l 1
 352 366 l 2
358 104 m 2
 410 104 439 130 439 185 c 0
 439 237 417 265 349 265 c 2
 314 265 l 1
 314 104 l 1
 358 104 l 2
EndSplineSet
EndChar

StartChar: uni044B
Encoding: 1099 1099 499
Width: 759
Flags: W
LayerCount: 2
Fore
SplineSet
246 366 m 2
 422 366 495 301 495 182 c 0
 495 60 399 0 270 0 c 2
 61 0 l 1
 61 531 l 1
 219 531 l 1
 219 366 l 1
 246 366 l 2
540 531 m 1
 698 531 l 1
 698 0 l 1
 540 0 l 1
 540 531 l 1
253 104 m 2
 305 104 334 130 334 185 c 0
 334 237 311 265 244 265 c 2
 219 265 l 1
 219 104 l 1
 253 104 l 2
EndSplineSet
EndChar

StartChar: uni044C
Encoding: 1100 1100 500
Width: 521
Flags: W
LayerCount: 2
Fore
SplineSet
256 366 m 2
 432 366 505 301 505 182 c 0
 505 60 409 0 280 0 c 2
 61 0 l 1
 61 531 l 1
 219 531 l 1
 219 366 l 1
 256 366 l 2
263 104 m 2
 315 104 344 130 344 185 c 0
 344 237 321 265 254 265 c 2
 219 265 l 1
 219 104 l 1
 263 104 l 2
EndSplineSet
EndChar

StartChar: uni044D
Encoding: 1101 1101 501
Width: 486
Flags: W
LayerCount: 2
Fore
SplineSet
213 548 m 0
 358 548 454 457 454 270 c 0
 454 96 362 -17 192 -17 c 0
 119 -17 61 5 11 43 c 1
 79 134 l 1
 117 109 146 98 186 98 c 0
 242 98 287 130 294 225 c 1
 104 225 l 1
 104 316 l 1
 293 316 l 1
 287 402 253 434 201 434 c 0
 161 434 128 423 91 399 c 1
 24 486 l 1
 75 526 135 548 213 548 c 0
EndSplineSet
EndChar

StartChar: uni044E
Encoding: 1102 1102 502
Width: 806
Flags: W
LayerCount: 2
Fore
SplineSet
528 548 m 0
 674 548 774 445 774 265 c 0
 774 99 678 -17 528 -17 c 0
 391 -17 308 70 288 215 c 1
 219 215 l 1
 219 0 l 1
 61 0 l 1
 61 531 l 1
 219 531 l 1
 219 324 l 1
 290 324 l 1
 311 459 393 548 528 548 c 0
528 99 m 0
 590 99 613 154 613 265 c 0
 613 379 586 432 528 432 c 0
 470 432 444 381 444 266 c 0
 444 152 470 99 528 99 c 0
EndSplineSet
EndChar

StartChar: uni044F
Encoding: 1103 1103 503
Width: 555
Flags: W
LayerCount: 2
Fore
SplineSet
292 531 m 2
 495 531 l 1
 495 0 l 1
 337 0 l 1
 337 185 l 1
 269 185 l 1
 173 0 l 1
 4 0 l 1
 126 222 l 1
 75 249 44 295 44 358 c 0
 44 472 131 531 292 531 c 2
288 279 m 2
 337 279 l 1
 337 430 l 1
 291 430 l 2
 233 430 205 402 205 357 c 0
 205 309 230 279 288 279 c 2
EndSplineSet
EndChar

StartChar: uni0450
Encoding: 1104 1104 504
Width: 554
Flags: W
LayerCount: 2
Fore
SplineSet
215 835 m 1
 433 703 l 1
 389 622 l 1
 153 717 l 1
 215 835 l 1
525 276 m 0
 525 259 524 235 522 219 c 1
 194 219 l 1
 204 124 249 98 314 98 c 0
 357 98 395 113 441 145 c 1
 506 57 l 1
 453 15 385 -17 299 -17 c 0
 122 -17 32 97 32 263 c 0
 32 422 119 548 280 548 c 0
 432 548 525 448 525 276 c 0
370 314 m 1
 370 321 l 2
 369 393 347 443 284 443 c 0
 231 443 201 410 193 314 c 1
 370 314 l 1
EndSplineSet
EndChar

StartChar: uni0451
Encoding: 1105 1105 505
Width: 554
Flags: W
LayerCount: 2
Fore
SplineSet
166 799 m 0
 212 799 247 764 247 720 c 0
 247 676 212 641 166 641 c 0
 121 641 85 676 85 720 c 0
 85 764 121 799 166 799 c 0
397 799 m 0
 444 799 478 764 478 720 c 0
 478 676 444 641 397 641 c 0
 353 641 317 676 317 720 c 0
 317 764 353 799 397 799 c 0
525 276 m 0
 525 259 524 235 522 219 c 1
 194 219 l 1
 204 124 249 98 314 98 c 0
 357 98 395 113 441 145 c 1
 506 57 l 1
 453 15 385 -17 299 -17 c 0
 122 -17 32 97 32 263 c 0
 32 422 119 548 280 548 c 0
 432 548 525 448 525 276 c 0
370 314 m 1
 370 321 l 2
 369 393 347 443 284 443 c 0
 231 443 201 410 193 314 c 1
 370 314 l 1
EndSplineSet
EndChar

StartChar: uni0452
Encoding: 1106 1106 506
Width: 582
Flags: W
LayerCount: 2
Fore
SplineSet
380 548 m 0
 472 548 528 489 528 388 c 2
 528 60 l 2
 528 -113 438 -176 314 -221 c 1
 261 -106 l 1
 329 -75 370 -47 370 50 c 2
 370 361 l 2
 370 417 349 432 319 432 c 0
 285 432 255 407 227 364 c 1
 227 0 l 1
 69 0 l 1
 69 596 l 1
 8 596 l 1
 8 688 l 1
 69 688 l 1
 69 742 l 1
 227 758 l 1
 227 688 l 1
 364 688 l 1
 364 596 l 1
 227 596 l 1
 227 474 l 1
 270 523 318 548 380 548 c 0
EndSplineSet
EndChar

StartChar: uni0453
Encoding: 1107 1107 507
Width: 432
Flags: W
LayerCount: 2
Fore
SplineSet
321 835 m 1
 383 717 l 1
 147 622 l 1
 103 703 l 1
 321 835 l 1
219 0 m 1
 61 0 l 1
 61 531 l 1
 437 531 l 1
 418 411 l 1
 219 411 l 1
 219 0 l 1
EndSplineSet
EndChar

StartChar: uni0454
Encoding: 1108 1108 508
Width: 486
Flags: W
LayerCount: 2
Fore
SplineSet
304 98 m 0
 340 98 370 109 408 137 c 1
 475 46 l 1
 425 6 368 -17 299 -17 c 0
 132 -17 32 93 32 262 c 0
 32 431 134 548 293 548 c 0
 366 548 425 526 475 483 c 1
 408 395 l 1
 371 423 339 434 303 434 c 0
 238 434 197 398 192 316 c 1
 383 316 l 1
 383 225 l 1
 192 225 l 1
 196 133 242 98 304 98 c 0
EndSplineSet
EndChar

StartChar: uni0455
Encoding: 1109 1109 509
Width: 480
Flags: W
LayerCount: 2
Fore
SplineSet
249 548 m 0
 326 548 395 523 444 483 c 1
 386 394 l 1
 345 420 301 435 255 435 c 0
 212 435 191 419 191 395 c 0
 191 367 205 355 300 327 c 0
 405 297 464 253 464 158 c 0
 464 48 360 -17 228 -17 c 0
 136 -17 58 15 6 62 c 1
 83 148 l 1
 123 117 172 96 224 96 c 0
 272 96 301 114 301 146 c 0
 301 182 285 193 189 220 c 0
 84 250 32 304 32 386 c 0
 32 477 115 548 249 548 c 0
EndSplineSet
EndChar

StartChar: uni0456
Encoding: 1110 1110 510
Width: 280
Flags: W
LayerCount: 2
Fore
SplineSet
139 811 m 0
 195 811 233 772 233 721 c 0
 233 670 195 631 139 631 c 0
 85 631 46 670 46 721 c 0
 46 772 85 811 139 811 c 0
219 531 m 1
 219 0 l 1
 61 0 l 1
 61 531 l 1
 219 531 l 1
EndSplineSet
EndChar

